<?xml version="1.0" encoding="utf-8" standalone="no"?>
<!DOCTYPE svg PUBLIC "-//W3C//DTD SVG 1.1//EN"
  "http://www.w3.org/Graphics/SVG/1.1/DTD/svg11.dtd">
<!-- Created with matplotlib (https://matplotlib.org/) -->
<svg height="180pt" version="1.1" viewBox="0 0 252 180" width="252pt" xmlns="http://www.w3.org/2000/svg" xmlns:xlink="http://www.w3.org/1999/xlink">
 <defs>
  <style type="text/css">
*{stroke-linecap:butt;stroke-linejoin:round;white-space:pre;}
  </style>
 </defs>
 <g id="figure_1">
  <g id="patch_1">
   <path d="M 0 180 
L 252 180 
L 252 0 
L 0 0 
z
" style="fill:#ffffff;"/>
  </g>
  <g id="axes_1">
   <g id="patch_2">
    <path d="M 30.24 97.2 
L 112 97.2 
L 112 1.8 
L 30.24 1.8 
z
" style="fill:#ffffff;"/>
   </g>
   <g id="line2d_1">
    <path clip-path="url(#pd32e30c011)" d="M 33.956364 92.640658 
L 41.389091 92.100223 
L 48.821818 90.655767 
L 56.254545 86.54975 
L 63.687273 73.372242 
L 71.12 49.374475 
L 78.552727 24.928836 
L 85.985455 12.417841 
L 93.418182 8.128115 
L 100.850909 6.696473 
L 108.283636 6.136364 
" style="fill:none;stroke:#11875d;stroke-linecap:round;stroke-width:1.5;"/>
   </g>
   <g id="matplotlib.axis_1">
    <g id="xtick_1">
     <g id="line2d_2">
      <defs>
       <path d="M 0 0 
L 0 4.8 
" id="mcd73aa890c" style="stroke:#262626;"/>
      </defs>
      <g>
       <use style="fill:#262626;stroke:#262626;" x="33.956364" xlink:href="#mcd73aa890c" y="97.2"/>
      </g>
     </g>
     <g id="text_1">
      <!-- -1.25 -->
      <defs>
       <path d="M 3.171875 21.484375 
L 3.171875 30.328125 
L 30.171875 30.328125 
L 30.171875 21.484375 
z
" id="ArialMT-45"/>
       <path d="M 37.25 0 
L 28.46875 0 
L 28.46875 56 
Q 25.296875 52.984375 20.140625 49.953125 
Q 14.984375 46.921875 10.890625 45.40625 
L 10.890625 53.90625 
Q 18.265625 57.375 23.78125 62.296875 
Q 29.296875 67.234375 31.59375 71.875 
L 37.25 71.875 
z
" id="ArialMT-49"/>
       <path d="M 9.078125 0 
L 9.078125 10.015625 
L 19.09375 10.015625 
L 19.09375 0 
z
" id="ArialMT-46"/>
       <path d="M 50.34375 8.453125 
L 50.34375 0 
L 3.03125 0 
Q 2.9375 3.171875 4.046875 6.109375 
Q 5.859375 10.9375 9.828125 15.625 
Q 13.8125 20.3125 21.34375 26.46875 
Q 33.015625 36.03125 37.109375 41.625 
Q 41.21875 47.21875 41.21875 52.203125 
Q 41.21875 57.421875 37.46875 61 
Q 33.734375 64.59375 27.734375 64.59375 
Q 21.390625 64.59375 17.578125 60.78125 
Q 13.765625 56.984375 13.71875 50.25 
L 4.6875 51.171875 
Q 5.609375 61.28125 11.65625 66.578125 
Q 17.71875 71.875 27.9375 71.875 
Q 38.234375 71.875 44.234375 66.15625 
Q 50.25 60.453125 50.25 52 
Q 50.25 47.703125 48.484375 43.546875 
Q 46.734375 39.40625 42.65625 34.8125 
Q 38.578125 30.21875 29.109375 22.21875 
Q 21.1875 15.578125 18.9375 13.203125 
Q 16.703125 10.84375 15.234375 8.453125 
z
" id="ArialMT-50"/>
       <path d="M 4.15625 18.75 
L 13.375 19.53125 
Q 14.40625 12.796875 18.140625 9.390625 
Q 21.875 6 27.15625 6 
Q 33.5 6 37.890625 10.78125 
Q 42.28125 15.578125 42.28125 23.484375 
Q 42.28125 31 38.0625 35.34375 
Q 33.84375 39.703125 27 39.703125 
Q 22.75 39.703125 19.328125 37.765625 
Q 15.921875 35.84375 13.96875 32.765625 
L 5.71875 33.84375 
L 12.640625 70.609375 
L 48.25 70.609375 
L 48.25 62.203125 
L 19.671875 62.203125 
L 15.828125 42.96875 
Q 22.265625 47.46875 29.34375 47.46875 
Q 38.71875 47.46875 45.15625 40.96875 
Q 51.609375 34.46875 51.609375 24.265625 
Q 51.609375 14.546875 45.953125 7.46875 
Q 39.0625 -1.21875 27.15625 -1.21875 
Q 17.390625 -1.21875 11.203125 4.25 
Q 5.03125 9.71875 4.15625 18.75 
z
" id="ArialMT-53"/>
      </defs>
      <g style="fill:#262626;" transform="translate(25.131834 111.04301)scale(0.07744 -0.07744)">
       <use xlink:href="#ArialMT-45"/>
       <use x="33.300781" xlink:href="#ArialMT-49"/>
       <use x="88.916016" xlink:href="#ArialMT-46"/>
       <use x="116.699219" xlink:href="#ArialMT-50"/>
       <use x="172.314453" xlink:href="#ArialMT-53"/>
      </g>
     </g>
    </g>
    <g id="xtick_2">
     <g id="line2d_3">
      <g>
       <use style="fill:#262626;stroke:#262626;" x="71.12" xlink:href="#mcd73aa890c" y="97.2"/>
      </g>
     </g>
     <g id="text_2">
      <!-- 0 -->
      <defs>
       <path d="M 4.15625 35.296875 
Q 4.15625 48 6.765625 55.734375 
Q 9.375 63.484375 14.515625 67.671875 
Q 19.671875 71.875 27.484375 71.875 
Q 33.25 71.875 37.59375 69.546875 
Q 41.9375 67.234375 44.765625 62.859375 
Q 47.609375 58.5 49.21875 52.21875 
Q 50.828125 45.953125 50.828125 35.296875 
Q 50.828125 22.703125 48.234375 14.96875 
Q 45.65625 7.234375 40.5 3 
Q 35.359375 -1.21875 27.484375 -1.21875 
Q 17.140625 -1.21875 11.234375 6.203125 
Q 4.15625 15.140625 4.15625 35.296875 
z
M 13.1875 35.296875 
Q 13.1875 17.671875 17.3125 11.828125 
Q 21.4375 6 27.484375 6 
Q 33.546875 6 37.671875 11.859375 
Q 41.796875 17.71875 41.796875 35.296875 
Q 41.796875 52.984375 37.671875 58.78125 
Q 33.546875 64.59375 27.390625 64.59375 
Q 21.34375 64.59375 17.71875 59.46875 
Q 13.1875 52.9375 13.1875 35.296875 
z
" id="ArialMT-48"/>
      </defs>
      <g style="fill:#262626;" transform="translate(68.966805 111.04301)scale(0.07744 -0.07744)">
       <use xlink:href="#ArialMT-48"/>
      </g>
     </g>
    </g>
    <g id="xtick_3">
     <g id="line2d_4">
      <g>
       <use style="fill:#262626;stroke:#262626;" x="108.283636" xlink:href="#mcd73aa890c" y="97.2"/>
      </g>
     </g>
     <g id="text_3">
      <!-- 1.25 -->
      <g style="fill:#262626;" transform="translate(100.748361 111.04301)scale(0.07744 -0.07744)">
       <use xlink:href="#ArialMT-49"/>
       <use x="55.615234" xlink:href="#ArialMT-46"/>
       <use x="83.398438" xlink:href="#ArialMT-50"/>
       <use x="139.013672" xlink:href="#ArialMT-53"/>
      </g>
     </g>
    </g>
    <g id="text_4">
     <!-- Mean LLR supporting 'high' -->
     <defs>
      <path d="M 7.421875 0 
L 7.421875 71.578125 
L 21.6875 71.578125 
L 38.625 20.90625 
Q 40.96875 13.8125 42.046875 10.296875 
Q 43.265625 14.203125 45.84375 21.78125 
L 62.984375 71.578125 
L 75.734375 71.578125 
L 75.734375 0 
L 66.609375 0 
L 66.609375 59.90625 
L 45.796875 0 
L 37.25 0 
L 16.546875 60.9375 
L 16.546875 0 
z
" id="ArialMT-77"/>
      <path d="M 42.09375 16.703125 
L 51.171875 15.578125 
Q 49.03125 7.625 43.21875 3.21875 
Q 37.40625 -1.171875 28.375 -1.171875 
Q 17 -1.171875 10.328125 5.828125 
Q 3.65625 12.84375 3.65625 25.484375 
Q 3.65625 38.578125 10.390625 45.796875 
Q 17.140625 53.03125 27.875 53.03125 
Q 38.28125 53.03125 44.875 45.953125 
Q 51.46875 38.875 51.46875 26.03125 
Q 51.46875 25.25 51.421875 23.6875 
L 12.75 23.6875 
Q 13.234375 15.140625 17.578125 10.59375 
Q 21.921875 6.0625 28.421875 6.0625 
Q 33.25 6.0625 36.671875 8.59375 
Q 40.09375 11.140625 42.09375 16.703125 
z
M 13.234375 30.90625 
L 42.1875 30.90625 
Q 41.609375 37.453125 38.875 40.71875 
Q 34.671875 45.796875 27.984375 45.796875 
Q 21.921875 45.796875 17.796875 41.75 
Q 13.671875 37.703125 13.234375 30.90625 
z
" id="ArialMT-101"/>
      <path d="M 40.4375 6.390625 
Q 35.546875 2.25 31.03125 0.53125 
Q 26.515625 -1.171875 21.34375 -1.171875 
Q 12.796875 -1.171875 8.203125 3 
Q 3.609375 7.171875 3.609375 13.671875 
Q 3.609375 17.484375 5.34375 20.625 
Q 7.078125 23.78125 9.890625 25.6875 
Q 12.703125 27.59375 16.21875 28.5625 
Q 18.796875 29.25 24.03125 29.890625 
Q 34.671875 31.15625 39.703125 32.90625 
Q 39.75 34.71875 39.75 35.203125 
Q 39.75 40.578125 37.25 42.78125 
Q 33.890625 45.75 27.25 45.75 
Q 21.046875 45.75 18.09375 43.578125 
Q 15.140625 41.40625 13.71875 35.890625 
L 5.125 37.0625 
Q 6.296875 42.578125 8.984375 45.96875 
Q 11.671875 49.359375 16.75 51.1875 
Q 21.828125 53.03125 28.515625 53.03125 
Q 35.15625 53.03125 39.296875 51.46875 
Q 43.453125 49.90625 45.40625 47.53125 
Q 47.359375 45.171875 48.140625 41.546875 
Q 48.578125 39.3125 48.578125 33.453125 
L 48.578125 21.734375 
Q 48.578125 9.46875 49.140625 6.21875 
Q 49.703125 2.984375 51.375 0 
L 42.1875 0 
Q 40.828125 2.734375 40.4375 6.390625 
z
M 39.703125 26.03125 
Q 34.90625 24.078125 25.34375 22.703125 
Q 19.921875 21.921875 17.671875 20.9375 
Q 15.4375 19.96875 14.203125 18.09375 
Q 12.984375 16.21875 12.984375 13.921875 
Q 12.984375 10.40625 15.640625 8.0625 
Q 18.3125 5.71875 23.4375 5.71875 
Q 28.515625 5.71875 32.46875 7.9375 
Q 36.421875 10.15625 38.28125 14.015625 
Q 39.703125 17 39.703125 22.796875 
z
" id="ArialMT-97"/>
      <path d="M 6.59375 0 
L 6.59375 51.859375 
L 14.5 51.859375 
L 14.5 44.484375 
Q 20.21875 53.03125 31 53.03125 
Q 35.6875 53.03125 39.625 51.34375 
Q 43.5625 49.65625 45.515625 46.921875 
Q 47.46875 44.1875 48.25 40.4375 
Q 48.734375 37.984375 48.734375 31.890625 
L 48.734375 0 
L 39.9375 0 
L 39.9375 31.546875 
Q 39.9375 36.921875 38.90625 39.578125 
Q 37.890625 42.234375 35.28125 43.8125 
Q 32.671875 45.40625 29.15625 45.40625 
Q 23.53125 45.40625 19.453125 41.84375 
Q 15.375 38.28125 15.375 28.328125 
L 15.375 0 
z
" id="ArialMT-110"/>
      <path id="ArialMT-32"/>
      <path d="M 7.328125 0 
L 7.328125 71.578125 
L 16.796875 71.578125 
L 16.796875 8.453125 
L 52.046875 8.453125 
L 52.046875 0 
z
" id="ArialMT-76"/>
      <path d="M 7.859375 0 
L 7.859375 71.578125 
L 39.59375 71.578125 
Q 49.171875 71.578125 54.140625 69.640625 
Q 59.125 67.71875 62.109375 62.828125 
Q 65.09375 57.953125 65.09375 52.046875 
Q 65.09375 44.4375 60.15625 39.203125 
Q 55.21875 33.984375 44.921875 32.5625 
Q 48.6875 30.765625 50.640625 29 
Q 54.78125 25.203125 58.5 19.484375 
L 70.953125 0 
L 59.03125 0 
L 49.5625 14.890625 
Q 45.40625 21.34375 42.71875 24.75 
Q 40.046875 28.171875 37.921875 29.53125 
Q 35.796875 30.90625 33.59375 31.453125 
Q 31.984375 31.78125 28.328125 31.78125 
L 17.328125 31.78125 
L 17.328125 0 
z
M 17.328125 39.984375 
L 37.703125 39.984375 
Q 44.1875 39.984375 47.84375 41.328125 
Q 51.515625 42.671875 53.421875 45.625 
Q 55.328125 48.578125 55.328125 52.046875 
Q 55.328125 57.125 51.640625 60.390625 
Q 47.953125 63.671875 39.984375 63.671875 
L 17.328125 63.671875 
z
" id="ArialMT-82"/>
      <path d="M 3.078125 15.484375 
L 11.765625 16.84375 
Q 12.5 11.625 15.84375 8.84375 
Q 19.1875 6.0625 25.203125 6.0625 
Q 31.25 6.0625 34.171875 8.515625 
Q 37.109375 10.984375 37.109375 14.3125 
Q 37.109375 17.28125 34.515625 19 
Q 32.71875 20.171875 25.53125 21.96875 
Q 15.875 24.421875 12.140625 26.203125 
Q 8.40625 27.984375 6.46875 31.125 
Q 4.546875 34.28125 4.546875 38.09375 
Q 4.546875 41.546875 6.125 44.5 
Q 7.71875 47.46875 10.453125 49.421875 
Q 12.5 50.921875 16.03125 51.96875 
Q 19.578125 53.03125 23.640625 53.03125 
Q 29.734375 53.03125 34.34375 51.265625 
Q 38.96875 49.515625 41.15625 46.5 
Q 43.359375 43.5 44.1875 38.484375 
L 35.59375 37.3125 
Q 35.015625 41.3125 32.203125 43.546875 
Q 29.390625 45.796875 24.265625 45.796875 
Q 18.21875 45.796875 15.625 43.796875 
Q 13.03125 41.796875 13.03125 39.109375 
Q 13.03125 37.40625 14.109375 36.03125 
Q 15.1875 34.625 17.484375 33.6875 
Q 18.796875 33.203125 25.25 31.453125 
Q 34.578125 28.953125 38.25 27.359375 
Q 41.9375 25.78125 44.03125 22.75 
Q 46.140625 19.734375 46.140625 15.234375 
Q 46.140625 10.84375 43.578125 6.953125 
Q 41.015625 3.078125 36.171875 0.953125 
Q 31.34375 -1.171875 25.25 -1.171875 
Q 15.140625 -1.171875 9.84375 3.03125 
Q 4.546875 7.234375 3.078125 15.484375 
z
" id="ArialMT-115"/>
      <path d="M 40.578125 0 
L 40.578125 7.625 
Q 34.515625 -1.171875 24.125 -1.171875 
Q 19.53125 -1.171875 15.546875 0.578125 
Q 11.578125 2.34375 9.640625 5 
Q 7.71875 7.671875 6.9375 11.53125 
Q 6.390625 14.109375 6.390625 19.734375 
L 6.390625 51.859375 
L 15.1875 51.859375 
L 15.1875 23.09375 
Q 15.1875 16.21875 15.71875 13.8125 
Q 16.546875 10.359375 19.234375 8.375 
Q 21.921875 6.390625 25.875 6.390625 
Q 29.828125 6.390625 33.296875 8.421875 
Q 36.765625 10.453125 38.203125 13.9375 
Q 39.65625 17.4375 39.65625 24.078125 
L 39.65625 51.859375 
L 48.4375 51.859375 
L 48.4375 0 
z
" id="ArialMT-117"/>
      <path d="M 6.59375 -19.875 
L 6.59375 51.859375 
L 14.59375 51.859375 
L 14.59375 45.125 
Q 17.4375 49.078125 21 51.046875 
Q 24.5625 53.03125 29.640625 53.03125 
Q 36.28125 53.03125 41.359375 49.609375 
Q 46.4375 46.1875 49.015625 39.953125 
Q 51.609375 33.734375 51.609375 26.3125 
Q 51.609375 18.359375 48.75 11.984375 
Q 45.90625 5.609375 40.453125 2.21875 
Q 35.015625 -1.171875 29 -1.171875 
Q 24.609375 -1.171875 21.109375 0.6875 
Q 17.625 2.546875 15.375 5.375 
L 15.375 -19.875 
z
M 14.546875 25.640625 
Q 14.546875 15.625 18.59375 10.84375 
Q 22.65625 6.0625 28.421875 6.0625 
Q 34.28125 6.0625 38.453125 11.015625 
Q 42.625 15.96875 42.625 26.375 
Q 42.625 36.28125 38.546875 41.203125 
Q 34.46875 46.140625 28.8125 46.140625 
Q 23.1875 46.140625 18.859375 40.890625 
Q 14.546875 35.640625 14.546875 25.640625 
z
" id="ArialMT-112"/>
      <path d="M 3.328125 25.921875 
Q 3.328125 40.328125 11.328125 47.265625 
Q 18.015625 53.03125 27.640625 53.03125 
Q 38.328125 53.03125 45.109375 46.015625 
Q 51.90625 39.015625 51.90625 26.65625 
Q 51.90625 16.65625 48.90625 10.90625 
Q 45.90625 5.171875 40.15625 2 
Q 34.421875 -1.171875 27.640625 -1.171875 
Q 16.75 -1.171875 10.03125 5.8125 
Q 3.328125 12.796875 3.328125 25.921875 
z
M 12.359375 25.921875 
Q 12.359375 15.96875 16.703125 11.015625 
Q 21.046875 6.0625 27.640625 6.0625 
Q 34.1875 6.0625 38.53125 11.03125 
Q 42.875 16.015625 42.875 26.21875 
Q 42.875 35.84375 38.5 40.796875 
Q 34.125 45.75 27.640625 45.75 
Q 21.046875 45.75 16.703125 40.8125 
Q 12.359375 35.890625 12.359375 25.921875 
z
" id="ArialMT-111"/>
      <path d="M 6.5 0 
L 6.5 51.859375 
L 14.40625 51.859375 
L 14.40625 44 
Q 17.4375 49.515625 20 51.265625 
Q 22.5625 53.03125 25.640625 53.03125 
Q 30.078125 53.03125 34.671875 50.203125 
L 31.640625 42.046875 
Q 28.421875 43.953125 25.203125 43.953125 
Q 22.3125 43.953125 20.015625 42.21875 
Q 17.71875 40.484375 16.75 37.40625 
Q 15.28125 32.71875 15.28125 27.15625 
L 15.28125 0 
z
" id="ArialMT-114"/>
      <path d="M 25.78125 7.859375 
L 27.046875 0.09375 
Q 23.34375 -0.6875 20.40625 -0.6875 
Q 15.625 -0.6875 12.984375 0.828125 
Q 10.359375 2.34375 9.28125 4.8125 
Q 8.203125 7.28125 8.203125 15.1875 
L 8.203125 45.015625 
L 1.765625 45.015625 
L 1.765625 51.859375 
L 8.203125 51.859375 
L 8.203125 64.703125 
L 16.9375 69.96875 
L 16.9375 51.859375 
L 25.78125 51.859375 
L 25.78125 45.015625 
L 16.9375 45.015625 
L 16.9375 14.703125 
Q 16.9375 10.9375 17.40625 9.859375 
Q 17.875 8.796875 18.921875 8.15625 
Q 19.96875 7.515625 21.921875 7.515625 
Q 23.390625 7.515625 25.78125 7.859375 
z
" id="ArialMT-116"/>
      <path d="M 6.640625 61.46875 
L 6.640625 71.578125 
L 15.4375 71.578125 
L 15.4375 61.46875 
z
M 6.640625 0 
L 6.640625 51.859375 
L 15.4375 51.859375 
L 15.4375 0 
z
" id="ArialMT-105"/>
      <path d="M 4.984375 -4.296875 
L 13.53125 -5.5625 
Q 14.0625 -9.515625 16.5 -11.328125 
Q 19.78125 -13.765625 25.4375 -13.765625 
Q 31.546875 -13.765625 34.859375 -11.328125 
Q 38.1875 -8.890625 39.359375 -4.5 
Q 40.046875 -1.8125 39.984375 6.78125 
Q 34.234375 0 25.640625 0 
Q 14.9375 0 9.078125 7.71875 
Q 3.21875 15.4375 3.21875 26.21875 
Q 3.21875 33.640625 5.90625 39.90625 
Q 8.59375 46.1875 13.6875 49.609375 
Q 18.796875 53.03125 25.6875 53.03125 
Q 34.859375 53.03125 40.828125 45.609375 
L 40.828125 51.859375 
L 48.921875 51.859375 
L 48.921875 7.03125 
Q 48.921875 -5.078125 46.453125 -10.125 
Q 44 -15.1875 38.640625 -18.109375 
Q 33.296875 -21.046875 25.484375 -21.046875 
Q 16.21875 -21.046875 10.5 -16.875 
Q 4.78125 -12.703125 4.984375 -4.296875 
z
M 12.25 26.859375 
Q 12.25 16.65625 16.296875 11.96875 
Q 20.359375 7.28125 26.46875 7.28125 
Q 32.515625 7.28125 36.609375 11.9375 
Q 40.71875 16.609375 40.71875 26.5625 
Q 40.71875 36.078125 36.5 40.90625 
Q 32.28125 45.75 26.3125 45.75 
Q 20.453125 45.75 16.34375 40.984375 
Q 12.25 36.234375 12.25 26.859375 
z
" id="ArialMT-103"/>
      <path d="M 6.640625 46.234375 
L 4.390625 59.625 
L 4.390625 71.578125 
L 14.40625 71.578125 
L 14.40625 59.625 
L 12.0625 46.234375 
z
" id="ArialMT-39"/>
      <path d="M 6.59375 0 
L 6.59375 71.578125 
L 15.375 71.578125 
L 15.375 45.90625 
Q 21.53125 53.03125 30.90625 53.03125 
Q 36.671875 53.03125 40.921875 50.75 
Q 45.171875 48.484375 47 44.484375 
Q 48.828125 40.484375 48.828125 32.859375 
L 48.828125 0 
L 40.046875 0 
L 40.046875 32.859375 
Q 40.046875 39.453125 37.1875 42.453125 
Q 34.328125 45.453125 29.109375 45.453125 
Q 25.203125 45.453125 21.75 43.421875 
Q 18.3125 41.40625 16.84375 37.9375 
Q 15.375 34.46875 15.375 28.375 
L 15.375 0 
z
" id="ArialMT-104"/>
     </defs>
     <g style="fill:#262626;" transform="translate(19.9634 122.62905)scale(0.08448 -0.08448)">
      <use xlink:href="#ArialMT-77"/>
      <use x="83.300781" xlink:href="#ArialMT-101"/>
      <use x="138.916016" xlink:href="#ArialMT-97"/>
      <use x="194.53125" xlink:href="#ArialMT-110"/>
      <use x="250.146484" xlink:href="#ArialMT-32"/>
      <use x="277.929688" xlink:href="#ArialMT-76"/>
      <use x="333.544922" xlink:href="#ArialMT-76"/>
      <use x="389.160156" xlink:href="#ArialMT-82"/>
      <use x="461.376953" xlink:href="#ArialMT-32"/>
      <use x="489.160156" xlink:href="#ArialMT-115"/>
      <use x="539.160156" xlink:href="#ArialMT-117"/>
      <use x="594.775391" xlink:href="#ArialMT-112"/>
      <use x="650.390625" xlink:href="#ArialMT-112"/>
      <use x="706.005859" xlink:href="#ArialMT-111"/>
      <use x="761.621094" xlink:href="#ArialMT-114"/>
      <use x="794.921875" xlink:href="#ArialMT-116"/>
      <use x="822.705078" xlink:href="#ArialMT-105"/>
      <use x="844.921875" xlink:href="#ArialMT-110"/>
      <use x="900.537109" xlink:href="#ArialMT-103"/>
      <use x="956.152344" xlink:href="#ArialMT-32"/>
      <use x="983.935547" xlink:href="#ArialMT-39"/>
      <use x="1003.027344" xlink:href="#ArialMT-104"/>
      <use x="1058.642578" xlink:href="#ArialMT-105"/>
      <use x="1080.859375" xlink:href="#ArialMT-103"/>
      <use x="1136.474609" xlink:href="#ArialMT-104"/>
      <use x="1192.089844" xlink:href="#ArialMT-39"/>
     </g>
    </g>
   </g>
   <g id="matplotlib.axis_2">
    <g id="ytick_1">
     <g id="line2d_5">
      <defs>
       <path d="M 0 0 
L -4.8 0 
" id="mdcf0e9fbc2" style="stroke:#262626;"/>
      </defs>
      <g>
       <use style="fill:#262626;stroke:#262626;" x="30.24" xlink:href="#mdcf0e9fbc2" y="92.863636"/>
      </g>
     </g>
     <g id="text_5">
      <!-- 0 -->
      <g style="fill:#262626;" transform="translate(17.63361 95.635141)scale(0.07744 -0.07744)">
       <use xlink:href="#ArialMT-48"/>
      </g>
     </g>
    </g>
    <g id="ytick_2">
     <g id="line2d_6">
      <g>
       <use style="fill:#262626;stroke:#262626;" x="30.24" xlink:href="#mdcf0e9fbc2" y="71.134606"/>
      </g>
     </g>
    </g>
    <g id="ytick_3">
     <g id="line2d_7">
      <g>
       <use style="fill:#262626;stroke:#262626;" x="30.24" xlink:href="#mdcf0e9fbc2" y="49.405575"/>
      </g>
     </g>
    </g>
    <g id="ytick_4">
     <g id="line2d_8">
      <g>
       <use style="fill:#262626;stroke:#262626;" x="30.24" xlink:href="#mdcf0e9fbc2" y="27.676545"/>
      </g>
     </g>
    </g>
    <g id="ytick_5">
     <g id="line2d_9">
      <g>
       <use style="fill:#262626;stroke:#262626;" x="30.24" xlink:href="#mdcf0e9fbc2" y="5.947514"/>
      </g>
     </g>
     <g id="text_6">
      <!-- 1 -->
      <g style="fill:#262626;" transform="translate(17.63361 8.719019)scale(0.07744 -0.07744)">
       <use xlink:href="#ArialMT-49"/>
      </g>
     </g>
    </g>
    <g id="text_7">
     <!-- P(responded 'high') -->
     <defs>
      <path d="M 7.71875 0 
L 7.71875 71.578125 
L 34.71875 71.578125 
Q 41.84375 71.578125 45.609375 70.90625 
Q 50.875 70.015625 54.4375 67.546875 
Q 58.015625 65.09375 60.1875 60.640625 
Q 62.359375 56.203125 62.359375 50.875 
Q 62.359375 41.75 56.546875 35.421875 
Q 50.734375 29.109375 35.546875 29.109375 
L 17.1875 29.109375 
L 17.1875 0 
z
M 17.1875 37.546875 
L 35.6875 37.546875 
Q 44.875 37.546875 48.734375 40.96875 
Q 52.59375 44.390625 52.59375 50.59375 
Q 52.59375 55.078125 50.3125 58.265625 
Q 48.046875 61.46875 44.34375 62.5 
Q 41.9375 63.140625 35.5 63.140625 
L 17.1875 63.140625 
z
" id="ArialMT-80"/>
      <path d="M 23.390625 -21.046875 
Q 16.109375 -11.859375 11.078125 0.4375 
Q 6.0625 12.75 6.0625 25.921875 
Q 6.0625 37.546875 9.8125 48.1875 
Q 14.203125 60.546875 23.390625 72.796875 
L 29.6875 72.796875 
Q 23.78125 62.640625 21.875 58.296875 
Q 18.890625 51.5625 17.1875 44.234375 
Q 15.09375 35.109375 15.09375 25.875 
Q 15.09375 2.390625 29.6875 -21.046875 
z
" id="ArialMT-40"/>
      <path d="M 40.234375 0 
L 40.234375 6.546875 
Q 35.296875 -1.171875 25.734375 -1.171875 
Q 19.53125 -1.171875 14.328125 2.25 
Q 9.125 5.671875 6.265625 11.796875 
Q 3.421875 17.921875 3.421875 25.875 
Q 3.421875 33.640625 6 39.96875 
Q 8.59375 46.296875 13.765625 49.65625 
Q 18.953125 53.03125 25.34375 53.03125 
Q 30.03125 53.03125 33.6875 51.046875 
Q 37.359375 49.078125 39.65625 45.90625 
L 39.65625 71.578125 
L 48.390625 71.578125 
L 48.390625 0 
z
M 12.453125 25.875 
Q 12.453125 15.921875 16.640625 10.984375 
Q 20.84375 6.0625 26.5625 6.0625 
Q 32.328125 6.0625 36.34375 10.765625 
Q 40.375 15.484375 40.375 25.140625 
Q 40.375 35.796875 36.265625 40.765625 
Q 32.171875 45.75 26.171875 45.75 
Q 20.3125 45.75 16.375 40.96875 
Q 12.453125 36.1875 12.453125 25.875 
z
" id="ArialMT-100"/>
      <path d="M 12.359375 -21.046875 
L 6.0625 -21.046875 
Q 20.65625 2.390625 20.65625 25.875 
Q 20.65625 35.0625 18.5625 44.09375 
Q 16.890625 51.421875 13.921875 58.15625 
Q 12.015625 62.546875 6.0625 72.796875 
L 12.359375 72.796875 
Q 21.53125 60.546875 25.921875 48.1875 
Q 29.6875 37.546875 29.6875 25.921875 
Q 29.6875 12.75 24.625 0.4375 
Q 19.578125 -11.859375 12.359375 -21.046875 
z
" id="ArialMT-41"/>
     </defs>
     <g style="fill:#262626;" transform="translate(11.85557 85.86336)rotate(-90)scale(0.08448 -0.08448)">
      <use xlink:href="#ArialMT-80"/>
      <use x="66.699219" xlink:href="#ArialMT-40"/>
      <use x="100" xlink:href="#ArialMT-114"/>
      <use x="133.300781" xlink:href="#ArialMT-101"/>
      <use x="188.916016" xlink:href="#ArialMT-115"/>
      <use x="238.916016" xlink:href="#ArialMT-112"/>
      <use x="294.53125" xlink:href="#ArialMT-111"/>
      <use x="350.146484" xlink:href="#ArialMT-110"/>
      <use x="405.761719" xlink:href="#ArialMT-100"/>
      <use x="461.376953" xlink:href="#ArialMT-101"/>
      <use x="516.992188" xlink:href="#ArialMT-100"/>
      <use x="572.607422" xlink:href="#ArialMT-32"/>
      <use x="600.390625" xlink:href="#ArialMT-39"/>
      <use x="619.482422" xlink:href="#ArialMT-104"/>
      <use x="675.097656" xlink:href="#ArialMT-105"/>
      <use x="697.314453" xlink:href="#ArialMT-103"/>
      <use x="752.929688" xlink:href="#ArialMT-104"/>
      <use x="808.544922" xlink:href="#ArialMT-39"/>
      <use x="827.636719" xlink:href="#ArialMT-41"/>
     </g>
    </g>
   </g>
   <g id="LineCollection_1">
    <path clip-path="url(#pd32e30c011)" d="M 33.956364 92.863636 
L 33.956364 91.498462 
" style="fill:none;stroke:#333333;stroke-linecap:round;stroke-width:1.8;"/>
    <path clip-path="url(#pd32e30c011)" d="M 41.389091 92.718776 
L 41.389091 91.415034 
" style="fill:none;stroke:#333333;stroke-linecap:round;stroke-width:1.8;"/>
    <path clip-path="url(#pd32e30c011)" d="M 48.821818 92.292759 
L 48.821818 91.222363 
" style="fill:none;stroke:#333333;stroke-linecap:round;stroke-width:1.8;"/>
    <path clip-path="url(#pd32e30c011)" d="M 56.254545 88.50002 
L 56.254545 86.585371 
" style="fill:none;stroke:#333333;stroke-linecap:round;stroke-width:1.8;"/>
    <path clip-path="url(#pd32e30c011)" d="M 63.687273 75.180429 
L 63.687273 72.180599 
" style="fill:none;stroke:#333333;stroke-linecap:round;stroke-width:1.8;"/>
    <path clip-path="url(#pd32e30c011)" d="M 71.12 50.110525 
L 71.12 46.419907 
" style="fill:none;stroke:#333333;stroke-linecap:round;stroke-width:1.8;"/>
    <path clip-path="url(#pd32e30c011)" d="M 78.552727 23.45608 
L 78.552727 20.675077 
" style="fill:none;stroke:#333333;stroke-linecap:round;stroke-width:1.8;"/>
    <path clip-path="url(#pd32e30c011)" d="M 85.985455 11.348453 
L 85.985455 9.705816 
" style="fill:none;stroke:#333333;stroke-linecap:round;stroke-width:1.8;"/>
    <path clip-path="url(#pd32e30c011)" d="M 93.418182 8.958437 
L 93.418182 7.487092 
" style="fill:none;stroke:#333333;stroke-linecap:round;stroke-width:1.8;"/>
    <path clip-path="url(#pd32e30c011)" d="M 100.850909 7.642687 
L 100.850909 6.255728 
" style="fill:none;stroke:#333333;stroke-linecap:round;stroke-width:1.8;"/>
    <path clip-path="url(#pd32e30c011)" d="M 108.283636 8.222806 
L 108.283636 6.175044 
" style="fill:none;stroke:#333333;stroke-linecap:round;stroke-width:1.8;"/>
   </g>
   <g id="line2d_10">
    <path clip-path="url(#pd32e30c011)" d="M 33.956364 92.408578 
L 41.389091 92.139335 
L 48.821818 91.793241 
L 56.254545 87.564959 
L 63.687273 73.680514 
L 71.12 48.161547 
L 78.552727 22.006825 
L 85.985455 10.526594 
L 93.418182 8.186899 
L 100.850909 6.872154 
L 108.283636 7.08516 
" style="fill:none;"/>
    <defs>
     <path d="M 0 1 
C 0.265203 1 0.51958 0.894634 0.707107 0.707107 
C 0.894634 0.51958 1 0.265203 1 0 
C 1 -0.265203 0.894634 -0.51958 0.707107 -0.707107 
C 0.51958 -0.894634 0.265203 -1 0 -1 
C -0.265203 -1 -0.51958 -0.894634 -0.707107 -0.707107 
C -0.894634 -0.51958 -1 -0.265203 -1 0 
C -1 0.265203 -0.894634 0.51958 -0.707107 0.707107 
C -0.51958 0.894634 -0.265203 1 0 1 
z
" id="m7317c91bd4" style="stroke:#333333;stroke-width:1.8;"/>
    </defs>
    <g clip-path="url(#pd32e30c011)">
     <use style="fill:#333333;stroke:#333333;stroke-width:1.8;" x="33.956364" xlink:href="#m7317c91bd4" y="92.408578"/>
     <use style="fill:#333333;stroke:#333333;stroke-width:1.8;" x="41.389091" xlink:href="#m7317c91bd4" y="92.139335"/>
     <use style="fill:#333333;stroke:#333333;stroke-width:1.8;" x="48.821818" xlink:href="#m7317c91bd4" y="91.793241"/>
     <use style="fill:#333333;stroke:#333333;stroke-width:1.8;" x="56.254545" xlink:href="#m7317c91bd4" y="87.564959"/>
     <use style="fill:#333333;stroke:#333333;stroke-width:1.8;" x="63.687273" xlink:href="#m7317c91bd4" y="73.680514"/>
     <use style="fill:#333333;stroke:#333333;stroke-width:1.8;" x="71.12" xlink:href="#m7317c91bd4" y="48.161547"/>
     <use style="fill:#333333;stroke:#333333;stroke-width:1.8;" x="78.552727" xlink:href="#m7317c91bd4" y="22.006825"/>
     <use style="fill:#333333;stroke:#333333;stroke-width:1.8;" x="85.985455" xlink:href="#m7317c91bd4" y="10.526594"/>
     <use style="fill:#333333;stroke:#333333;stroke-width:1.8;" x="93.418182" xlink:href="#m7317c91bd4" y="8.186899"/>
     <use style="fill:#333333;stroke:#333333;stroke-width:1.8;" x="100.850909" xlink:href="#m7317c91bd4" y="6.872154"/>
     <use style="fill:#333333;stroke:#333333;stroke-width:1.8;" x="108.283636" xlink:href="#m7317c91bd4" y="7.08516"/>
    </g>
   </g>
   <g id="line2d_11"/>
   <g id="patch_3">
    <path d="M 30.24 92.863636 
L 30.24 5.947514 
" style="fill:none;stroke:#262626;stroke-linecap:square;stroke-linejoin:miter;"/>
   </g>
   <g id="patch_4">
    <path d="M 33.956364 97.2 
L 108.283636 97.2 
" style="fill:none;stroke:#262626;stroke-linecap:square;stroke-linejoin:miter;"/>
   </g>
   <g id="legend_1">
    <g id="line2d_12">
     <path d="M 75.7848 77.447547 
L 86.2848 77.447547 
" style="fill:none;stroke:#11875d;stroke-linecap:round;stroke-width:1.5;"/>
    </g>
    <g id="line2d_13"/>
    <g id="text_8">
     <!-- Evidence -->
     <defs>
      <path d="M 7.90625 0 
L 7.90625 71.578125 
L 59.671875 71.578125 
L 59.671875 63.140625 
L 17.390625 63.140625 
L 17.390625 41.21875 
L 56.984375 41.21875 
L 56.984375 32.8125 
L 17.390625 32.8125 
L 17.390625 8.453125 
L 61.328125 8.453125 
L 61.328125 0 
z
" id="ArialMT-69"/>
      <path d="M 21 0 
L 1.265625 51.859375 
L 10.546875 51.859375 
L 21.6875 20.796875 
Q 23.484375 15.765625 25 10.359375 
Q 26.171875 14.453125 28.265625 20.21875 
L 39.796875 51.859375 
L 48.828125 51.859375 
L 29.203125 0 
z
" id="ArialMT-118"/>
      <path d="M 40.4375 19 
L 49.078125 17.875 
Q 47.65625 8.9375 41.8125 3.875 
Q 35.984375 -1.171875 27.484375 -1.171875 
Q 16.84375 -1.171875 10.375 5.78125 
Q 3.90625 12.75 3.90625 25.734375 
Q 3.90625 34.125 6.6875 40.421875 
Q 9.46875 46.734375 15.15625 49.875 
Q 20.84375 53.03125 27.546875 53.03125 
Q 35.984375 53.03125 41.359375 48.75 
Q 46.734375 44.484375 48.25 36.625 
L 39.703125 35.296875 
Q 38.484375 40.53125 35.375 43.15625 
Q 32.28125 45.796875 27.875 45.796875 
Q 21.234375 45.796875 17.078125 41.03125 
Q 12.9375 36.28125 12.9375 25.984375 
Q 12.9375 15.53125 16.9375 10.796875 
Q 20.953125 6.0625 27.390625 6.0625 
Q 32.5625 6.0625 36.03125 9.234375 
Q 39.5 12.40625 40.4375 19 
z
" id="ArialMT-99"/>
     </defs>
     <g style="fill:#262626;" transform="translate(91.8848 71.757094)scale(0.07 -0.07)">
      <use xlink:href="#ArialMT-69"/>
      <use x="66.699219" xlink:href="#ArialMT-118"/>
      <use x="116.699219" xlink:href="#ArialMT-105"/>
      <use x="138.916016" xlink:href="#ArialMT-100"/>
      <use x="194.53125" xlink:href="#ArialMT-101"/>
      <use x="250.146484" xlink:href="#ArialMT-110"/>
      <use x="305.761719" xlink:href="#ArialMT-99"/>
      <use x="355.761719" xlink:href="#ArialMT-101"/>
     </g>
     <!-- integration -->
     <g style="fill:#262626;" transform="translate(91.8848 79.160906)scale(0.07 -0.07)">
      <use xlink:href="#ArialMT-105"/>
      <use x="22.216797" xlink:href="#ArialMT-110"/>
      <use x="77.832031" xlink:href="#ArialMT-116"/>
      <use x="105.615234" xlink:href="#ArialMT-101"/>
      <use x="161.230469" xlink:href="#ArialMT-103"/>
      <use x="216.845703" xlink:href="#ArialMT-114"/>
      <use x="250.146484" xlink:href="#ArialMT-97"/>
      <use x="305.761719" xlink:href="#ArialMT-116"/>
      <use x="333.544922" xlink:href="#ArialMT-105"/>
      <use x="355.761719" xlink:href="#ArialMT-111"/>
      <use x="411.376953" xlink:href="#ArialMT-110"/>
     </g>
     <!-- model -->
     <defs>
      <path d="M 6.59375 0 
L 6.59375 51.859375 
L 14.453125 51.859375 
L 14.453125 44.578125 
Q 16.890625 48.390625 20.9375 50.703125 
Q 25 53.03125 30.171875 53.03125 
Q 35.9375 53.03125 39.625 50.640625 
Q 43.3125 48.25 44.828125 43.953125 
Q 50.984375 53.03125 60.84375 53.03125 
Q 68.5625 53.03125 72.703125 48.75 
Q 76.859375 44.484375 76.859375 35.59375 
L 76.859375 0 
L 68.109375 0 
L 68.109375 32.671875 
Q 68.109375 37.9375 67.25 40.25 
Q 66.40625 42.578125 64.15625 43.984375 
Q 61.921875 45.40625 58.890625 45.40625 
Q 53.421875 45.40625 49.796875 41.765625 
Q 46.1875 38.140625 46.1875 30.125 
L 46.1875 0 
L 37.40625 0 
L 37.40625 33.6875 
Q 37.40625 39.546875 35.25 42.46875 
Q 33.109375 45.40625 28.21875 45.40625 
Q 24.515625 45.40625 21.359375 43.453125 
Q 18.21875 41.5 16.796875 37.734375 
Q 15.375 33.984375 15.375 26.90625 
L 15.375 0 
z
" id="ArialMT-109"/>
      <path d="M 6.390625 0 
L 6.390625 71.578125 
L 15.1875 71.578125 
L 15.1875 0 
z
" id="ArialMT-108"/>
     </defs>
     <g style="fill:#262626;" transform="translate(91.8848 86.64675)scale(0.07 -0.07)">
      <use xlink:href="#ArialMT-109"/>
      <use x="83.300781" xlink:href="#ArialMT-111"/>
      <use x="138.916016" xlink:href="#ArialMT-100"/>
      <use x="194.53125" xlink:href="#ArialMT-101"/>
      <use x="250.146484" xlink:href="#ArialMT-108"/>
     </g>
    </g>
   </g>
  </g>
  <g id="axes_2">
   <g id="patch_5">
    <path d="M 132.44 97.2 
L 214.2 97.2 
L 214.2 1.8 
L 132.44 1.8 
z
" style="fill:#ffffff;"/>
   </g>
   <g id="matplotlib.axis_3">
    <g id="xtick_4">
     <g id="line2d_14">
      <g>
       <use style="fill:#262626;stroke:#262626;" x="136.260561" xlink:href="#mcd73aa890c" y="97.2"/>
      </g>
     </g>
     <g id="text_9">
      <!-- -20 -->
      <g style="fill:#262626;" transform="translate(130.664916 111.04301)scale(0.07744 -0.07744)">
       <use xlink:href="#ArialMT-45"/>
       <use x="33.300781" xlink:href="#ArialMT-50"/>
       <use x="88.916016" xlink:href="#ArialMT-48"/>
      </g>
     </g>
    </g>
    <g id="xtick_5">
     <g id="line2d_15">
      <g>
       <use style="fill:#262626;stroke:#262626;" x="155.363364" xlink:href="#mcd73aa890c" y="97.2"/>
      </g>
     </g>
    </g>
    <g id="xtick_6">
     <g id="line2d_16">
      <g>
       <use style="fill:#262626;stroke:#262626;" x="174.466168" xlink:href="#mcd73aa890c" y="97.2"/>
      </g>
     </g>
     <g id="text_10">
      <!-- -10 -->
      <g style="fill:#262626;" transform="translate(168.870523 111.04301)scale(0.07744 -0.07744)">
       <use xlink:href="#ArialMT-45"/>
       <use x="33.300781" xlink:href="#ArialMT-49"/>
       <use x="88.916016" xlink:href="#ArialMT-48"/>
      </g>
     </g>
    </g>
    <g id="xtick_7">
     <g id="line2d_17">
      <g>
       <use style="fill:#262626;stroke:#262626;" x="193.568972" xlink:href="#mcd73aa890c" y="97.2"/>
      </g>
     </g>
    </g>
    <g id="xtick_8">
     <g id="line2d_18">
      <g>
       <use style="fill:#262626;stroke:#262626;" x="212.671776" xlink:href="#mcd73aa890c" y="97.2"/>
      </g>
     </g>
     <g id="text_11">
      <!-- 0 -->
      <g style="fill:#262626;" transform="translate(210.518581 111.04301)scale(0.07744 -0.07744)">
       <use xlink:href="#ArialMT-48"/>
      </g>
     </g>
    </g>
    <g id="text_12">
     <!-- Time from trial end (s) -->
     <defs>
      <path d="M 25.921875 0 
L 25.921875 63.140625 
L 2.34375 63.140625 
L 2.34375 71.578125 
L 59.078125 71.578125 
L 59.078125 63.140625 
L 35.40625 63.140625 
L 35.40625 0 
z
" id="ArialMT-84"/>
      <path d="M 8.6875 0 
L 8.6875 45.015625 
L 0.921875 45.015625 
L 0.921875 51.859375 
L 8.6875 51.859375 
L 8.6875 57.375 
Q 8.6875 62.59375 9.625 65.140625 
Q 10.890625 68.5625 14.078125 70.671875 
Q 17.28125 72.796875 23.046875 72.796875 
Q 26.765625 72.796875 31.25 71.921875 
L 29.9375 64.265625 
Q 27.203125 64.75 24.75 64.75 
Q 20.75 64.75 19.09375 63.03125 
Q 17.4375 61.328125 17.4375 56.640625 
L 17.4375 51.859375 
L 27.546875 51.859375 
L 27.546875 45.015625 
L 17.4375 45.015625 
L 17.4375 0 
z
" id="ArialMT-102"/>
     </defs>
     <g style="fill:#262626;" transform="translate(132.0172 122.73201)scale(0.08448 -0.08448)">
      <use xlink:href="#ArialMT-84"/>
      <use x="61.037109" xlink:href="#ArialMT-105"/>
      <use x="83.253906" xlink:href="#ArialMT-109"/>
      <use x="166.554688" xlink:href="#ArialMT-101"/>
      <use x="222.169922" xlink:href="#ArialMT-32"/>
      <use x="249.953125" xlink:href="#ArialMT-102"/>
      <use x="277.736328" xlink:href="#ArialMT-114"/>
      <use x="311.037109" xlink:href="#ArialMT-111"/>
      <use x="366.652344" xlink:href="#ArialMT-109"/>
      <use x="449.953125" xlink:href="#ArialMT-32"/>
      <use x="477.736328" xlink:href="#ArialMT-116"/>
      <use x="505.519531" xlink:href="#ArialMT-114"/>
      <use x="538.820312" xlink:href="#ArialMT-105"/>
      <use x="561.037109" xlink:href="#ArialMT-97"/>
      <use x="616.652344" xlink:href="#ArialMT-108"/>
      <use x="638.869141" xlink:href="#ArialMT-32"/>
      <use x="666.652344" xlink:href="#ArialMT-101"/>
      <use x="722.267578" xlink:href="#ArialMT-110"/>
      <use x="777.882812" xlink:href="#ArialMT-100"/>
      <use x="833.498047" xlink:href="#ArialMT-32"/>
      <use x="861.28125" xlink:href="#ArialMT-40"/>
      <use x="894.582031" xlink:href="#ArialMT-115"/>
      <use x="944.582031" xlink:href="#ArialMT-41"/>
     </g>
    </g>
   </g>
   <g id="matplotlib.axis_4">
    <g id="ytick_6">
     <g id="line2d_19">
      <defs>
       <path d="M 0 0 
L 4.8 0 
" id="me095911a11" style="stroke:#262626;"/>
      </defs>
      <g>
       <use style="fill:#262626;stroke:#262626;" x="214.2" xlink:href="#me095911a11" y="93.872093"/>
      </g>
     </g>
     <g id="text_13">
      <!-- −0.2 -->
      <defs>
       <path d="M 52.828125 31.203125 
L 5.5625 31.203125 
L 5.5625 39.40625 
L 52.828125 39.40625 
z
" id="ArialMT-8722"/>
      </defs>
      <g style="fill:#262626;" transform="translate(222.5 96.643598)scale(0.07744 -0.07744)">
       <use xlink:href="#ArialMT-8722"/>
       <use x="58.398438" xlink:href="#ArialMT-48"/>
       <use x="114.013672" xlink:href="#ArialMT-46"/>
       <use x="141.796875" xlink:href="#ArialMT-50"/>
      </g>
     </g>
    </g>
    <g id="ytick_7">
     <g id="line2d_20">
      <g>
       <use style="fill:#262626;stroke:#262626;" x="214.2" xlink:href="#me095911a11" y="71.686047"/>
      </g>
     </g>
     <g id="text_14">
      <!-- 0.0 -->
      <g style="fill:#262626;" transform="translate(222.5 74.457552)scale(0.07744 -0.07744)">
       <use xlink:href="#ArialMT-48"/>
       <use x="55.615234" xlink:href="#ArialMT-46"/>
       <use x="83.398438" xlink:href="#ArialMT-48"/>
      </g>
     </g>
    </g>
    <g id="ytick_8">
     <g id="line2d_21">
      <g>
       <use style="fill:#262626;stroke:#262626;" x="214.2" xlink:href="#me095911a11" y="49.5"/>
      </g>
     </g>
     <g id="text_15">
      <!-- 0.2 -->
      <g style="fill:#262626;" transform="translate(222.5 52.271505)scale(0.07744 -0.07744)">
       <use xlink:href="#ArialMT-48"/>
       <use x="55.615234" xlink:href="#ArialMT-46"/>
       <use x="83.398438" xlink:href="#ArialMT-50"/>
      </g>
     </g>
    </g>
    <g id="ytick_9">
     <g id="line2d_22">
      <g>
       <use style="fill:#262626;stroke:#262626;" x="214.2" xlink:href="#me095911a11" y="27.313953"/>
      </g>
     </g>
     <g id="text_16">
      <!-- 0.4 -->
      <defs>
       <path d="M 32.328125 0 
L 32.328125 17.140625 
L 1.265625 17.140625 
L 1.265625 25.203125 
L 33.9375 71.578125 
L 41.109375 71.578125 
L 41.109375 25.203125 
L 50.78125 25.203125 
L 50.78125 17.140625 
L 41.109375 17.140625 
L 41.109375 0 
z
M 32.328125 25.203125 
L 32.328125 57.46875 
L 9.90625 25.203125 
z
" id="ArialMT-52"/>
      </defs>
      <g style="fill:#262626;" transform="translate(222.5 30.085458)scale(0.07744 -0.07744)">
       <use xlink:href="#ArialMT-48"/>
       <use x="55.615234" xlink:href="#ArialMT-46"/>
       <use x="83.398438" xlink:href="#ArialMT-52"/>
      </g>
     </g>
    </g>
    <g id="ytick_10">
     <g id="line2d_23">
      <g>
       <use style="fill:#262626;stroke:#262626;" x="214.2" xlink:href="#me095911a11" y="5.127907"/>
      </g>
     </g>
     <g id="text_17">
      <!-- 0.6 -->
      <defs>
       <path d="M 49.75 54.046875 
L 41.015625 53.375 
Q 39.84375 58.546875 37.703125 60.890625 
Q 34.125 64.65625 28.90625 64.65625 
Q 24.703125 64.65625 21.53125 62.3125 
Q 17.390625 59.28125 14.984375 53.46875 
Q 12.59375 47.65625 12.5 36.921875 
Q 15.671875 41.75 20.265625 44.09375 
Q 24.859375 46.4375 29.890625 46.4375 
Q 38.671875 46.4375 44.84375 39.96875 
Q 51.03125 33.5 51.03125 23.25 
Q 51.03125 16.5 48.125 10.71875 
Q 45.21875 4.9375 40.140625 1.859375 
Q 35.0625 -1.21875 28.609375 -1.21875 
Q 17.625 -1.21875 10.6875 6.859375 
Q 3.765625 14.9375 3.765625 33.5 
Q 3.765625 54.25 11.421875 63.671875 
Q 18.109375 71.875 29.4375 71.875 
Q 37.890625 71.875 43.28125 67.140625 
Q 48.6875 62.40625 49.75 54.046875 
z
M 13.875 23.1875 
Q 13.875 18.65625 15.796875 14.5 
Q 17.71875 10.359375 21.1875 8.171875 
Q 24.65625 6 28.46875 6 
Q 34.03125 6 38.03125 10.484375 
Q 42.046875 14.984375 42.046875 22.703125 
Q 42.046875 30.125 38.078125 34.390625 
Q 34.125 38.671875 28.125 38.671875 
Q 22.171875 38.671875 18.015625 34.390625 
Q 13.875 30.125 13.875 23.1875 
z
" id="ArialMT-54"/>
      </defs>
      <g style="fill:#262626;" transform="translate(222.5 7.899412)scale(0.07744 -0.07744)">
       <use xlink:href="#ArialMT-48"/>
       <use x="55.615234" xlink:href="#ArialMT-46"/>
       <use x="83.398438" xlink:href="#ArialMT-54"/>
      </g>
     </g>
    </g>
    <g id="text_18">
     <!-- LLR supporting correct -->
     <g style="fill:#262626;" transform="translate(241.74022 6.77226)rotate(-270)scale(0.08448 -0.08448)">
      <use xlink:href="#ArialMT-76"/>
      <use x="55.615234" xlink:href="#ArialMT-76"/>
      <use x="111.230469" xlink:href="#ArialMT-82"/>
      <use x="183.447266" xlink:href="#ArialMT-32"/>
      <use x="211.230469" xlink:href="#ArialMT-115"/>
      <use x="261.230469" xlink:href="#ArialMT-117"/>
      <use x="316.845703" xlink:href="#ArialMT-112"/>
      <use x="372.460938" xlink:href="#ArialMT-112"/>
      <use x="428.076172" xlink:href="#ArialMT-111"/>
      <use x="483.691406" xlink:href="#ArialMT-114"/>
      <use x="516.992188" xlink:href="#ArialMT-116"/>
      <use x="544.775391" xlink:href="#ArialMT-105"/>
      <use x="566.992188" xlink:href="#ArialMT-110"/>
      <use x="622.607422" xlink:href="#ArialMT-103"/>
      <use x="678.222656" xlink:href="#ArialMT-32"/>
      <use x="706.005859" xlink:href="#ArialMT-99"/>
      <use x="756.005859" xlink:href="#ArialMT-111"/>
      <use x="811.621094" xlink:href="#ArialMT-114"/>
      <use x="844.921875" xlink:href="#ArialMT-114"/>
      <use x="878.222656" xlink:href="#ArialMT-101"/>
      <use x="933.837891" xlink:href="#ArialMT-99"/>
      <use x="983.837891" xlink:href="#ArialMT-116"/>
     </g>
    </g>
   </g>
   <g id="PolyCollection_1">
    <defs>
     <path d="M 136.260561 -130.831738 
L 136.260561 -108.9012 
L 137.215701 -110.488801 
L 138.170841 -113.594394 
L 139.125981 -109.411266 
L 140.081121 -108.227946 
L 141.036262 -105.782497 
L 141.991402 -107.393717 
L 142.946542 -107.650924 
L 143.901682 -109.844088 
L 144.856822 -110.637722 
L 145.811963 -109.596152 
L 146.767103 -112.260049 
L 147.722243 -110.670994 
L 148.677383 -111.995183 
L 149.632523 -114.095184 
L 150.587664 -112.411912 
L 151.542804 -114.86622 
L 152.497944 -113.950665 
L 153.453084 -113.387906 
L 154.408224 -112.793272 
L 155.363364 -113.822165 
L 156.318505 -114.733174 
L 157.273645 -113.391127 
L 158.228785 -111.904131 
L 159.183925 -109.880841 
L 160.139065 -110.142282 
L 161.094206 -110.662806 
L 162.049346 -109.459914 
L 163.004486 -109.259947 
L 163.959626 -109.832477 
L 164.914766 -109.417244 
L 165.869907 -109.493253 
L 166.825047 -107.173103 
L 167.780187 -106.682495 
L 168.735327 -106.34002 
L 169.690467 -108.192422 
L 170.645607 -108.094088 
L 171.600748 -107.673203 
L 172.555888 -108.668341 
L 173.511028 -109.686842 
L 174.466168 -110.546519 
L 175.421308 -109.633772 
L 176.376449 -110.333039 
L 177.331589 -110.090143 
L 178.286729 -110.306171 
L 179.241869 -109.091364 
L 180.197009 -108.057762 
L 181.15215 -109.327944 
L 182.10729 -109.971065 
L 183.06243 -109.629166 
L 184.01757 -109.131874 
L 184.97271 -107.57769 
L 185.92785 -107.63577 
L 186.882991 -106.785634 
L 187.838131 -106.006945 
L 188.793271 -105.771381 
L 189.748411 -104.789774 
L 190.703551 -104.254288 
L 191.658692 -103.74682 
L 192.613832 -103.66753 
L 193.568972 -102.87698 
L 194.524112 -102.927809 
L 195.479252 -101.988979 
L 196.434393 -100.738537 
L 197.389533 -100.008162 
L 198.344673 -99.933611 
L 199.299813 -99.844709 
L 200.254953 -99.628812 
L 201.210093 -99.061029 
L 202.165234 -99.066693 
L 203.120374 -98.930047 
L 204.075514 -98.446799 
L 205.030654 -98.490849 
L 205.985794 -98.498619 
L 206.940935 -97.893435 
L 207.896075 -97.025228 
L 208.851215 -96.643939 
L 208.851215 -101.690326 
L 208.851215 -101.690326 
L 207.896075 -101.769794 
L 206.940935 -102.346891 
L 205.985794 -102.783443 
L 205.030654 -102.641644 
L 204.075514 -102.478047 
L 203.120374 -102.865719 
L 202.165234 -102.885399 
L 201.210093 -102.787133 
L 200.254953 -103.330523 
L 199.299813 -103.624027 
L 198.344673 -103.747097 
L 197.389533 -103.845997 
L 196.434393 -104.596363 
L 195.479252 -106.042874 
L 194.524112 -107.178453 
L 193.568972 -107.307773 
L 192.613832 -108.253929 
L 191.658692 -108.515705 
L 190.703551 -109.150586 
L 189.748411 -109.801032 
L 188.793271 -110.900138 
L 187.838131 -111.256404 
L 186.882991 -112.199574 
L 185.92785 -113.21281 
L 184.97271 -113.338796 
L 184.01757 -115.058013 
L 183.06243 -115.733481 
L 182.10729 -116.25022 
L 181.15215 -115.809353 
L 180.197009 -114.525559 
L 179.241869 -115.730056 
L 178.286729 -117.12393 
L 177.331589 -117.118208 
L 176.376449 -117.709041 
L 175.421308 -117.266904 
L 174.466168 -118.458084 
L 173.511028 -117.899314 
L 172.555888 -117.145194 
L 171.600748 -116.438086 
L 170.645607 -117.070982 
L 169.690467 -117.203546 
L 168.735327 -115.496454 
L 167.780187 -116.144965 
L 166.825047 -116.953724 
L 165.869907 -119.587683 
L 164.914766 -119.874575 
L 163.959626 -120.384744 
L 163.004486 -120.215483 
L 162.049346 -120.54656 
L 161.094206 -121.829446 
L 160.139065 -121.584268 
L 159.183925 -121.597152 
L 158.228785 -123.958564 
L 157.273645 -125.632012 
L 156.318505 -127.403632 
L 155.363364 -127.215041 
L 154.408224 -126.673033 
L 153.453084 -127.890853 
L 152.497944 -128.7924 
L 151.542804 -130.197437 
L 150.587664 -128.332668 
L 149.632523 -130.454654 
L 148.677383 -129.056394 
L 147.722243 -128.359205 
L 146.767103 -130.657601 
L 145.811963 -128.843587 
L 144.856822 -130.462919 
L 143.901682 -129.562792 
L 142.946542 -126.867608 
L 141.991402 -126.903777 
L 141.036262 -125.439714 
L 140.081121 -128.136456 
L 139.125981 -129.756863 
L 138.170841 -134.484791 
L 137.215701 -132.591785 
L 136.260561 -130.831738 
z
" id="m669590e29c" style="stroke:#333333;stroke-opacity:0.1;stroke-width:0.8;"/>
    </defs>
    <g clip-path="url(#p3e8935edbb)">
     <use style="fill:#333333;fill-opacity:0.1;stroke:#333333;stroke-opacity:0.1;stroke-width:0.8;" x="0" xlink:href="#m669590e29c" y="180"/>
    </g>
   </g>
   <g id="PolyCollection_2">
    <defs>
     <path d="M 136.260561 -160.3074 
L 136.260561 -150.549558 
L 137.215701 -150.729439 
L 138.170841 -152.795076 
L 139.125981 -152.156245 
L 140.081121 -151.738823 
L 141.036262 -151.877902 
L 141.991402 -151.292081 
L 142.946542 -152.72235 
L 143.901682 -154.516408 
L 144.856822 -153.470055 
L 145.811963 -153.922533 
L 146.767103 -154.069017 
L 147.722243 -154.644509 
L 148.677383 -154.975327 
L 149.632523 -155.32496 
L 150.587664 -155.534955 
L 151.542804 -154.906663 
L 152.497944 -155.167287 
L 153.453084 -154.947432 
L 154.408224 -155.321875 
L 155.363364 -154.775693 
L 156.318505 -155.013984 
L 157.273645 -156.033368 
L 158.228785 -156.012061 
L 159.183925 -154.839629 
L 160.139065 -155.470909 
L 161.094206 -154.961654 
L 162.049346 -155.102186 
L 163.004486 -154.644271 
L 163.959626 -154.576477 
L 164.914766 -155.600211 
L 165.869907 -155.619586 
L 166.825047 -156.357138 
L 167.780187 -156.515673 
L 168.735327 -156.60306 
L 169.690467 -156.853381 
L 170.645607 -157.274437 
L 171.600748 -157.500684 
L 172.555888 -157.660529 
L 173.511028 -157.799051 
L 174.466168 -158.623007 
L 175.421308 -158.973034 
L 176.376449 -159.486307 
L 177.331589 -159.739695 
L 178.286729 -160.034323 
L 179.241869 -160.468891 
L 180.197009 -160.269013 
L 181.15215 -160.460679 
L 182.10729 -160.638178 
L 183.06243 -161.042226 
L 184.01757 -161.004022 
L 184.97271 -161.613705 
L 185.92785 -161.712542 
L 186.882991 -161.771112 
L 187.838131 -161.828527 
L 188.793271 -162.231729 
L 189.748411 -162.237299 
L 190.703551 -162.295911 
L 191.658692 -162.049121 
L 192.613832 -162.111601 
L 193.568972 -162.219783 
L 194.524112 -162.297988 
L 195.479252 -162.313491 
L 196.434393 -162.958489 
L 197.389533 -163.12561 
L 198.344673 -163.177841 
L 199.299813 -163.649508 
L 200.254953 -163.450838 
L 201.210093 -163.53515 
L 202.165234 -163.647835 
L 203.120374 -163.64939 
L 204.075514 -163.450846 
L 205.030654 -163.562421 
L 205.985794 -163.563575 
L 206.940935 -164.028415 
L 207.896075 -164.216922 
L 208.851215 -164.42686 
L 208.851215 -167.084343 
L 208.851215 -167.084343 
L 207.896075 -166.717766 
L 206.940935 -166.4058 
L 205.985794 -165.840464 
L 205.030654 -165.746143 
L 204.075514 -165.568582 
L 203.120374 -165.714364 
L 202.165234 -165.665931 
L 201.210093 -165.507693 
L 200.254953 -165.39143 
L 199.299813 -165.618049 
L 198.344673 -165.174307 
L 197.389533 -165.134407 
L 196.434393 -164.975241 
L 195.479252 -164.386365 
L 194.524112 -164.440137 
L 193.568972 -164.434945 
L 192.613832 -164.378462 
L 191.658692 -164.366877 
L 190.703551 -164.663581 
L 189.748411 -164.668745 
L 188.793271 -164.701355 
L 187.838131 -164.331546 
L 186.882991 -164.308599 
L 185.92785 -164.294729 
L 184.97271 -164.24591 
L 184.01757 -163.710331 
L 183.06243 -163.801812 
L 182.10729 -163.461628 
L 181.15215 -163.355517 
L 180.197009 -163.254653 
L 179.241869 -163.52503 
L 178.286729 -163.164188 
L 177.331589 -162.947748 
L 176.376449 -162.796475 
L 175.421308 -162.377454 
L 174.466168 -162.128247 
L 173.511028 -161.427482 
L 172.555888 -161.410501 
L 171.600748 -161.354774 
L 170.645607 -161.264427 
L 169.690467 -160.960782 
L 168.735327 -160.81821 
L 167.780187 -160.852077 
L 166.825047 -160.812633 
L 165.869907 -160.212017 
L 164.914766 -160.318766 
L 163.959626 -159.416784 
L 163.004486 -159.634134 
L 162.049346 -160.275536 
L 161.094206 -160.226148 
L 160.139065 -160.853084 
L 159.183925 -160.306363 
L 158.228785 -161.593091 
L 157.273645 -161.690514 
L 156.318505 -160.834802 
L 155.363364 -160.649496 
L 154.408224 -161.309855 
L 153.453084 -161.040584 
L 152.497944 -161.391237 
L 151.542804 -161.342381 
L 150.587664 -162.034394 
L 149.632523 -161.959399 
L 148.677383 -161.772059 
L 147.722243 -161.556487 
L 146.767103 -161.041414 
L 145.811963 -161.061309 
L 144.856822 -160.874871 
L 143.901682 -162.134356 
L 142.946542 -160.621896 
L 141.991402 -159.368167 
L 141.036262 -160.17933 
L 140.081121 -160.276657 
L 139.125981 -161.004902 
L 138.170841 -161.9237 
L 137.215701 -160.316618 
L 136.260561 -160.3074 
z
" id="m5e5a602790" style="stroke:#333333;stroke-opacity:0.2;stroke-width:0.8;"/>
    </defs>
    <g clip-path="url(#p3e8935edbb)">
     <use style="fill:#333333;fill-opacity:0.2;stroke:#333333;stroke-opacity:0.2;stroke-width:0.8;" x="0" xlink:href="#m5e5a602790" y="180"/>
    </g>
   </g>
   <g id="line2d_24">
    <path clip-path="url(#p3e8935edbb)" d="M 136.260561 60.133531 
L 137.215701 58.459707 
L 138.170841 55.960408 
L 139.125981 60.415935 
L 140.081121 61.817799 
L 141.036262 64.388894 
L 141.991402 62.851253 
L 142.946542 62.740734 
L 143.901682 60.29656 
L 144.856822 59.44968 
L 145.811963 60.78013 
L 146.767103 58.541175 
L 147.722243 60.4849 
L 148.677383 59.474211 
L 149.632523 57.725081 
L 150.587664 59.62771 
L 151.542804 57.468172 
L 152.497944 58.628467 
L 153.453084 59.36062 
L 154.408224 60.266848 
L 155.363364 59.481397 
L 156.318505 58.931597 
L 157.273645 60.488431 
L 158.228785 62.068653 
L 159.183925 64.261004 
L 160.139065 64.136725 
L 161.094206 63.753874 
L 162.049346 64.996763 
L 163.004486 65.262285 
L 163.959626 64.89139 
L 164.914766 65.354091 
L 165.869907 65.459532 
L 166.825047 67.936587 
L 167.780187 68.58627 
L 168.735327 69.081763 
L 169.690467 67.302016 
L 170.645607 67.417465 
L 171.600748 67.944355 
L 172.555888 67.093233 
L 173.511028 66.206922 
L 174.466168 65.497698 
L 175.421308 66.549662 
L 176.376449 65.97896 
L 177.331589 66.395825 
L 178.286729 66.28495 
L 179.241869 67.58929 
L 180.197009 68.70834 
L 181.15215 67.431351 
L 182.10729 66.889358 
L 183.06243 67.318676 
L 184.01757 67.905057 
L 184.97271 69.541757 
L 185.92785 69.57571 
L 186.882991 70.507396 
L 187.838131 71.368326 
L 188.793271 71.66424 
L 189.748411 72.704597 
L 190.703551 73.297563 
L 191.658692 73.868738 
L 192.613832 74.03927 
L 193.568972 74.907623 
L 194.524112 74.946869 
L 195.479252 75.984074 
L 196.434393 77.33255 
L 197.389533 78.07292 
L 198.344673 78.159646 
L 199.299813 78.265632 
L 200.254953 78.520332 
L 201.210093 79.075919 
L 202.165234 79.023954 
L 203.120374 79.102117 
L 204.075514 79.537577 
L 205.030654 79.433753 
L 205.985794 79.358969 
L 206.940935 79.879837 
L 207.896075 80.602489 
L 208.851215 80.832867 
" style="fill:none;stroke:#333333;stroke-dasharray:3.6,1.8;stroke-dashoffset:0;stroke-opacity:0.7;stroke-width:1.2;"/>
   </g>
   <g id="line2d_25">
    <path clip-path="url(#p3e8935edbb)" d="M 136.260561 24.571521 
L 137.215701 24.476972 
L 138.170841 22.640612 
L 139.125981 23.419427 
L 140.081121 23.99226 
L 141.036262 23.971384 
L 141.991402 24.669876 
L 142.946542 23.327877 
L 143.901682 21.674618 
L 144.856822 22.827537 
L 145.811963 22.508079 
L 146.767103 22.444785 
L 147.722243 21.899502 
L 148.677383 21.626307 
L 149.632523 21.357821 
L 150.587664 21.215325 
L 151.542804 21.875478 
L 152.497944 21.720738 
L 153.453084 22.005992 
L 154.408224 21.684135 
L 155.363364 22.287406 
L 156.318505 22.075607 
L 157.273645 21.138059 
L 158.228785 21.197424 
L 159.183925 22.427004 
L 160.139065 21.838004 
L 161.094206 22.406099 
L 162.049346 22.311139 
L 163.004486 22.860798 
L 163.959626 23.003369 
L 164.914766 22.040511 
L 165.869907 22.084198 
L 166.825047 21.415114 
L 167.780187 21.316125 
L 168.735327 21.289365 
L 169.690467 21.092918 
L 170.645607 20.730568 
L 171.600748 20.572271 
L 172.555888 20.464485 
L 173.511028 20.386733 
L 174.466168 19.624373 
L 175.421308 19.324756 
L 176.376449 18.858609 
L 177.331589 18.656278 
L 178.286729 18.400745 
L 179.241869 18.003039 
L 180.197009 18.238167 
L 181.15215 18.091902 
L 182.10729 17.950097 
L 183.06243 17.577981 
L 184.01757 17.642823 
L 184.97271 17.070192 
L 185.92785 16.996364 
L 186.882991 16.960144 
L 187.838131 16.919964 
L 188.793271 16.533458 
L 189.748411 16.546978 
L 190.703551 16.520254 
L 191.658692 16.792001 
L 192.613832 16.754968 
L 193.568972 16.672636 
L 194.524112 16.630937 
L 195.479252 16.650072 
L 196.434393 16.033135 
L 197.389533 15.869992 
L 198.344673 15.823926 
L 199.299813 15.366221 
L 200.254953 15.578866 
L 201.210093 15.478579 
L 202.165234 15.343117 
L 203.120374 15.318123 
L 204.075514 15.490286 
L 205.030654 15.345718 
L 205.985794 15.29798 
L 206.940935 14.782893 
L 207.896075 14.532656 
L 208.851215 14.244399 
" style="fill:none;stroke:#333333;stroke-linecap:round;stroke-width:1.2;"/>
   </g>
   <g id="line2d_26">
    <path clip-path="url(#p3e8935edbb)" d="M 136.260561 66.113533 
L 137.215701 65.984148 
L 138.170841 61.640438 
L 139.125981 64.168965 
L 140.081121 66.73519 
L 141.036262 68.177389 
L 141.991402 67.469314 
L 142.946542 66.297829 
L 143.901682 64.649964 
L 144.856822 65.942112 
L 145.811963 65.564689 
L 146.767103 65.086089 
L 147.722243 66.038456 
L 148.677383 65.896422 
L 149.632523 65.101736 
L 150.587664 65.507649 
L 151.542804 65.063701 
L 152.497944 65.577891 
L 153.453084 66.277413 
L 154.408224 66.213054 
L 155.363364 65.335439 
L 156.318505 65.604779 
L 157.273645 66.095496 
L 158.228785 67.499668 
L 159.183925 68.964639 
L 160.139065 68.011966 
L 161.094206 68.034908 
L 162.049346 68.828673 
L 163.004486 69.356478 
L 163.959626 68.903624 
L 164.914766 69.257551 
L 165.869907 69.414186 
L 166.825047 70.291907 
L 167.780187 70.468642 
L 168.735327 70.73243 
L 169.690467 69.861486 
L 170.645607 69.694452 
L 171.600748 69.490265 
L 172.555888 68.757808 
L 173.511028 68.078599 
L 174.466168 66.978294 
L 175.421308 67.884503 
L 176.376449 67.594527 
L 177.331589 67.457336 
L 178.286729 67.425352 
L 179.241869 67.9381 
L 180.197009 68.213328 
L 181.15215 67.854459 
L 182.10729 67.46648 
L 183.06243 67.724741 
L 184.01757 68.574264 
L 184.97271 69.685348 
L 185.92785 69.933262 
L 186.882991 70.859592 
L 187.838131 71.483622 
L 188.793271 71.91327 
L 189.748411 73.071885 
L 190.703551 73.469739 
L 191.658692 73.872429 
L 192.613832 74.162679 
L 193.568972 74.895604 
L 194.524112 75.104135 
L 195.479252 75.922892 
L 196.434393 76.626403 
L 197.389533 77.259529 
L 198.344673 77.529637 
L 199.299813 77.569671 
L 200.254953 77.946052 
L 201.210093 78.35345 
L 202.165234 78.271877 
L 203.120374 78.465697 
L 204.075514 78.68101 
L 205.030654 78.567126 
L 205.985794 78.647744 
L 206.940935 79.064512 
L 207.896075 79.560039 
L 208.851215 79.541696 
" style="fill:none;stroke:#11875d;stroke-dasharray:3.6,1.8;stroke-dashoffset:0;stroke-opacity:0.7;stroke-width:1.2;"/>
   </g>
   <g id="line2d_27">
    <path clip-path="url(#p3e8935edbb)" d="M 136.260561 24.937866 
L 137.215701 24.504039 
L 138.170841 22.981733 
L 139.125981 23.883103 
L 140.081121 24.395192 
L 141.036262 24.561542 
L 141.991402 24.906948 
L 142.946542 23.711058 
L 143.901682 21.993397 
L 144.856822 22.800445 
L 145.811963 22.616222 
L 146.767103 22.271832 
L 147.722243 22.120267 
L 148.677383 21.606012 
L 149.632523 21.149275 
L 150.587664 21.08011 
L 151.542804 21.455835 
L 152.497944 21.278754 
L 153.453084 21.539069 
L 154.408224 21.444417 
L 155.363364 22.002231 
L 156.318505 21.866223 
L 157.273645 21.148067 
L 158.228785 21.351145 
L 159.183925 22.501288 
L 160.139065 21.939196 
L 161.094206 22.478439 
L 162.049346 22.328058 
L 163.004486 22.7392 
L 163.959626 23.064938 
L 164.914766 22.11877 
L 165.869907 22.238561 
L 166.825047 21.9141 
L 167.780187 21.971225 
L 168.735327 22.048613 
L 169.690467 21.692723 
L 170.645607 21.256309 
L 171.600748 21.055119 
L 172.555888 21.00323 
L 173.511028 20.825339 
L 174.466168 20.118938 
L 175.421308 19.890028 
L 176.376449 19.34999 
L 177.331589 19.423335 
L 178.286729 19.161992 
L 179.241869 18.809231 
L 180.197009 19.148481 
L 181.15215 18.782325 
L 182.10729 18.632128 
L 183.06243 18.278448 
L 184.01757 18.234435 
L 184.97271 17.823909 
L 185.92785 17.692311 
L 186.882991 17.701016 
L 187.838131 17.627699 
L 188.793271 17.320636 
L 189.748411 17.273105 
L 190.703551 17.119589 
L 191.658692 17.286433 
L 192.613832 17.190347 
L 193.568972 17.142283 
L 194.524112 17.035566 
L 195.479252 17.062678 
L 196.434393 16.576933 
L 197.389533 16.311 
L 198.344673 16.17708 
L 199.299813 15.703038 
L 200.254953 15.770397 
L 201.210093 15.714849 
L 202.165234 15.531789 
L 203.120374 15.457266 
L 204.075514 15.539484 
L 205.030654 15.413337 
L 205.985794 15.430025 
L 206.940935 15.038411 
L 207.896075 14.713627 
L 208.851215 14.349522 
" style="fill:none;stroke:#11875d;stroke-linecap:round;stroke-width:1.2;"/>
   </g>
   <g id="patch_6">
    <path d="M 214.2 93.872093 
L 214.2 5.127907 
" style="fill:none;stroke:#262626;stroke-linecap:square;stroke-linejoin:miter;"/>
   </g>
   <g id="patch_7">
    <path d="M 136.260561 97.2 
L 212.671776 97.2 
" style="fill:none;stroke:#262626;stroke-linecap:square;stroke-linejoin:miter;"/>
   </g>
   <g id="text_19">
    <!-- Correct -->
    <defs>
     <path d="M 58.796875 25.09375 
L 68.265625 22.703125 
Q 65.28125 11.03125 57.546875 4.90625 
Q 49.8125 -1.21875 38.625 -1.21875 
Q 27.046875 -1.21875 19.796875 3.484375 
Q 12.546875 8.203125 8.765625 17.140625 
Q 4.984375 26.078125 4.984375 36.328125 
Q 4.984375 47.515625 9.25 55.828125 
Q 13.53125 64.15625 21.40625 68.46875 
Q 29.296875 72.796875 38.765625 72.796875 
Q 49.515625 72.796875 56.828125 67.328125 
Q 64.15625 61.859375 67.046875 51.953125 
L 57.71875 49.75 
Q 55.21875 57.5625 50.484375 61.125 
Q 45.75 64.703125 38.578125 64.703125 
Q 30.328125 64.703125 24.78125 60.734375 
Q 19.234375 56.78125 16.984375 50.109375 
Q 14.75 43.453125 14.75 36.375 
Q 14.75 27.25 17.40625 20.4375 
Q 20.0625 13.625 25.671875 10.25 
Q 31.296875 6.890625 37.84375 6.890625 
Q 45.796875 6.890625 51.3125 11.46875 
Q 56.84375 16.0625 58.796875 25.09375 
z
" id="ArialMT-67"/>
    </defs>
    <g style="fill:#333333;" transform="translate(185.92785 27.313953)scale(0.067584 -0.067584)">
     <use xlink:href="#ArialMT-67"/>
     <use x="72.216797" xlink:href="#ArialMT-111"/>
     <use x="127.832031" xlink:href="#ArialMT-114"/>
     <use x="161.132812" xlink:href="#ArialMT-114"/>
     <use x="194.433594" xlink:href="#ArialMT-101"/>
     <use x="250.048828" xlink:href="#ArialMT-99"/>
     <use x="300.048828" xlink:href="#ArialMT-116"/>
    </g>
   </g>
   <g id="text_20">
    <!-- Wrong -->
    <defs>
     <path d="M 20.21875 0 
L 1.21875 71.578125 
L 10.9375 71.578125 
L 21.828125 24.65625 
Q 23.578125 17.28125 24.859375 10.015625 
Q 27.59375 21.484375 28.078125 23.25 
L 41.703125 71.578125 
L 53.125 71.578125 
L 63.375 35.359375 
Q 67.234375 21.875 68.953125 10.015625 
Q 70.3125 16.796875 72.515625 25.59375 
L 83.734375 71.578125 
L 93.265625 71.578125 
L 73.640625 0 
L 64.5 0 
L 49.421875 54.546875 
Q 47.515625 61.375 47.171875 62.9375 
Q 46.046875 58.015625 45.0625 54.546875 
L 29.890625 0 
z
" id="ArialMT-87"/>
    </defs>
    <g style="fill:#999999;" transform="translate(189.748411 65.030233)scale(0.067584 -0.067584)">
     <use xlink:href="#ArialMT-87"/>
     <use x="94.369141" xlink:href="#ArialMT-114"/>
     <use x="127.669922" xlink:href="#ArialMT-111"/>
     <use x="183.285156" xlink:href="#ArialMT-110"/>
     <use x="238.900391" xlink:href="#ArialMT-103"/>
    </g>
   </g>
   <g id="text_21">
    <!-- Correct -->
    <g style="fill:#333333;" transform="translate(185.92785 27.313953)scale(0.067584 -0.067584)">
     <use xlink:href="#ArialMT-67"/>
     <use x="72.216797" xlink:href="#ArialMT-111"/>
     <use x="127.832031" xlink:href="#ArialMT-114"/>
     <use x="161.132812" xlink:href="#ArialMT-114"/>
     <use x="194.433594" xlink:href="#ArialMT-101"/>
     <use x="250.048828" xlink:href="#ArialMT-99"/>
     <use x="300.048828" xlink:href="#ArialMT-116"/>
    </g>
   </g>
   <g id="text_22">
    <!-- Wrong -->
    <g style="fill:#999999;" transform="translate(189.748411 65.030233)scale(0.067584 -0.067584)">
     <use xlink:href="#ArialMT-87"/>
     <use x="94.369141" xlink:href="#ArialMT-114"/>
     <use x="127.669922" xlink:href="#ArialMT-111"/>
     <use x="183.285156" xlink:href="#ArialMT-110"/>
     <use x="238.900391" xlink:href="#ArialMT-103"/>
    </g>
   </g>
  </g>
  <g id="axes_3">
   <g id="patch_8">
    <path d="M 10.08 151.2 
L 115.461818 151.2 
L 115.461818 129.6 
L 10.08 129.6 
z
" style="fill:#ffffff;"/>
   </g>
   <g id="line2d_28">
    <path d="M 10.08 151.2 
L 10.08 129.6 
" style="fill:none;stroke:#999999;stroke-linecap:round;"/>
   </g>
   <g id="matplotlib.axis_5">
    <g id="xtick_9">
     <g id="line2d_29">
      <g>
       <use style="fill:#262626;stroke:#262626;" x="10.08" xlink:href="#mcd73aa890c" y="151.2"/>
      </g>
     </g>
     <g id="text_23">
      <!-- 0 -->
      <g style="fill:#262626;" transform="translate(7.926805 165.04301)scale(0.07744 -0.07744)">
       <use xlink:href="#ArialMT-48"/>
      </g>
     </g>
    </g>
    <g id="xtick_10">
     <g id="line2d_30">
      <g>
       <use style="fill:#262626;stroke:#262626;" x="36.425455" xlink:href="#mcd73aa890c" y="151.2"/>
      </g>
     </g>
    </g>
    <g id="xtick_11">
     <g id="line2d_31">
      <g>
       <use style="fill:#262626;stroke:#262626;" x="62.770909" xlink:href="#mcd73aa890c" y="151.2"/>
      </g>
     </g>
     <g id="text_24">
      <!-- 0.2 -->
      <g style="fill:#262626;" transform="translate(57.388829 165.04301)scale(0.07744 -0.07744)">
       <use xlink:href="#ArialMT-48"/>
       <use x="55.615234" xlink:href="#ArialMT-46"/>
       <use x="83.398438" xlink:href="#ArialMT-50"/>
      </g>
     </g>
    </g>
    <g id="xtick_12">
     <g id="line2d_32">
      <g>
       <use style="fill:#262626;stroke:#262626;" x="89.116364" xlink:href="#mcd73aa890c" y="151.2"/>
      </g>
     </g>
    </g>
    <g id="xtick_13">
     <g id="line2d_33">
      <g>
       <use style="fill:#262626;stroke:#262626;" x="115.461818" xlink:href="#mcd73aa890c" y="151.2"/>
      </g>
     </g>
     <g id="text_25">
      <!-- 0.4 -->
      <g style="fill:#262626;" transform="translate(110.079738 165.04301)scale(0.07744 -0.07744)">
       <use xlink:href="#ArialMT-48"/>
       <use x="55.615234" xlink:href="#ArialMT-46"/>
       <use x="83.398438" xlink:href="#ArialMT-52"/>
      </g>
     </g>
    </g>
    <g id="text_26">
     <!-- Rate of memory leak (s$^{-1}$) -->
     <defs>
      <path d="M 6.203125 -19.96875 
L 5.21875 -11.71875 
Q 8.109375 -12.5 10.25 -12.5 
Q 13.1875 -12.5 14.9375 -11.515625 
Q 16.703125 -10.546875 17.828125 -8.796875 
Q 18.65625 -7.46875 20.515625 -2.25 
Q 20.75 -1.515625 21.296875 -0.09375 
L 1.609375 51.859375 
L 11.078125 51.859375 
L 21.875 21.828125 
Q 23.96875 16.109375 25.640625 9.8125 
Q 27.15625 15.875 29.25 21.625 
L 40.328125 51.859375 
L 49.125 51.859375 
L 29.390625 -0.875 
Q 26.21875 -9.421875 24.46875 -12.640625 
Q 22.125 -17 19.09375 -19.015625 
Q 16.0625 -21.046875 11.859375 -21.046875 
Q 9.328125 -21.046875 6.203125 -19.96875 
z
" id="ArialMT-121"/>
      <path d="M 6.640625 0 
L 6.640625 71.578125 
L 15.4375 71.578125 
L 15.4375 30.765625 
L 36.234375 51.859375 
L 47.609375 51.859375 
L 27.78125 32.625 
L 49.609375 0 
L 38.765625 0 
L 21.625 26.515625 
L 15.4375 20.5625 
L 15.4375 0 
z
" id="ArialMT-107"/>
      <path d="M 10.59375 35.5 
L 73.1875 35.5 
L 73.1875 27.203125 
L 10.59375 27.203125 
z
" id="DejaVuSans-8722"/>
      <path d="M 12.40625 8.296875 
L 28.515625 8.296875 
L 28.515625 63.921875 
L 10.984375 60.40625 
L 10.984375 69.390625 
L 28.421875 72.90625 
L 38.28125 72.90625 
L 38.28125 8.296875 
L 54.390625 8.296875 
L 54.390625 0 
L 12.40625 0 
z
" id="DejaVuSans-49"/>
     </defs>
     <g style="fill:#262626;" transform="translate(13.181149 178.18533)scale(0.08448 -0.08448)">
      <use transform="translate(0 0.684375)" xlink:href="#ArialMT-82"/>
      <use transform="translate(72.216797 0.684375)" xlink:href="#ArialMT-97"/>
      <use transform="translate(127.832031 0.684375)" xlink:href="#ArialMT-116"/>
      <use transform="translate(155.615234 0.684375)" xlink:href="#ArialMT-101"/>
      <use transform="translate(211.230469 0.684375)" xlink:href="#ArialMT-32"/>
      <use transform="translate(239.013672 0.684375)" xlink:href="#ArialMT-111"/>
      <use transform="translate(294.628906 0.684375)" xlink:href="#ArialMT-102"/>
      <use transform="translate(322.412109 0.684375)" xlink:href="#ArialMT-32"/>
      <use transform="translate(350.195312 0.684375)" xlink:href="#ArialMT-109"/>
      <use transform="translate(433.496094 0.684375)" xlink:href="#ArialMT-101"/>
      <use transform="translate(489.111328 0.684375)" xlink:href="#ArialMT-109"/>
      <use transform="translate(572.412109 0.684375)" xlink:href="#ArialMT-111"/>
      <use transform="translate(628.027344 0.684375)" xlink:href="#ArialMT-114"/>
      <use transform="translate(661.328125 0.684375)" xlink:href="#ArialMT-121"/>
      <use transform="translate(711.328125 0.684375)" xlink:href="#ArialMT-32"/>
      <use transform="translate(739.111328 0.684375)" xlink:href="#ArialMT-108"/>
      <use transform="translate(761.328125 0.684375)" xlink:href="#ArialMT-101"/>
      <use transform="translate(816.943359 0.684375)" xlink:href="#ArialMT-97"/>
      <use transform="translate(872.558594 0.684375)" xlink:href="#ArialMT-107"/>
      <use transform="translate(922.558594 0.684375)" xlink:href="#ArialMT-32"/>
      <use transform="translate(950.341797 0.684375)" xlink:href="#ArialMT-40"/>
      <use transform="translate(983.642578 0.684375)" xlink:href="#ArialMT-115"/>
      <use transform="translate(1034.599609 38.965625)scale(0.7)" xlink:href="#DejaVuSans-8722"/>
      <use transform="translate(1093.251953 38.965625)scale(0.7)" xlink:href="#DejaVuSans-49"/>
      <use transform="translate(1140.522461 0.684375)" xlink:href="#ArialMT-41"/>
     </g>
    </g>
   </g>
   <g id="matplotlib.axis_6"/>
   <g id="PathCollection_1">
    <defs>
     <path d="M 0 1.5 
C 0.397805 1.5 0.77937 1.341951 1.06066 1.06066 
C 1.341951 0.77937 1.5 0.397805 1.5 0 
C 1.5 -0.397805 1.341951 -0.77937 1.06066 -1.06066 
C 0.77937 -1.341951 0.397805 -1.5 0 -1.5 
C -0.397805 -1.5 -0.77937 -1.341951 -1.06066 -1.06066 
C -1.341951 -0.77937 -1.5 -0.397805 -1.5 0 
C -1.5 0.397805 -1.341951 0.77937 -1.06066 1.06066 
C -0.77937 1.341951 -0.397805 1.5 0 1.5 
z
" id="m729693b098" style="stroke:#11875d;stroke-width:0.8;"/>
    </defs>
    <g>
     <use style="fill:#11875d;stroke:#11875d;stroke-width:0.8;" x="10.08" xlink:href="#m729693b098" y="133.2"/>
    </g>
   </g>
   <g id="PathCollection_2">
    <g>
     <use style="fill:#11875d;stroke:#11875d;stroke-width:0.8;" x="10.08" xlink:href="#m729693b098" y="136.8"/>
    </g>
   </g>
   <g id="PathCollection_3">
    <g>
     <use style="fill:#11875d;stroke:#11875d;stroke-width:0.8;" x="10.08" xlink:href="#m729693b098" y="140.4"/>
    </g>
   </g>
   <g id="PathCollection_4">
    <g>
     <use style="fill:#11875d;stroke:#11875d;stroke-width:0.8;" x="10.08" xlink:href="#m729693b098" y="144"/>
    </g>
   </g>
   <g id="PathCollection_5">
    <g>
     <use style="fill:#11875d;stroke:#11875d;stroke-width:0.8;" x="20.386908" xlink:href="#m729693b098" y="147.6"/>
    </g>
   </g>
   <g id="line2d_34">
    <path d="M 10.08 133.2 
L 10.08 133.2 
" style="fill:none;stroke:#11875d;stroke-linecap:round;stroke-width:1.6;"/>
   </g>
   <g id="line2d_35">
    <path d="M 10.08 133.2 
L 12.455235 133.2 
" style="fill:none;stroke:#11875d;stroke-linecap:round;stroke-width:0.8;"/>
   </g>
   <g id="line2d_36">
    <path d="M 10.08 136.8 
L 12.087913 136.8 
" style="fill:none;stroke:#11875d;stroke-linecap:round;stroke-width:1.6;"/>
   </g>
   <g id="line2d_37">
    <path d="M 10.08 136.8 
L 16.900844 136.8 
" style="fill:none;stroke:#11875d;stroke-linecap:round;stroke-width:0.8;"/>
   </g>
   <g id="line2d_38">
    <path d="M 10.08 140.4 
L 10.08 140.4 
" style="fill:none;stroke:#11875d;stroke-linecap:round;stroke-width:1.6;"/>
   </g>
   <g id="line2d_39">
    <path d="M 10.08 140.4 
L 13.096252 140.4 
" style="fill:none;stroke:#11875d;stroke-linecap:round;stroke-width:0.8;"/>
   </g>
   <g id="line2d_40">
    <path d="M 10.08 144 
L 10.08 144 
" style="fill:none;stroke:#11875d;stroke-linecap:round;stroke-width:1.6;"/>
   </g>
   <g id="line2d_41">
    <path d="M 10.08 144 
L 10.08 144 
" style="fill:none;stroke:#11875d;stroke-linecap:round;stroke-width:0.8;"/>
   </g>
   <g id="line2d_42">
    <path d="M 16.36727 147.6 
L 24.156137 147.6 
" style="fill:none;stroke:#11875d;stroke-linecap:round;stroke-width:1.6;"/>
   </g>
   <g id="line2d_43">
    <path d="M 12.262532 147.6 
L 28.574419 147.6 
" style="fill:none;stroke:#11875d;stroke-linecap:round;stroke-width:0.8;"/>
   </g>
   <g id="patch_9">
    <path d="M 10.08 151.2 
L 115.461818 151.2 
" style="fill:none;stroke:#262626;stroke-linecap:square;stroke-linejoin:miter;"/>
   </g>
  </g>
  <g id="axes_4">
   <g id="patch_10">
    <path d="M 136.538182 151.2 
L 241.92 151.2 
L 241.92 129.6 
L 136.538182 129.6 
z
" style="fill:#ffffff;"/>
   </g>
   <g id="line2d_44">
    <path d="M 136.538182 151.2 
L 136.538182 129.6 
" style="fill:none;stroke:#999999;stroke-linecap:round;"/>
   </g>
   <g id="matplotlib.axis_7">
    <g id="xtick_14">
     <g id="line2d_45">
      <g>
       <use style="fill:#262626;stroke:#262626;" x="136.538182" xlink:href="#mcd73aa890c" y="151.2"/>
      </g>
     </g>
     <g id="text_27">
      <!-- 0.0 -->
      <g style="fill:#262626;" transform="translate(131.156102 165.04301)scale(0.07744 -0.07744)">
       <use xlink:href="#ArialMT-48"/>
       <use x="55.615234" xlink:href="#ArialMT-46"/>
       <use x="83.398438" xlink:href="#ArialMT-48"/>
      </g>
     </g>
    </g>
    <g id="xtick_15">
     <g id="line2d_46">
      <g>
       <use style="fill:#262626;stroke:#262626;" x="171.665455" xlink:href="#mcd73aa890c" y="151.2"/>
      </g>
     </g>
     <g id="text_28">
      <!-- 0.2 -->
      <g style="fill:#262626;" transform="translate(166.283375 165.04301)scale(0.07744 -0.07744)">
       <use xlink:href="#ArialMT-48"/>
       <use x="55.615234" xlink:href="#ArialMT-46"/>
       <use x="83.398438" xlink:href="#ArialMT-50"/>
      </g>
     </g>
    </g>
    <g id="xtick_16">
     <g id="line2d_47">
      <g>
       <use style="fill:#262626;stroke:#262626;" x="206.792727" xlink:href="#mcd73aa890c" y="151.2"/>
      </g>
     </g>
     <g id="text_29">
      <!-- 0.4 -->
      <g style="fill:#262626;" transform="translate(201.410647 165.04301)scale(0.07744 -0.07744)">
       <use xlink:href="#ArialMT-48"/>
       <use x="55.615234" xlink:href="#ArialMT-46"/>
       <use x="83.398438" xlink:href="#ArialMT-52"/>
      </g>
     </g>
    </g>
    <g id="xtick_17">
     <g id="line2d_48">
      <g>
       <use style="fill:#262626;stroke:#262626;" x="241.92" xlink:href="#mcd73aa890c" y="151.2"/>
      </g>
     </g>
     <g id="text_30">
      <!-- 0.6 -->
      <g style="fill:#262626;" transform="translate(236.53792 165.04301)scale(0.07744 -0.07744)">
       <use xlink:href="#ArialMT-48"/>
       <use x="55.615234" xlink:href="#ArialMT-46"/>
       <use x="83.398438" xlink:href="#ArialMT-54"/>
      </g>
     </g>
    </g>
    <g id="text_31">
     <!-- Magnitude of internal noise -->
     <g style="fill:#262626;" transform="translate(138.512051 176.73201)scale(0.08448 -0.08448)">
      <use xlink:href="#ArialMT-77"/>
      <use x="83.300781" xlink:href="#ArialMT-97"/>
      <use x="138.916016" xlink:href="#ArialMT-103"/>
      <use x="194.53125" xlink:href="#ArialMT-110"/>
      <use x="250.146484" xlink:href="#ArialMT-105"/>
      <use x="272.363281" xlink:href="#ArialMT-116"/>
      <use x="300.146484" xlink:href="#ArialMT-117"/>
      <use x="355.761719" xlink:href="#ArialMT-100"/>
      <use x="411.376953" xlink:href="#ArialMT-101"/>
      <use x="466.992188" xlink:href="#ArialMT-32"/>
      <use x="494.775391" xlink:href="#ArialMT-111"/>
      <use x="550.390625" xlink:href="#ArialMT-102"/>
      <use x="578.173828" xlink:href="#ArialMT-32"/>
      <use x="605.957031" xlink:href="#ArialMT-105"/>
      <use x="628.173828" xlink:href="#ArialMT-110"/>
      <use x="683.789062" xlink:href="#ArialMT-116"/>
      <use x="711.572266" xlink:href="#ArialMT-101"/>
      <use x="767.1875" xlink:href="#ArialMT-114"/>
      <use x="800.488281" xlink:href="#ArialMT-110"/>
      <use x="856.103516" xlink:href="#ArialMT-97"/>
      <use x="911.71875" xlink:href="#ArialMT-108"/>
      <use x="933.935547" xlink:href="#ArialMT-32"/>
      <use x="961.71875" xlink:href="#ArialMT-110"/>
      <use x="1017.333984" xlink:href="#ArialMT-111"/>
      <use x="1072.949219" xlink:href="#ArialMT-105"/>
      <use x="1095.166016" xlink:href="#ArialMT-115"/>
      <use x="1145.166016" xlink:href="#ArialMT-101"/>
     </g>
    </g>
   </g>
   <g id="matplotlib.axis_8"/>
   <g id="PathCollection_6">
    <g>
     <use style="fill:#11875d;stroke:#11875d;stroke-width:0.8;" x="136.538182" xlink:href="#m729693b098" y="133.2"/>
    </g>
   </g>
   <g id="PathCollection_7">
    <g>
     <use style="fill:#11875d;stroke:#11875d;stroke-width:0.8;" x="136.538182" xlink:href="#m729693b098" y="136.8"/>
    </g>
   </g>
   <g id="PathCollection_8">
    <g>
     <use style="fill:#11875d;stroke:#11875d;stroke-width:0.8;" x="136.538182" xlink:href="#m729693b098" y="140.4"/>
    </g>
   </g>
   <g id="PathCollection_9">
    <g>
     <use style="fill:#11875d;stroke:#11875d;stroke-width:0.8;" x="136.538196" xlink:href="#m729693b098" y="144"/>
    </g>
   </g>
   <g id="PathCollection_10">
    <g>
     <use style="fill:#11875d;stroke:#11875d;stroke-width:0.8;" x="136.538186" xlink:href="#m729693b098" y="147.6"/>
    </g>
   </g>
   <g id="PathCollection_11">
    <g>
     <use style="fill:#11875d;stroke:#11875d;stroke-width:0.8;" x="211.058339" xlink:href="#m729693b098" y="133.2"/>
    </g>
   </g>
   <g id="PathCollection_12">
    <g>
     <use style="fill:#11875d;stroke:#11875d;stroke-width:0.8;" x="216.778418" xlink:href="#m729693b098" y="136.8"/>
    </g>
   </g>
   <g id="PathCollection_13">
    <g>
     <use style="fill:#11875d;stroke:#11875d;stroke-width:0.8;" x="220.083134" xlink:href="#m729693b098" y="140.4"/>
    </g>
   </g>
   <g id="PathCollection_14">
    <g>
     <use style="fill:#11875d;stroke:#11875d;stroke-width:0.8;" x="236.371379" xlink:href="#m729693b098" y="144"/>
    </g>
   </g>
   <g id="PathCollection_15">
    <g>
     <use style="fill:#11875d;stroke:#11875d;stroke-width:0.8;" x="208.200623" xlink:href="#m729693b098" y="147.6"/>
    </g>
   </g>
   <g id="line2d_49">
    <path d="M 136.538182 133.2 
L 136.538302 133.2 
" style="fill:none;stroke:#11875d;stroke-linecap:round;stroke-width:1.6;"/>
   </g>
   <g id="line2d_50">
    <path d="M 136.538182 133.2 
L 136.545957 133.2 
" style="fill:none;stroke:#11875d;stroke-linecap:round;stroke-width:0.8;"/>
   </g>
   <g id="line2d_51">
    <path d="M 136.538182 136.8 
L 136.538194 136.8 
" style="fill:none;stroke:#11875d;stroke-linecap:round;stroke-width:1.6;"/>
   </g>
   <g id="line2d_52">
    <path d="M 136.538182 136.8 
L 136.54062 136.8 
" style="fill:none;stroke:#11875d;stroke-linecap:round;stroke-width:0.8;"/>
   </g>
   <g id="line2d_53">
    <path d="M 136.538182 140.4 
L 136.539956 140.4 
" style="fill:none;stroke:#11875d;stroke-linecap:round;stroke-width:1.6;"/>
   </g>
   <g id="line2d_54">
    <path d="M 136.538182 140.4 
L 150.601257 140.4 
" style="fill:none;stroke:#11875d;stroke-linecap:round;stroke-width:0.8;"/>
   </g>
   <g id="line2d_55">
    <path d="M 136.538182 144 
L 154.692904 144 
" style="fill:none;stroke:#11875d;stroke-linecap:round;stroke-width:1.6;"/>
   </g>
   <g id="line2d_56">
    <path d="M 136.538182 144 
L 164.695858 144 
" style="fill:none;stroke:#11875d;stroke-linecap:round;stroke-width:0.8;"/>
   </g>
   <g id="line2d_57">
    <path d="M 136.538184 147.6 
L 136.538189 147.6 
" style="fill:none;stroke:#11875d;stroke-linecap:round;stroke-width:1.6;"/>
   </g>
   <g id="line2d_58">
    <path d="M 136.538183 147.6 
L 145.176356 147.6 
" style="fill:none;stroke:#11875d;stroke-linecap:round;stroke-width:0.8;"/>
   </g>
   <g id="line2d_59">
    <path d="M 208.48027 133.2 
L 213.571056 133.2 
" style="fill:none;stroke:#11875d;stroke-linecap:round;stroke-width:1.6;"/>
   </g>
   <g id="line2d_60">
    <path d="M 205.73851 133.2 
L 216.119577 133.2 
" style="fill:none;stroke:#11875d;stroke-linecap:round;stroke-width:0.8;"/>
   </g>
   <g id="line2d_61">
    <path d="M 213.703234 136.8 
L 219.896249 136.8 
" style="fill:none;stroke:#11875d;stroke-linecap:round;stroke-width:1.6;"/>
   </g>
   <g id="line2d_62">
    <path d="M 210.759052 136.8 
L 222.709107 136.8 
" style="fill:none;stroke:#11875d;stroke-linecap:round;stroke-width:0.8;"/>
   </g>
   <g id="line2d_63">
    <path d="M 216.646303 140.4 
L 222.777559 140.4 
" style="fill:none;stroke:#11875d;stroke-linecap:round;stroke-width:1.6;"/>
   </g>
   <g id="line2d_64">
    <path d="M 213.134123 140.4 
L 225.827896 140.4 
" style="fill:none;stroke:#11875d;stroke-linecap:round;stroke-width:0.8;"/>
   </g>
   <g id="line2d_65">
    <path d="M 227.700253 144 
L 239.588901 144 
" style="fill:none;stroke:#11875d;stroke-linecap:round;stroke-width:1.6;"/>
   </g>
   <g id="line2d_66">
    <path d="M 218.137294 144 
L 242.884021 144 
" style="fill:none;stroke:#11875d;stroke-linecap:round;stroke-width:0.8;"/>
   </g>
   <g id="line2d_67">
    <path d="M 205.335126 147.6 
L 210.308414 147.6 
" style="fill:none;stroke:#11875d;stroke-linecap:round;stroke-width:1.6;"/>
   </g>
   <g id="line2d_68">
    <path d="M 202.285289 147.6 
L 212.768633 147.6 
" style="fill:none;stroke:#11875d;stroke-linecap:round;stroke-width:0.8;"/>
   </g>
   <g id="patch_11">
    <path d="M 136.538182 151.2 
L 241.92 151.2 
" style="fill:none;stroke:#262626;stroke-linecap:square;stroke-linejoin:miter;"/>
   </g>
   <g id="text_32">
    <!-- Time-dep. -->
    <g style="fill:#11875d;" transform="translate(140.050909 134.751094)scale(0.06 -0.06)">
     <use xlink:href="#ArialMT-84"/>
     <use x="61.037109" xlink:href="#ArialMT-105"/>
     <use x="83.253906" xlink:href="#ArialMT-109"/>
     <use x="166.554688" xlink:href="#ArialMT-101"/>
     <use x="222.169922" xlink:href="#ArialMT-45"/>
     <use x="255.470703" xlink:href="#ArialMT-100"/>
     <use x="311.085938" xlink:href="#ArialMT-101"/>
     <use x="366.701172" xlink:href="#ArialMT-112"/>
     <use x="422.316406" xlink:href="#ArialMT-46"/>
    </g>
   </g>
   <g id="text_33">
    <!-- Stim-dep. -->
    <defs>
     <path d="M 4.5 23 
L 13.421875 23.78125 
Q 14.0625 18.40625 16.375 14.96875 
Q 18.703125 11.53125 23.578125 9.40625 
Q 28.46875 7.28125 34.578125 7.28125 
Q 39.984375 7.28125 44.140625 8.890625 
Q 48.296875 10.5 50.3125 13.296875 
Q 52.34375 16.109375 52.34375 19.4375 
Q 52.34375 22.796875 50.390625 25.3125 
Q 48.4375 27.828125 43.953125 29.546875 
Q 41.0625 30.671875 31.203125 33.03125 
Q 21.34375 35.40625 17.390625 37.5 
Q 12.25 40.1875 9.734375 44.15625 
Q 7.234375 48.140625 7.234375 53.078125 
Q 7.234375 58.5 10.296875 63.203125 
Q 13.375 67.921875 19.28125 70.359375 
Q 25.203125 72.796875 32.421875 72.796875 
Q 40.375 72.796875 46.453125 70.234375 
Q 52.546875 67.671875 55.8125 62.6875 
Q 59.078125 57.71875 59.328125 51.421875 
L 50.25 50.734375 
Q 49.515625 57.515625 45.28125 60.984375 
Q 41.0625 64.453125 32.8125 64.453125 
Q 24.21875 64.453125 20.28125 61.296875 
Q 16.359375 58.15625 16.359375 53.71875 
Q 16.359375 49.859375 19.140625 47.359375 
Q 21.875 44.875 33.421875 42.265625 
Q 44.96875 39.65625 49.265625 37.703125 
Q 55.515625 34.8125 58.484375 30.390625 
Q 61.46875 25.984375 61.46875 20.21875 
Q 61.46875 14.5 58.203125 9.4375 
Q 54.9375 4.390625 48.796875 1.578125 
Q 42.671875 -1.21875 35.015625 -1.21875 
Q 25.296875 -1.21875 18.71875 1.609375 
Q 12.15625 4.4375 8.421875 10.125 
Q 4.6875 15.828125 4.5 23 
z
" id="ArialMT-83"/>
    </defs>
    <g style="fill:#11875d;" transform="translate(222.6 134.787656)scale(0.06 -0.06)">
     <use xlink:href="#ArialMT-83"/>
     <use x="66.699219" xlink:href="#ArialMT-116"/>
     <use x="94.482422" xlink:href="#ArialMT-105"/>
     <use x="116.699219" xlink:href="#ArialMT-109"/>
     <use x="200" xlink:href="#ArialMT-45"/>
     <use x="233.300781" xlink:href="#ArialMT-100"/>
     <use x="288.916016" xlink:href="#ArialMT-101"/>
     <use x="344.53125" xlink:href="#ArialMT-112"/>
     <use x="400.146484" xlink:href="#ArialMT-46"/>
    </g>
   </g>
  </g>
 </g>
 <defs>
  <clipPath id="pd32e30c011">
   <rect height="95.4" width="81.76" x="30.24" y="1.8"/>
  </clipPath>
  <clipPath id="p3e8935edbb">
   <rect height="95.4" width="81.76" x="132.44" y="1.8"/>
  </clipPath>
 </defs>
</svg>
