<?xml version="1.0" encoding="utf-8" standalone="no"?>
<!DOCTYPE svg PUBLIC "-//W3C//DTD SVG 1.1//EN"
  "http://www.w3.org/Graphics/SVG/1.1/DTD/svg11.dtd">
<!-- Created with matplotlib (https://matplotlib.org/) -->
<svg height="201.6pt" version="1.1" viewBox="0 0 216 201.6" width="216pt" xmlns="http://www.w3.org/2000/svg" xmlns:xlink="http://www.w3.org/1999/xlink">
 <defs>
  <style type="text/css">
*{stroke-linecap:butt;stroke-linejoin:round;white-space:pre;}
  </style>
 </defs>
 <g id="figure_1">
  <g id="patch_1">
   <path d="M 0 201.6 
L 216 201.6 
L 216 0 
L 0 0 
z
" style="fill:#ffffff;"/>
  </g>
  <g id="axes_1">
   <g id="patch_2">
    <path d="M 37.29759 55.792068 
L 206.757623 55.792068 
L 206.757623 5.09184 
L 37.29759 5.09184 
z
" style="fill:#ffffff;"/>
   </g>
   <g id="matplotlib.axis_1">
    <g id="xtick_1">
     <g id="line2d_1">
      <defs>
       <path d="M 0 0 
L 0 4.8 
" id="me62819cded" style="stroke:#262626;"/>
      </defs>
      <g>
       <use style="fill:#262626;stroke:#262626;" x="39.364176" xlink:href="#me62819cded" y="55.792068"/>
      </g>
     </g>
     <g id="text_1">
      <!-- 0 -->
      <defs>
       <path d="M 4.15625 35.296875 
Q 4.15625 48 6.765625 55.734375 
Q 9.375 63.484375 14.515625 67.671875 
Q 19.671875 71.875 27.484375 71.875 
Q 33.25 71.875 37.59375 69.546875 
Q 41.9375 67.234375 44.765625 62.859375 
Q 47.609375 58.5 49.21875 52.21875 
Q 50.828125 45.953125 50.828125 35.296875 
Q 50.828125 22.703125 48.234375 14.96875 
Q 45.65625 7.234375 40.5 3 
Q 35.359375 -1.21875 27.484375 -1.21875 
Q 17.140625 -1.21875 11.234375 6.203125 
Q 4.15625 15.140625 4.15625 35.296875 
z
M 13.1875 35.296875 
Q 13.1875 17.671875 17.3125 11.828125 
Q 21.4375 6 27.484375 6 
Q 33.546875 6 37.671875 11.859375 
Q 41.796875 17.71875 41.796875 35.296875 
Q 41.796875 52.984375 37.671875 58.78125 
Q 33.546875 64.59375 27.390625 64.59375 
Q 21.34375 64.59375 17.71875 59.46875 
Q 13.1875 52.9375 13.1875 35.296875 
z
" id="ArialMT-48"/>
      </defs>
      <g style="fill:#262626;" transform="translate(37.210981 69.635078)scale(0.07744 -0.07744)">
       <use xlink:href="#ArialMT-48"/>
      </g>
     </g>
    </g>
    <g id="xtick_2">
     <g id="line2d_2">
      <g>
       <use style="fill:#262626;stroke:#262626;" x="80.695891" xlink:href="#me62819cded" y="55.792068"/>
      </g>
     </g>
     <g id="text_2">
      <!-- 200 -->
      <defs>
       <path d="M 50.34375 8.453125 
L 50.34375 0 
L 3.03125 0 
Q 2.9375 3.171875 4.046875 6.109375 
Q 5.859375 10.9375 9.828125 15.625 
Q 13.8125 20.3125 21.34375 26.46875 
Q 33.015625 36.03125 37.109375 41.625 
Q 41.21875 47.21875 41.21875 52.203125 
Q 41.21875 57.421875 37.46875 61 
Q 33.734375 64.59375 27.734375 64.59375 
Q 21.390625 64.59375 17.578125 60.78125 
Q 13.765625 56.984375 13.71875 50.25 
L 4.6875 51.171875 
Q 5.609375 61.28125 11.65625 66.578125 
Q 17.71875 71.875 27.9375 71.875 
Q 38.234375 71.875 44.234375 66.15625 
Q 50.25 60.453125 50.25 52 
Q 50.25 47.703125 48.484375 43.546875 
Q 46.734375 39.40625 42.65625 34.8125 
Q 38.578125 30.21875 29.109375 22.21875 
Q 21.1875 15.578125 18.9375 13.203125 
Q 16.703125 10.84375 15.234375 8.453125 
z
" id="ArialMT-50"/>
      </defs>
      <g style="fill:#262626;" transform="translate(74.236306 69.635078)scale(0.07744 -0.07744)">
       <use xlink:href="#ArialMT-50"/>
       <use x="55.615234" xlink:href="#ArialMT-48"/>
       <use x="111.230469" xlink:href="#ArialMT-48"/>
      </g>
     </g>
    </g>
    <g id="xtick_3">
     <g id="line2d_3">
      <g>
       <use style="fill:#262626;stroke:#262626;" x="122.027607" xlink:href="#me62819cded" y="55.792068"/>
      </g>
     </g>
     <g id="text_3">
      <!-- 400 -->
      <defs>
       <path d="M 32.328125 0 
L 32.328125 17.140625 
L 1.265625 17.140625 
L 1.265625 25.203125 
L 33.9375 71.578125 
L 41.109375 71.578125 
L 41.109375 25.203125 
L 50.78125 25.203125 
L 50.78125 17.140625 
L 41.109375 17.140625 
L 41.109375 0 
z
M 32.328125 25.203125 
L 32.328125 57.46875 
L 9.90625 25.203125 
z
" id="ArialMT-52"/>
      </defs>
      <g style="fill:#262626;" transform="translate(115.568022 69.635078)scale(0.07744 -0.07744)">
       <use xlink:href="#ArialMT-52"/>
       <use x="55.615234" xlink:href="#ArialMT-48"/>
       <use x="111.230469" xlink:href="#ArialMT-48"/>
      </g>
     </g>
    </g>
    <g id="xtick_4">
     <g id="line2d_4">
      <g>
       <use style="fill:#262626;stroke:#262626;" x="163.359322" xlink:href="#me62819cded" y="55.792068"/>
      </g>
     </g>
     <g id="text_4">
      <!-- 600 -->
      <defs>
       <path d="M 49.75 54.046875 
L 41.015625 53.375 
Q 39.84375 58.546875 37.703125 60.890625 
Q 34.125 64.65625 28.90625 64.65625 
Q 24.703125 64.65625 21.53125 62.3125 
Q 17.390625 59.28125 14.984375 53.46875 
Q 12.59375 47.65625 12.5 36.921875 
Q 15.671875 41.75 20.265625 44.09375 
Q 24.859375 46.4375 29.890625 46.4375 
Q 38.671875 46.4375 44.84375 39.96875 
Q 51.03125 33.5 51.03125 23.25 
Q 51.03125 16.5 48.125 10.71875 
Q 45.21875 4.9375 40.140625 1.859375 
Q 35.0625 -1.21875 28.609375 -1.21875 
Q 17.625 -1.21875 10.6875 6.859375 
Q 3.765625 14.9375 3.765625 33.5 
Q 3.765625 54.25 11.421875 63.671875 
Q 18.109375 71.875 29.4375 71.875 
Q 37.890625 71.875 43.28125 67.140625 
Q 48.6875 62.40625 49.75 54.046875 
z
M 13.875 23.1875 
Q 13.875 18.65625 15.796875 14.5 
Q 17.71875 10.359375 21.1875 8.171875 
Q 24.65625 6 28.46875 6 
Q 34.03125 6 38.03125 10.484375 
Q 42.046875 14.984375 42.046875 22.703125 
Q 42.046875 30.125 38.078125 34.390625 
Q 34.125 38.671875 28.125 38.671875 
Q 22.171875 38.671875 18.015625 34.390625 
Q 13.875 30.125 13.875 23.1875 
z
" id="ArialMT-54"/>
      </defs>
      <g style="fill:#262626;" transform="translate(156.899737 69.635078)scale(0.07744 -0.07744)">
       <use xlink:href="#ArialMT-54"/>
       <use x="55.615234" xlink:href="#ArialMT-48"/>
       <use x="111.230469" xlink:href="#ArialMT-48"/>
      </g>
     </g>
    </g>
    <g id="xtick_5">
     <g id="line2d_5">
      <g>
       <use style="fill:#262626;stroke:#262626;" x="204.691038" xlink:href="#me62819cded" y="55.792068"/>
      </g>
     </g>
     <g id="text_5">
      <!-- 800 -->
      <defs>
       <path d="M 17.671875 38.8125 
Q 12.203125 40.828125 9.5625 44.53125 
Q 6.9375 48.25 6.9375 53.421875 
Q 6.9375 61.234375 12.546875 66.546875 
Q 18.171875 71.875 27.484375 71.875 
Q 36.859375 71.875 42.578125 66.421875 
Q 48.296875 60.984375 48.296875 53.171875 
Q 48.296875 48.1875 45.671875 44.5 
Q 43.0625 40.828125 37.75 38.8125 
Q 44.34375 36.671875 47.78125 31.875 
Q 51.21875 27.09375 51.21875 20.453125 
Q 51.21875 11.28125 44.71875 5.03125 
Q 38.234375 -1.21875 27.640625 -1.21875 
Q 17.046875 -1.21875 10.546875 5.046875 
Q 4.046875 11.328125 4.046875 20.703125 
Q 4.046875 27.6875 7.59375 32.390625 
Q 11.140625 37.109375 17.671875 38.8125 
z
M 15.921875 53.71875 
Q 15.921875 48.640625 19.1875 45.40625 
Q 22.46875 42.1875 27.6875 42.1875 
Q 32.765625 42.1875 36.015625 45.375 
Q 39.265625 48.578125 39.265625 53.21875 
Q 39.265625 58.0625 35.90625 61.359375 
Q 32.5625 64.65625 27.59375 64.65625 
Q 22.5625 64.65625 19.234375 61.421875 
Q 15.921875 58.203125 15.921875 53.71875 
z
M 13.09375 20.65625 
Q 13.09375 16.890625 14.875 13.375 
Q 16.65625 9.859375 20.171875 7.921875 
Q 23.6875 6 27.734375 6 
Q 34.03125 6 38.125 10.046875 
Q 42.234375 14.109375 42.234375 20.359375 
Q 42.234375 26.703125 38.015625 30.859375 
Q 33.796875 35.015625 27.4375 35.015625 
Q 21.234375 35.015625 17.15625 30.90625 
Q 13.09375 26.8125 13.09375 20.65625 
z
" id="ArialMT-56"/>
      </defs>
      <g style="fill:#262626;" transform="translate(198.231453 69.635078)scale(0.07744 -0.07744)">
       <use xlink:href="#ArialMT-56"/>
       <use x="55.615234" xlink:href="#ArialMT-48"/>
       <use x="111.230469" xlink:href="#ArialMT-48"/>
      </g>
     </g>
    </g>
    <g id="text_6">
     <!-- Trial number -->
     <defs>
      <path d="M 25.921875 0 
L 25.921875 63.140625 
L 2.34375 63.140625 
L 2.34375 71.578125 
L 59.078125 71.578125 
L 59.078125 63.140625 
L 35.40625 63.140625 
L 35.40625 0 
z
" id="ArialMT-84"/>
      <path d="M 6.5 0 
L 6.5 51.859375 
L 14.40625 51.859375 
L 14.40625 44 
Q 17.4375 49.515625 20 51.265625 
Q 22.5625 53.03125 25.640625 53.03125 
Q 30.078125 53.03125 34.671875 50.203125 
L 31.640625 42.046875 
Q 28.421875 43.953125 25.203125 43.953125 
Q 22.3125 43.953125 20.015625 42.21875 
Q 17.71875 40.484375 16.75 37.40625 
Q 15.28125 32.71875 15.28125 27.15625 
L 15.28125 0 
z
" id="ArialMT-114"/>
      <path d="M 6.640625 61.46875 
L 6.640625 71.578125 
L 15.4375 71.578125 
L 15.4375 61.46875 
z
M 6.640625 0 
L 6.640625 51.859375 
L 15.4375 51.859375 
L 15.4375 0 
z
" id="ArialMT-105"/>
      <path d="M 40.4375 6.390625 
Q 35.546875 2.25 31.03125 0.53125 
Q 26.515625 -1.171875 21.34375 -1.171875 
Q 12.796875 -1.171875 8.203125 3 
Q 3.609375 7.171875 3.609375 13.671875 
Q 3.609375 17.484375 5.34375 20.625 
Q 7.078125 23.78125 9.890625 25.6875 
Q 12.703125 27.59375 16.21875 28.5625 
Q 18.796875 29.25 24.03125 29.890625 
Q 34.671875 31.15625 39.703125 32.90625 
Q 39.75 34.71875 39.75 35.203125 
Q 39.75 40.578125 37.25 42.78125 
Q 33.890625 45.75 27.25 45.75 
Q 21.046875 45.75 18.09375 43.578125 
Q 15.140625 41.40625 13.71875 35.890625 
L 5.125 37.0625 
Q 6.296875 42.578125 8.984375 45.96875 
Q 11.671875 49.359375 16.75 51.1875 
Q 21.828125 53.03125 28.515625 53.03125 
Q 35.15625 53.03125 39.296875 51.46875 
Q 43.453125 49.90625 45.40625 47.53125 
Q 47.359375 45.171875 48.140625 41.546875 
Q 48.578125 39.3125 48.578125 33.453125 
L 48.578125 21.734375 
Q 48.578125 9.46875 49.140625 6.21875 
Q 49.703125 2.984375 51.375 0 
L 42.1875 0 
Q 40.828125 2.734375 40.4375 6.390625 
z
M 39.703125 26.03125 
Q 34.90625 24.078125 25.34375 22.703125 
Q 19.921875 21.921875 17.671875 20.9375 
Q 15.4375 19.96875 14.203125 18.09375 
Q 12.984375 16.21875 12.984375 13.921875 
Q 12.984375 10.40625 15.640625 8.0625 
Q 18.3125 5.71875 23.4375 5.71875 
Q 28.515625 5.71875 32.46875 7.9375 
Q 36.421875 10.15625 38.28125 14.015625 
Q 39.703125 17 39.703125 22.796875 
z
" id="ArialMT-97"/>
      <path d="M 6.390625 0 
L 6.390625 71.578125 
L 15.1875 71.578125 
L 15.1875 0 
z
" id="ArialMT-108"/>
      <path id="ArialMT-32"/>
      <path d="M 6.59375 0 
L 6.59375 51.859375 
L 14.5 51.859375 
L 14.5 44.484375 
Q 20.21875 53.03125 31 53.03125 
Q 35.6875 53.03125 39.625 51.34375 
Q 43.5625 49.65625 45.515625 46.921875 
Q 47.46875 44.1875 48.25 40.4375 
Q 48.734375 37.984375 48.734375 31.890625 
L 48.734375 0 
L 39.9375 0 
L 39.9375 31.546875 
Q 39.9375 36.921875 38.90625 39.578125 
Q 37.890625 42.234375 35.28125 43.8125 
Q 32.671875 45.40625 29.15625 45.40625 
Q 23.53125 45.40625 19.453125 41.84375 
Q 15.375 38.28125 15.375 28.328125 
L 15.375 0 
z
" id="ArialMT-110"/>
      <path d="M 40.578125 0 
L 40.578125 7.625 
Q 34.515625 -1.171875 24.125 -1.171875 
Q 19.53125 -1.171875 15.546875 0.578125 
Q 11.578125 2.34375 9.640625 5 
Q 7.71875 7.671875 6.9375 11.53125 
Q 6.390625 14.109375 6.390625 19.734375 
L 6.390625 51.859375 
L 15.1875 51.859375 
L 15.1875 23.09375 
Q 15.1875 16.21875 15.71875 13.8125 
Q 16.546875 10.359375 19.234375 8.375 
Q 21.921875 6.390625 25.875 6.390625 
Q 29.828125 6.390625 33.296875 8.421875 
Q 36.765625 10.453125 38.203125 13.9375 
Q 39.65625 17.4375 39.65625 24.078125 
L 39.65625 51.859375 
L 48.4375 51.859375 
L 48.4375 0 
z
" id="ArialMT-117"/>
      <path d="M 6.59375 0 
L 6.59375 51.859375 
L 14.453125 51.859375 
L 14.453125 44.578125 
Q 16.890625 48.390625 20.9375 50.703125 
Q 25 53.03125 30.171875 53.03125 
Q 35.9375 53.03125 39.625 50.640625 
Q 43.3125 48.25 44.828125 43.953125 
Q 50.984375 53.03125 60.84375 53.03125 
Q 68.5625 53.03125 72.703125 48.75 
Q 76.859375 44.484375 76.859375 35.59375 
L 76.859375 0 
L 68.109375 0 
L 68.109375 32.671875 
Q 68.109375 37.9375 67.25 40.25 
Q 66.40625 42.578125 64.15625 43.984375 
Q 61.921875 45.40625 58.890625 45.40625 
Q 53.421875 45.40625 49.796875 41.765625 
Q 46.1875 38.140625 46.1875 30.125 
L 46.1875 0 
L 37.40625 0 
L 37.40625 33.6875 
Q 37.40625 39.546875 35.25 42.46875 
Q 33.109375 45.40625 28.21875 45.40625 
Q 24.515625 45.40625 21.359375 43.453125 
Q 18.21875 41.5 16.796875 37.734375 
Q 15.375 33.984375 15.375 26.90625 
L 15.375 0 
z
" id="ArialMT-109"/>
      <path d="M 14.703125 0 
L 6.546875 0 
L 6.546875 71.578125 
L 15.328125 71.578125 
L 15.328125 46.046875 
Q 20.90625 53.03125 29.546875 53.03125 
Q 34.328125 53.03125 38.59375 51.09375 
Q 42.875 49.171875 45.625 45.671875 
Q 48.390625 42.1875 49.953125 37.25 
Q 51.515625 32.328125 51.515625 26.703125 
Q 51.515625 13.375 44.921875 6.09375 
Q 38.328125 -1.171875 29.109375 -1.171875 
Q 19.921875 -1.171875 14.703125 6.5 
z
M 14.59375 26.3125 
Q 14.59375 17 17.140625 12.84375 
Q 21.296875 6.0625 28.375 6.0625 
Q 34.125 6.0625 38.328125 11.0625 
Q 42.53125 16.0625 42.53125 25.984375 
Q 42.53125 36.140625 38.5 40.96875 
Q 34.46875 45.796875 28.765625 45.796875 
Q 23 45.796875 18.796875 40.796875 
Q 14.59375 35.796875 14.59375 26.3125 
z
" id="ArialMT-98"/>
      <path d="M 42.09375 16.703125 
L 51.171875 15.578125 
Q 49.03125 7.625 43.21875 3.21875 
Q 37.40625 -1.171875 28.375 -1.171875 
Q 17 -1.171875 10.328125 5.828125 
Q 3.65625 12.84375 3.65625 25.484375 
Q 3.65625 38.578125 10.390625 45.796875 
Q 17.140625 53.03125 27.875 53.03125 
Q 38.28125 53.03125 44.875 45.953125 
Q 51.46875 38.875 51.46875 26.03125 
Q 51.46875 25.25 51.421875 23.6875 
L 12.75 23.6875 
Q 13.234375 15.140625 17.578125 10.59375 
Q 21.921875 6.0625 28.421875 6.0625 
Q 33.25 6.0625 36.671875 8.59375 
Q 40.09375 11.140625 42.09375 16.703125 
z
M 13.234375 30.90625 
L 42.1875 30.90625 
Q 41.609375 37.453125 38.875 40.71875 
Q 34.671875 45.796875 27.984375 45.796875 
Q 21.921875 45.796875 17.796875 41.75 
Q 13.671875 37.703125 13.234375 30.90625 
z
" id="ArialMT-101"/>
     </defs>
     <g style="fill:#262626;" transform="translate(98.323047 81.221118)scale(0.08448 -0.08448)">
      <use xlink:href="#ArialMT-84"/>
      <use x="61.037109" xlink:href="#ArialMT-114"/>
      <use x="94.337891" xlink:href="#ArialMT-105"/>
      <use x="116.554688" xlink:href="#ArialMT-97"/>
      <use x="172.169922" xlink:href="#ArialMT-108"/>
      <use x="194.386719" xlink:href="#ArialMT-32"/>
      <use x="222.169922" xlink:href="#ArialMT-110"/>
      <use x="277.785156" xlink:href="#ArialMT-117"/>
      <use x="333.400391" xlink:href="#ArialMT-109"/>
      <use x="416.701172" xlink:href="#ArialMT-98"/>
      <use x="472.316406" xlink:href="#ArialMT-101"/>
      <use x="527.931641" xlink:href="#ArialMT-114"/>
     </g>
    </g>
   </g>
   <g id="matplotlib.axis_2">
    <g id="ytick_1">
     <g id="line2d_6">
      <defs>
       <path d="M 0 0 
L -4.8 0 
" id="m12233108f8" style="stroke:#262626;"/>
      </defs>
      <g>
       <use style="fill:#262626;stroke:#262626;" x="37.29759" xlink:href="#m12233108f8" y="47.890734"/>
      </g>
     </g>
     <g id="text_7">
      <!-- 0.2 -->
      <defs>
       <path d="M 9.078125 0 
L 9.078125 10.015625 
L 19.09375 10.015625 
L 19.09375 0 
z
" id="ArialMT-46"/>
      </defs>
      <g style="fill:#262626;" transform="translate(18.23343 50.662239)scale(0.07744 -0.07744)">
       <use xlink:href="#ArialMT-48"/>
       <use x="55.615234" xlink:href="#ArialMT-46"/>
       <use x="83.398438" xlink:href="#ArialMT-50"/>
      </g>
     </g>
    </g>
    <g id="ytick_2">
     <g id="line2d_7">
      <g>
       <use style="fill:#262626;stroke:#262626;" x="37.29759" xlink:href="#m12233108f8" y="28.137398"/>
      </g>
     </g>
     <g id="text_8">
      <!-- 0.5 -->
      <defs>
       <path d="M 4.15625 18.75 
L 13.375 19.53125 
Q 14.40625 12.796875 18.140625 9.390625 
Q 21.875 6 27.15625 6 
Q 33.5 6 37.890625 10.78125 
Q 42.28125 15.578125 42.28125 23.484375 
Q 42.28125 31 38.0625 35.34375 
Q 33.84375 39.703125 27 39.703125 
Q 22.75 39.703125 19.328125 37.765625 
Q 15.921875 35.84375 13.96875 32.765625 
L 5.71875 33.84375 
L 12.640625 70.609375 
L 48.25 70.609375 
L 48.25 62.203125 
L 19.671875 62.203125 
L 15.828125 42.96875 
Q 22.265625 47.46875 29.34375 47.46875 
Q 38.71875 47.46875 45.15625 40.96875 
Q 51.609375 34.46875 51.609375 24.265625 
Q 51.609375 14.546875 45.953125 7.46875 
Q 39.0625 -1.21875 27.15625 -1.21875 
Q 17.390625 -1.21875 11.203125 4.25 
Q 5.03125 9.71875 4.15625 18.75 
z
" id="ArialMT-53"/>
      </defs>
      <g style="fill:#262626;" transform="translate(18.23343 30.908903)scale(0.07744 -0.07744)">
       <use xlink:href="#ArialMT-48"/>
       <use x="55.615234" xlink:href="#ArialMT-46"/>
       <use x="83.398438" xlink:href="#ArialMT-53"/>
      </g>
     </g>
    </g>
    <g id="ytick_3">
     <g id="line2d_8">
      <g>
       <use style="fill:#262626;stroke:#262626;" x="37.29759" xlink:href="#m12233108f8" y="8.384063"/>
      </g>
     </g>
     <g id="text_9">
      <!-- 0.8 -->
      <g style="fill:#262626;" transform="translate(18.23343 11.155568)scale(0.07744 -0.07744)">
       <use xlink:href="#ArialMT-48"/>
       <use x="55.615234" xlink:href="#ArialMT-46"/>
       <use x="83.398438" xlink:href="#ArialMT-56"/>
      </g>
     </g>
    </g>
    <g id="text_10">
     <!-- P(color rule) -->
     <defs>
      <path d="M 7.71875 0 
L 7.71875 71.578125 
L 34.71875 71.578125 
Q 41.84375 71.578125 45.609375 70.90625 
Q 50.875 70.015625 54.4375 67.546875 
Q 58.015625 65.09375 60.1875 60.640625 
Q 62.359375 56.203125 62.359375 50.875 
Q 62.359375 41.75 56.546875 35.421875 
Q 50.734375 29.109375 35.546875 29.109375 
L 17.1875 29.109375 
L 17.1875 0 
z
M 17.1875 37.546875 
L 35.6875 37.546875 
Q 44.875 37.546875 48.734375 40.96875 
Q 52.59375 44.390625 52.59375 50.59375 
Q 52.59375 55.078125 50.3125 58.265625 
Q 48.046875 61.46875 44.34375 62.5 
Q 41.9375 63.140625 35.5 63.140625 
L 17.1875 63.140625 
z
" id="ArialMT-80"/>
      <path d="M 23.390625 -21.046875 
Q 16.109375 -11.859375 11.078125 0.4375 
Q 6.0625 12.75 6.0625 25.921875 
Q 6.0625 37.546875 9.8125 48.1875 
Q 14.203125 60.546875 23.390625 72.796875 
L 29.6875 72.796875 
Q 23.78125 62.640625 21.875 58.296875 
Q 18.890625 51.5625 17.1875 44.234375 
Q 15.09375 35.109375 15.09375 25.875 
Q 15.09375 2.390625 29.6875 -21.046875 
z
" id="ArialMT-40"/>
      <path d="M 40.4375 19 
L 49.078125 17.875 
Q 47.65625 8.9375 41.8125 3.875 
Q 35.984375 -1.171875 27.484375 -1.171875 
Q 16.84375 -1.171875 10.375 5.78125 
Q 3.90625 12.75 3.90625 25.734375 
Q 3.90625 34.125 6.6875 40.421875 
Q 9.46875 46.734375 15.15625 49.875 
Q 20.84375 53.03125 27.546875 53.03125 
Q 35.984375 53.03125 41.359375 48.75 
Q 46.734375 44.484375 48.25 36.625 
L 39.703125 35.296875 
Q 38.484375 40.53125 35.375 43.15625 
Q 32.28125 45.796875 27.875 45.796875 
Q 21.234375 45.796875 17.078125 41.03125 
Q 12.9375 36.28125 12.9375 25.984375 
Q 12.9375 15.53125 16.9375 10.796875 
Q 20.953125 6.0625 27.390625 6.0625 
Q 32.5625 6.0625 36.03125 9.234375 
Q 39.5 12.40625 40.4375 19 
z
" id="ArialMT-99"/>
      <path d="M 3.328125 25.921875 
Q 3.328125 40.328125 11.328125 47.265625 
Q 18.015625 53.03125 27.640625 53.03125 
Q 38.328125 53.03125 45.109375 46.015625 
Q 51.90625 39.015625 51.90625 26.65625 
Q 51.90625 16.65625 48.90625 10.90625 
Q 45.90625 5.171875 40.15625 2 
Q 34.421875 -1.171875 27.640625 -1.171875 
Q 16.75 -1.171875 10.03125 5.8125 
Q 3.328125 12.796875 3.328125 25.921875 
z
M 12.359375 25.921875 
Q 12.359375 15.96875 16.703125 11.015625 
Q 21.046875 6.0625 27.640625 6.0625 
Q 34.1875 6.0625 38.53125 11.03125 
Q 42.875 16.015625 42.875 26.21875 
Q 42.875 35.84375 38.5 40.796875 
Q 34.125 45.75 27.640625 45.75 
Q 21.046875 45.75 16.703125 40.8125 
Q 12.359375 35.890625 12.359375 25.921875 
z
" id="ArialMT-111"/>
      <path d="M 12.359375 -21.046875 
L 6.0625 -21.046875 
Q 20.65625 2.390625 20.65625 25.875 
Q 20.65625 35.0625 18.5625 44.09375 
Q 16.890625 51.421875 13.921875 58.15625 
Q 12.015625 62.546875 6.0625 72.796875 
L 12.359375 72.796875 
Q 21.53125 60.546875 25.921875 48.1875 
Q 29.6875 37.546875 29.6875 25.921875 
Q 29.6875 12.75 24.625 0.4375 
Q 19.578125 -11.859375 12.359375 -21.046875 
z
" id="ArialMT-41"/>
     </defs>
     <g style="fill:#262626;" transform="translate(12.45539 53.443614)rotate(-90)scale(0.08448 -0.08448)">
      <use xlink:href="#ArialMT-80"/>
      <use x="66.699219" xlink:href="#ArialMT-40"/>
      <use x="100" xlink:href="#ArialMT-99"/>
      <use x="150" xlink:href="#ArialMT-111"/>
      <use x="205.615234" xlink:href="#ArialMT-108"/>
      <use x="227.832031" xlink:href="#ArialMT-111"/>
      <use x="283.447266" xlink:href="#ArialMT-114"/>
      <use x="316.748047" xlink:href="#ArialMT-32"/>
      <use x="344.53125" xlink:href="#ArialMT-114"/>
      <use x="377.832031" xlink:href="#ArialMT-117"/>
      <use x="433.447266" xlink:href="#ArialMT-108"/>
      <use x="455.664062" xlink:href="#ArialMT-101"/>
      <use x="511.279297" xlink:href="#ArialMT-41"/>
     </g>
    </g>
   </g>
   <g id="line2d_9">
    <path clip-path="url(#p3a650c973c)" d="M 39.364176 28.137398 
L 63.956546 28.137398 
L 64.163205 39.111474 
L 76.356061 39.111474 
L 76.56272 8.384063 
L 101.15509 8.384063 
L 101.361749 17.163323 
L 113.554605 17.163323 
L 113.761264 47.890734 
L 138.353634 47.890734 
L 138.560293 17.163323 
L 163.152664 17.163323 
L 163.359322 28.137398 
L 175.552178 28.137398 
L 175.758837 8.384063 
L 187.951693 8.384063 
L 188.158351 47.890734 
L 200.351208 47.890734 
L 200.557866 39.111474 
L 204.691038 39.111474 
L 204.691038 39.111474 
" style="fill:none;stroke:#999999;stroke-dasharray:2,1;stroke-dashoffset:0;"/>
   </g>
   <g id="line2d_10">
    <path clip-path="url(#p3a650c973c)" d="M 39.364176 31.002009 
L 39.570834 24.211071 
L 39.777493 31.036379 
L 40.19081 21.158843 
L 40.604127 18.082115 
L 40.810786 27.558465 
L 41.017444 22.259201 
L 41.224103 29.448684 
L 41.63742 20.510826 
L 42.050737 17.803217 
L 42.257396 17.016351 
L 42.670713 31.365846 
L 43.08403 36.786686 
L 43.290689 26.456373 
L 43.497347 21.747754 
L 43.704006 29.792166 
L 43.910664 23.369085 
L 44.117323 30.324209 
L 44.323982 23.798212 
L 44.737299 33.88178 
L 44.943957 25.687957 
L 45.150616 21.933114 
L 45.357275 29.187469 
L 45.563933 23.698046 
L 45.770592 29.755613 
L 46.183909 21.501476 
L 46.597226 31.785326 
L 47.010543 35.86802 
L 47.217202 27.085742 
L 47.42386 23.075111 
L 47.837177 33.189914 
L 48.043836 35.294697 
L 48.457153 23.257335 
L 48.87047 19.760535 
L 49.283787 32.420658 
L 49.490446 25.371792 
L 49.697105 30.816857 
L 50.110422 22.156845 
L 50.31708 20.554565 
L 50.730398 31.806242 
L 51.143715 35.723305 
L 51.350373 36.896423 
L 51.557032 27.395524 
L 51.970349 20.771844 
L 52.177008 29.34193 
L 52.383666 23.86117 
L 52.796983 33.692082 
L 53.2103 36.867944 
L 53.416959 37.768791 
L 53.830276 23.062586 
L 54.036935 20.558273 
L 54.243593 29.94348 
L 54.450252 34.133888 
L 54.65691 25.985956 
L 54.863569 32.158653 
L 55.276886 22.102707 
L 55.483545 30.093091 
L 55.690203 24.503897 
L 56.103521 33.880221 
L 56.516838 36.736497 
L 56.723496 27.758033 
L 57.136813 35.358651 
L 57.550131 37.608341 
L 57.756789 38.252627 
L 58.170106 24.066465 
L 58.376765 21.278458 
L 58.583423 30.765623 
L 58.790082 24.714991 
L 58.996741 31.954888 
L 59.410058 22.240123 
L 59.616716 30.625674 
L 60.030034 21.950071 
L 60.236692 20.196917 
L 60.443351 29.496921 
L 60.650009 23.979386 
L 61.063326 34.096164 
L 61.476644 36.974332 
L 61.683302 27.63949 
L 62.096619 35.538042 
L 62.509936 37.733382 
L 62.716595 38.323795 
L 63.129912 23.739178 
L 63.336571 31.932241 
L 63.543229 25.539889 
L 63.749888 32.422134 
L 64.163205 36.878101 
L 64.369864 37.741358 
L 64.576522 28.888421 
L 64.783181 34.087221 
L 65.196498 37.519134 
L 65.403157 38.225028 
L 65.609815 29.893196 
L 65.816474 34.777863 
L 66.229791 37.959333 
L 66.436449 30.600158 
L 66.643108 35.13427 
L 66.849767 37.073471 
L 67.056425 30.799974 
L 67.263084 35.100711 
L 67.676401 26.386872 
L 67.883059 32.962013 
L 68.296377 36.778919 
L 68.503035 31.143525 
L 68.709694 34.80029 
L 69.123011 37.291739 
L 69.536328 38.455537 
L 69.949645 29.643242 
L 70.156304 34.628677 
L 70.569621 37.557767 
L 70.77628 33.154248 
L 70.982938 35.996852 
L 71.189597 37.269083 
L 71.396255 33.553717 
L 71.602914 36.093481 
L 72.016231 38.000305 
L 72.22289 38.598128 
L 72.429548 35.358606 
L 72.842865 38.233634 
L 73.6695 40.640507 
L 73.876158 41.211544 
L 74.496134 33.251761 
L 74.702792 36.801697 
L 74.909451 38.154869 
L 75.529427 30.367598 
L 75.736085 34.794141 
L 76.56272 24.31497 
L 76.769378 31.606178 
L 77.182695 24.686965 
L 77.596013 20.671958 
L 77.802671 19.243642 
L 78.00933 28.939073 
L 78.422647 20.826462 
L 78.835964 17.761552 
L 79.042623 27.764069 
L 79.45594 19.395158 
L 79.869257 16.639566 
L 80.695891 13.605255 
L 81.729184 9.925125 
L 81.935843 19.359254 
L 82.34916 12.756007 
L 82.555818 11.421058 
L 82.969136 26.472957 
L 83.175794 19.588589 
L 83.382453 16.421339 
L 83.589111 23.59633 
L 84.002428 16.285256 
L 84.415746 13.607417 
L 85.24238 10.30394 
L 86.069014 7.798338 
L 86.275673 7.275393 
L 86.482331 12.649658 
L 86.895649 9.839886 
L 87.102307 14.804095 
L 87.515624 11.511831 
L 87.722283 10.540939 
L 88.1356 19.694157 
L 88.548917 14.819085 
L 88.962234 12.407595 
L 89.168893 16.518976 
L 89.58221 13.465574 
L 90.202186 10.709558 
L 91.02882 8.129291 
L 91.648796 6.66798 
L 91.855454 10.47163 
L 92.47543 8.292297 
L 92.888747 15.573908 
L 93.302064 12.738703 
L 93.92204 10.119507 
L 94.748674 7.692601 
L 95.161992 6.743756 
L 95.36865 10.161439 
L 95.988626 8.191212 
L 96.81526 6.283338 
L 97.228577 5.523588 
L 97.435236 8.808843 
L 97.641895 8.199755 
L 97.848553 11.407264 
L 98.468529 9.0959 
L 98.675187 12.22381 
L 99.295163 9.776691 
L 100.121798 7.476191 
L 100.535115 6.565803 
L 100.741773 9.623155 
L 101.568408 7.373128 
L 102.395042 5.705827 
L 103.221676 4.424088 
L 103.634993 10.35903 
L 104.04831 8.977684 
L 104.461628 14.949437 
L 104.668286 13.708176 
L 104.874945 16.772836 
L 105.494921 13.112995 
L 105.908238 11.382135 
L 106.114896 14.22633 
L 106.321555 13.224347 
L 106.528213 16.029656 
L 107.148189 12.891431 
L 107.974823 9.909178 
L 108.181482 9.293782 
L 108.801458 17.496414 
L 109.008116 16.192564 
L 109.214775 18.875257 
L 109.421433 17.442725 
L 109.834751 22.76694 
L 110.454726 17.921693 
L 110.868044 15.606358 
L 111.074702 18.180578 
L 111.488019 15.857632 
L 111.694678 18.380684 
L 112.107995 16.057932 
L 112.521312 20.952622 
L 112.727971 19.494608 
L 112.934629 21.867871 
L 113.554605 17.769282 
L 115.001215 33.435776 
L 115.207874 35.453038 
L 115.621191 29.501239 
L 116.654484 38.51104 
L 117.481118 43.869448 
L 118.101094 46.746132 
L 118.721069 48.808433 
L 119.134387 49.833974 
L 119.341045 45.512865 
L 120.16768 48.350807 
L 120.994314 50.289422 
L 121.820948 51.601928 
L 122.647582 52.493009 
L 122.854241 48.406433 
L 123.474217 49.928565 
L 123.680875 45.902071 
L 124.300851 48.111418 
L 125.127485 50.182241 
L 125.747461 51.293418 
L 125.95412 47.292556 
L 126.780754 49.616764 
L 127.607388 51.21862 
L 128.020705 43.5239 
L 128.434023 45.513814 
L 128.640681 41.787166 
L 129.053998 44.098246 
L 129.260657 40.446372 
L 129.880633 44.05996 
L 130.29395 45.897081 
L 130.500608 42.181942 
L 131.327243 46.099764 
L 131.533901 42.420769 
L 131.74056 43.513518 
L 131.947218 40.024226 
L 132.567194 43.612332 
L 133.393828 47.044754 
L 133.600487 47.728923 
L 133.807146 43.987644 
L 134.427121 46.543884 
L 134.63378 42.947735 
L 135.047097 44.890511 
L 135.253756 41.425006 
L 135.873731 44.577469 
L 136.08039 41.141104 
L 136.700366 44.345031 
L 136.907024 40.941007 
L 137.113683 42.120597 
L 137.320341 38.873363 
L 138.146976 43.637188 
L 138.560293 45.454584 
L 139.180269 35.756795 
L 139.800244 40.257713 
L 140.213562 34.248128 
L 140.626879 37.63175 
L 140.833537 34.711173 
L 141.040196 36.422938 
L 141.86683 25.983101 
L 142.073489 28.668543 
L 142.486806 24.076666 
L 142.693464 26.912463 
L 143.520099 18.884316 
L 144.140074 27.718869 
L 144.553392 32.177287 
L 145.173367 24.930392 
L 145.380026 27.511521 
L 145.586685 25.298907 
L 146.20666 32.200761 
L 146.826636 25.03934 
L 147.033295 27.57796 
L 147.446612 23.358045 
L 147.65327 26.046614 
L 147.859929 23.981231 
L 148.066587 26.581424 
L 148.273246 24.481365 
L 148.686563 29.327188 
L 149.306539 22.915689 
L 149.513197 25.594561 
L 150.339832 18.407447 
L 150.959808 14.249208 
L 151.166466 17.83998 
L 151.9931 12.81348 
L 152.819735 9.206833 
L 153.233052 16.586802 
L 153.646369 14.116909 
L 153.853028 17.47854 
L 154.679662 12.660726 
L 155.092979 19.324978 
L 155.712955 15.124207 
L 155.919613 18.38899 
L 156.539589 14.425744 
L 156.746248 17.739501 
L 157.159565 15.100996 
L 157.366223 18.337437 
L 158.192858 13.308125 
L 158.606175 11.349617 
L 158.812833 14.903256 
L 159.226151 12.735162 
L 159.846126 22.130709 
L 160.259444 18.722266 
L 160.466102 21.666214 
L 160.672761 19.939376 
L 160.879419 22.795465 
L 161.086078 20.968131 
L 161.292736 23.749236 
L 161.499395 21.839475 
L 161.706054 24.554942 
L 161.912712 22.578406 
L 162.119371 25.235929 
L 162.946005 18.180537 
L 163.152664 16.766084 
L 163.359322 19.895432 
L 163.772639 16.949395 
L 164.185956 22.81978 
L 164.392615 21.040981 
L 164.599274 23.762338 
L 164.805932 21.904125 
L 165.012591 24.55918 
L 165.219249 22.635381 
L 165.425908 25.233313 
L 166.045884 19.81932 
L 166.252542 22.633877 
L 166.665859 19.309596 
L 167.492494 29.465292 
L 167.699152 31.617184 
L 167.905811 28.989552 
L 168.525787 35.042886 
L 168.732445 32.086843 
L 168.939104 34.007449 
L 169.559079 26.533955 
L 169.765738 28.85501 
L 170.179055 24.553735 
L 170.385714 27.037361 
L 170.799031 23.025017 
L 171.00569 25.632152 
L 171.419007 21.841472 
L 171.832324 26.974553 
L 172.245641 23.004764 
L 172.658958 27.906262 
L 173.485592 20.314205 
L 173.692251 23.117632 
L 174.518885 16.819407 
L 174.725544 15.505705 
L 175.138861 21.633122 
L 175.758837 17.101763 
L 175.965495 20.110978 
L 176.79213 14.711134 
L 176.998788 17.921357 
L 177.825423 13.134351 
L 178.032081 16.445351 
L 178.23874 15.231566 
L 178.445398 18.303117 
L 179.065374 14.542967 
L 179.68535 23.199571 
L 179.892008 21.415136 
L 180.305326 26.508428 
L 180.511984 24.405325 
L 180.925301 29.140728 
L 181.545277 22.821415 
L 181.751936 25.356302 
L 182.165253 21.657777 
L 182.371911 24.272446 
L 182.991887 19.203965 
L 183.198546 22.015607 
L 184.02518 16.13026 
L 184.851814 11.726903 
L 185.265131 9.983092 
L 185.47179 13.627706 
L 186.298424 10.028921 
L 187.125059 7.397709 
L 187.331717 11.086926 
L 188.158351 8.256933 
L 188.36501 11.790997 
L 188.571669 10.951839 
L 189.604961 25.926231 
L 189.81162 28.555765 
L 190.018279 25.939669 
L 190.638254 33.175651 
L 191.051572 27.468358 
L 191.878206 36.071435 
L 192.498182 41.011618 
L 192.70484 37.158824 
L 193.531474 42.897634 
L 193.738133 44.039127 
L 193.944792 40.043255 
L 194.771426 44.756511 
L 194.978085 40.822056 
L 195.804719 45.228728 
L 196.424695 47.628321 
L 196.631353 43.52432 
L 196.838012 44.525872 
L 197.04467 40.770414 
L 197.251329 42.025438 
L 197.664646 35.17969 
L 198.284622 40.120071 
L 198.49128 36.677109 
L 198.904597 39.830871 
L 199.111256 36.419681 
L 199.317915 38.095491 
L 199.93789 29.016934 
L 200.557866 35.624525 
L 200.764525 37.379699 
L 200.971183 34.138389 
L 201.797818 40.708104 
L 202.211135 33.999101 
L 202.417793 35.888449 
L 202.624452 32.833851 
L 203.451086 39.762635 
L 203.657745 36.351204 
L 204.27772 40.884561 
L 204.484379 37.399019 
L 204.691038 38.946764 
L 204.691038 38.946764 
" style="fill:none;stroke:#68548e;stroke-linecap:round;stroke-width:0.75;"/>
   </g>
   <g id="patch_3">
    <path d="M 37.29759 47.890734 
L 37.29759 8.384063 
" style="fill:none;stroke:#262626;stroke-linecap:square;stroke-linejoin:miter;"/>
   </g>
   <g id="patch_4">
    <path d="M 39.364176 55.792068 
L 204.691038 55.792068 
" style="fill:none;stroke:#262626;stroke-linecap:square;stroke-linejoin:miter;"/>
   </g>
   <g id="legend_1">
    <g id="line2d_11">
     <path d="M 41.00299 48.620575 
L 47.00299 48.620575 
" style="fill:none;stroke:#999999;stroke-dasharray:2,1;stroke-dashoffset:0;"/>
    </g>
    <g id="line2d_12"/>
    <g id="text_11">
     <!-- Environment -->
     <defs>
      <path d="M 7.90625 0 
L 7.90625 71.578125 
L 59.671875 71.578125 
L 59.671875 63.140625 
L 17.390625 63.140625 
L 17.390625 41.21875 
L 56.984375 41.21875 
L 56.984375 32.8125 
L 17.390625 32.8125 
L 17.390625 8.453125 
L 61.328125 8.453125 
L 61.328125 0 
z
" id="ArialMT-69"/>
      <path d="M 21 0 
L 1.265625 51.859375 
L 10.546875 51.859375 
L 21.6875 20.796875 
Q 23.484375 15.765625 25 10.359375 
Q 26.171875 14.453125 28.265625 20.21875 
L 39.796875 51.859375 
L 48.828125 51.859375 
L 29.203125 0 
z
" id="ArialMT-118"/>
      <path d="M 25.78125 7.859375 
L 27.046875 0.09375 
Q 23.34375 -0.6875 20.40625 -0.6875 
Q 15.625 -0.6875 12.984375 0.828125 
Q 10.359375 2.34375 9.28125 4.8125 
Q 8.203125 7.28125 8.203125 15.1875 
L 8.203125 45.015625 
L 1.765625 45.015625 
L 1.765625 51.859375 
L 8.203125 51.859375 
L 8.203125 64.703125 
L 16.9375 69.96875 
L 16.9375 51.859375 
L 25.78125 51.859375 
L 25.78125 45.015625 
L 16.9375 45.015625 
L 16.9375 14.703125 
Q 16.9375 10.9375 17.40625 9.859375 
Q 17.875 8.796875 18.921875 8.15625 
Q 19.96875 7.515625 21.921875 7.515625 
Q 23.390625 7.515625 25.78125 7.859375 
z
" id="ArialMT-116"/>
     </defs>
     <g style="fill:#262626;" transform="translate(48.50299 50.720575)scale(0.06 -0.06)">
      <use xlink:href="#ArialMT-69"/>
      <use x="66.699219" xlink:href="#ArialMT-110"/>
      <use x="122.314453" xlink:href="#ArialMT-118"/>
      <use x="172.314453" xlink:href="#ArialMT-105"/>
      <use x="194.53125" xlink:href="#ArialMT-114"/>
      <use x="227.832031" xlink:href="#ArialMT-111"/>
      <use x="283.447266" xlink:href="#ArialMT-110"/>
      <use x="339.0625" xlink:href="#ArialMT-109"/>
      <use x="422.363281" xlink:href="#ArialMT-101"/>
      <use x="477.978516" xlink:href="#ArialMT-110"/>
      <use x="533.59375" xlink:href="#ArialMT-116"/>
     </g>
    </g>
    <g id="line2d_13">
     <path d="M 86.683615 48.620575 
L 92.683615 48.620575 
" style="fill:none;stroke:#68548e;stroke-linecap:round;stroke-width:0.75;"/>
    </g>
    <g id="line2d_14"/>
    <g id="text_12">
     <!-- Model -->
     <defs>
      <path d="M 7.421875 0 
L 7.421875 71.578125 
L 21.6875 71.578125 
L 38.625 20.90625 
Q 40.96875 13.8125 42.046875 10.296875 
Q 43.265625 14.203125 45.84375 21.78125 
L 62.984375 71.578125 
L 75.734375 71.578125 
L 75.734375 0 
L 66.609375 0 
L 66.609375 59.90625 
L 45.796875 0 
L 37.25 0 
L 16.546875 60.9375 
L 16.546875 0 
z
" id="ArialMT-77"/>
      <path d="M 40.234375 0 
L 40.234375 6.546875 
Q 35.296875 -1.171875 25.734375 -1.171875 
Q 19.53125 -1.171875 14.328125 2.25 
Q 9.125 5.671875 6.265625 11.796875 
Q 3.421875 17.921875 3.421875 25.875 
Q 3.421875 33.640625 6 39.96875 
Q 8.59375 46.296875 13.765625 49.65625 
Q 18.953125 53.03125 25.34375 53.03125 
Q 30.03125 53.03125 33.6875 51.046875 
Q 37.359375 49.078125 39.65625 45.90625 
L 39.65625 71.578125 
L 48.390625 71.578125 
L 48.390625 0 
z
M 12.453125 25.875 
Q 12.453125 15.921875 16.640625 10.984375 
Q 20.84375 6.0625 26.5625 6.0625 
Q 32.328125 6.0625 36.34375 10.765625 
Q 40.375 15.484375 40.375 25.140625 
Q 40.375 35.796875 36.265625 40.765625 
Q 32.171875 45.75 26.171875 45.75 
Q 20.3125 45.75 16.375 40.96875 
Q 12.453125 36.1875 12.453125 25.875 
z
" id="ArialMT-100"/>
     </defs>
     <g style="fill:#262626;" transform="translate(94.183615 50.720575)scale(0.06 -0.06)">
      <use xlink:href="#ArialMT-77"/>
      <use x="83.300781" xlink:href="#ArialMT-111"/>
      <use x="138.916016" xlink:href="#ArialMT-100"/>
      <use x="194.53125" xlink:href="#ArialMT-101"/>
      <use x="250.146484" xlink:href="#ArialMT-108"/>
     </g>
    </g>
   </g>
  </g>
  <g id="axes_2">
   <g id="patch_5">
    <path d="M 37.29759 167.75841 
L 94.246797 167.75841 
L 94.246797 91.708068 
L 37.29759 91.708068 
z
" style="fill:#ffffff;"/>
   </g>
   <g id="matplotlib.axis_3">
    <g id="xtick_6">
     <g id="line2d_15">
      <g>
       <use style="fill:#262626;stroke:#262626;" x="45.433191" xlink:href="#me62819cded" y="167.75841"/>
      </g>
     </g>
     <g id="text_13">
      <!-- 0.2 -->
      <g style="fill:#262626;" transform="translate(40.051111 181.60142)scale(0.07744 -0.07744)">
       <use xlink:href="#ArialMT-48"/>
       <use x="55.615234" xlink:href="#ArialMT-46"/>
       <use x="83.398438" xlink:href="#ArialMT-50"/>
      </g>
     </g>
    </g>
    <g id="xtick_7">
     <g id="line2d_16">
      <g>
       <use style="fill:#262626;stroke:#262626;" x="69.839994" xlink:href="#me62819cded" y="167.75841"/>
      </g>
     </g>
     <g id="text_14">
      <!-- 0.5 -->
      <g style="fill:#262626;" transform="translate(64.457914 181.60142)scale(0.07744 -0.07744)">
       <use xlink:href="#ArialMT-48"/>
       <use x="55.615234" xlink:href="#ArialMT-46"/>
       <use x="83.398438" xlink:href="#ArialMT-53"/>
      </g>
     </g>
    </g>
    <g id="xtick_8">
     <g id="line2d_17">
      <g>
       <use style="fill:#262626;stroke:#262626;" x="94.246797" xlink:href="#me62819cded" y="167.75841"/>
      </g>
     </g>
     <g id="text_15">
      <!-- 0.8 -->
      <g style="fill:#262626;" transform="translate(88.864717 181.60142)scale(0.07744 -0.07744)">
       <use xlink:href="#ArialMT-48"/>
       <use x="55.615234" xlink:href="#ArialMT-46"/>
       <use x="83.398438" xlink:href="#ArialMT-56"/>
      </g>
     </g>
    </g>
    <g id="text_16">
     <!--    Prediction error -->
     <g style="fill:#262626;" transform="translate(33.378734 193.18746)scale(0.08448 -0.08448)">
      <use xlink:href="#ArialMT-32"/>
      <use x="27.783203" xlink:href="#ArialMT-32"/>
      <use x="55.566406" xlink:href="#ArialMT-32"/>
      <use x="83.349609" xlink:href="#ArialMT-80"/>
      <use x="150.048828" xlink:href="#ArialMT-114"/>
      <use x="183.349609" xlink:href="#ArialMT-101"/>
      <use x="238.964844" xlink:href="#ArialMT-100"/>
      <use x="294.580078" xlink:href="#ArialMT-105"/>
      <use x="316.796875" xlink:href="#ArialMT-99"/>
      <use x="366.796875" xlink:href="#ArialMT-116"/>
      <use x="394.580078" xlink:href="#ArialMT-105"/>
      <use x="416.796875" xlink:href="#ArialMT-111"/>
      <use x="472.412109" xlink:href="#ArialMT-110"/>
      <use x="528.027344" xlink:href="#ArialMT-32"/>
      <use x="555.810547" xlink:href="#ArialMT-101"/>
      <use x="611.425781" xlink:href="#ArialMT-114"/>
      <use x="644.726562" xlink:href="#ArialMT-114"/>
      <use x="678.027344" xlink:href="#ArialMT-111"/>
      <use x="733.642578" xlink:href="#ArialMT-114"/>
     </g>
    </g>
   </g>
   <g id="matplotlib.axis_4">
    <g id="ytick_4">
     <g id="line2d_18">
      <g>
       <use style="fill:#262626;stroke:#262626;" x="37.29759" xlink:href="#m12233108f8" y="164.189051"/>
      </g>
     </g>
     <g id="text_17">
      <!-- 1.1 -->
      <defs>
       <path d="M 37.25 0 
L 28.46875 0 
L 28.46875 56 
Q 25.296875 52.984375 20.140625 49.953125 
Q 14.984375 46.921875 10.890625 45.40625 
L 10.890625 53.90625 
Q 18.265625 57.375 23.78125 62.296875 
Q 29.296875 67.234375 31.59375 71.875 
L 37.25 71.875 
z
" id="ArialMT-49"/>
      </defs>
      <g style="fill:#262626;" transform="translate(18.23343 166.960556)scale(0.07744 -0.07744)">
       <use xlink:href="#ArialMT-49"/>
       <use x="55.615234" xlink:href="#ArialMT-46"/>
       <use x="83.398438" xlink:href="#ArialMT-49"/>
      </g>
     </g>
    </g>
    <g id="ytick_5">
     <g id="line2d_19">
      <g>
       <use style="fill:#262626;stroke:#262626;" x="37.29759" xlink:href="#m12233108f8" y="140.028723"/>
      </g>
     </g>
     <g id="text_18">
      <!-- 1.2 -->
      <g style="fill:#262626;" transform="translate(18.23343 142.800228)scale(0.07744 -0.07744)">
       <use xlink:href="#ArialMT-49"/>
       <use x="55.615234" xlink:href="#ArialMT-46"/>
       <use x="83.398438" xlink:href="#ArialMT-50"/>
      </g>
     </g>
    </g>
    <g id="ytick_6">
     <g id="line2d_20">
      <g>
       <use style="fill:#262626;stroke:#262626;" x="37.29759" xlink:href="#m12233108f8" y="115.868396"/>
      </g>
     </g>
     <g id="text_19">
      <!-- 1.3 -->
      <defs>
       <path d="M 4.203125 18.890625 
L 12.984375 20.0625 
Q 14.5 12.59375 18.140625 9.296875 
Q 21.78125 6 27 6 
Q 33.203125 6 37.46875 10.296875 
Q 41.75 14.59375 41.75 20.953125 
Q 41.75 27 37.796875 30.921875 
Q 33.84375 34.859375 27.734375 34.859375 
Q 25.25 34.859375 21.53125 33.890625 
L 22.515625 41.609375 
Q 23.390625 41.5 23.921875 41.5 
Q 29.546875 41.5 34.03125 44.421875 
Q 38.53125 47.359375 38.53125 53.46875 
Q 38.53125 58.296875 35.25 61.46875 
Q 31.984375 64.65625 26.8125 64.65625 
Q 21.6875 64.65625 18.265625 61.421875 
Q 14.84375 58.203125 13.875 51.765625 
L 5.078125 53.328125 
Q 6.6875 62.15625 12.390625 67.015625 
Q 18.109375 71.875 26.609375 71.875 
Q 32.46875 71.875 37.390625 69.359375 
Q 42.328125 66.84375 44.9375 62.5 
Q 47.5625 58.15625 47.5625 53.265625 
Q 47.5625 48.640625 45.0625 44.828125 
Q 42.578125 41.015625 37.703125 38.765625 
Q 44.046875 37.3125 47.5625 32.6875 
Q 51.078125 28.078125 51.078125 21.140625 
Q 51.078125 11.765625 44.234375 5.25 
Q 37.40625 -1.265625 26.953125 -1.265625 
Q 17.53125 -1.265625 11.296875 4.34375 
Q 5.078125 9.96875 4.203125 18.890625 
z
" id="ArialMT-51"/>
      </defs>
      <g style="fill:#262626;" transform="translate(18.23343 118.639901)scale(0.07744 -0.07744)">
       <use xlink:href="#ArialMT-49"/>
       <use x="55.615234" xlink:href="#ArialMT-46"/>
       <use x="83.398438" xlink:href="#ArialMT-51"/>
      </g>
     </g>
    </g>
    <g id="ytick_7">
     <g id="line2d_21">
      <g>
       <use style="fill:#262626;stroke:#262626;" x="37.29759" xlink:href="#m12233108f8" y="91.708068"/>
      </g>
     </g>
     <g id="text_20">
      <!-- 1.4 -->
      <g style="fill:#262626;" transform="translate(18.23343 94.479573)scale(0.07744 -0.07744)">
       <use xlink:href="#ArialMT-49"/>
       <use x="55.615234" xlink:href="#ArialMT-46"/>
       <use x="83.398438" xlink:href="#ArialMT-52"/>
      </g>
     </g>
    </g>
    <g id="text_21">
     <!-- Reaction time (s) -->
     <defs>
      <path d="M 7.859375 0 
L 7.859375 71.578125 
L 39.59375 71.578125 
Q 49.171875 71.578125 54.140625 69.640625 
Q 59.125 67.71875 62.109375 62.828125 
Q 65.09375 57.953125 65.09375 52.046875 
Q 65.09375 44.4375 60.15625 39.203125 
Q 55.21875 33.984375 44.921875 32.5625 
Q 48.6875 30.765625 50.640625 29 
Q 54.78125 25.203125 58.5 19.484375 
L 70.953125 0 
L 59.03125 0 
L 49.5625 14.890625 
Q 45.40625 21.34375 42.71875 24.75 
Q 40.046875 28.171875 37.921875 29.53125 
Q 35.796875 30.90625 33.59375 31.453125 
Q 31.984375 31.78125 28.328125 31.78125 
L 17.328125 31.78125 
L 17.328125 0 
z
M 17.328125 39.984375 
L 37.703125 39.984375 
Q 44.1875 39.984375 47.84375 41.328125 
Q 51.515625 42.671875 53.421875 45.625 
Q 55.328125 48.578125 55.328125 52.046875 
Q 55.328125 57.125 51.640625 60.390625 
Q 47.953125 63.671875 39.984375 63.671875 
L 17.328125 63.671875 
z
" id="ArialMT-82"/>
      <path d="M 3.078125 15.484375 
L 11.765625 16.84375 
Q 12.5 11.625 15.84375 8.84375 
Q 19.1875 6.0625 25.203125 6.0625 
Q 31.25 6.0625 34.171875 8.515625 
Q 37.109375 10.984375 37.109375 14.3125 
Q 37.109375 17.28125 34.515625 19 
Q 32.71875 20.171875 25.53125 21.96875 
Q 15.875 24.421875 12.140625 26.203125 
Q 8.40625 27.984375 6.46875 31.125 
Q 4.546875 34.28125 4.546875 38.09375 
Q 4.546875 41.546875 6.125 44.5 
Q 7.71875 47.46875 10.453125 49.421875 
Q 12.5 50.921875 16.03125 51.96875 
Q 19.578125 53.03125 23.640625 53.03125 
Q 29.734375 53.03125 34.34375 51.265625 
Q 38.96875 49.515625 41.15625 46.5 
Q 43.359375 43.5 44.1875 38.484375 
L 35.59375 37.3125 
Q 35.015625 41.3125 32.203125 43.546875 
Q 29.390625 45.796875 24.265625 45.796875 
Q 18.21875 45.796875 15.625 43.796875 
Q 13.03125 41.796875 13.03125 39.109375 
Q 13.03125 37.40625 14.109375 36.03125 
Q 15.1875 34.625 17.484375 33.6875 
Q 18.796875 33.203125 25.25 31.453125 
Q 34.578125 28.953125 38.25 27.359375 
Q 41.9375 25.78125 44.03125 22.75 
Q 46.140625 19.734375 46.140625 15.234375 
Q 46.140625 10.84375 43.578125 6.953125 
Q 41.015625 3.078125 36.171875 0.953125 
Q 31.34375 -1.171875 25.25 -1.171875 
Q 15.140625 -1.171875 9.84375 3.03125 
Q 4.546875 7.234375 3.078125 15.484375 
z
" id="ArialMT-115"/>
     </defs>
     <g style="fill:#262626;" transform="translate(12.45539 161.654799)rotate(-90)scale(0.08448 -0.08448)">
      <use xlink:href="#ArialMT-82"/>
      <use x="72.216797" xlink:href="#ArialMT-101"/>
      <use x="127.832031" xlink:href="#ArialMT-97"/>
      <use x="183.447266" xlink:href="#ArialMT-99"/>
      <use x="233.447266" xlink:href="#ArialMT-116"/>
      <use x="261.230469" xlink:href="#ArialMT-105"/>
      <use x="283.447266" xlink:href="#ArialMT-111"/>
      <use x="339.0625" xlink:href="#ArialMT-110"/>
      <use x="394.677734" xlink:href="#ArialMT-32"/>
      <use x="422.460938" xlink:href="#ArialMT-116"/>
      <use x="450.244141" xlink:href="#ArialMT-105"/>
      <use x="472.460938" xlink:href="#ArialMT-109"/>
      <use x="555.761719" xlink:href="#ArialMT-101"/>
      <use x="611.376953" xlink:href="#ArialMT-32"/>
      <use x="639.160156" xlink:href="#ArialMT-40"/>
      <use x="672.460938" xlink:href="#ArialMT-115"/>
      <use x="722.460938" xlink:href="#ArialMT-41"/>
     </g>
    </g>
   </g>
   <g id="PolyCollection_1">
    <defs>
     <path d="M 37.29759 -56.281043 
L 37.29759 -36.846048 
L 37.872835 -38.639846 
L 38.448079 -40.339347 
L 39.023324 -41.938786 
L 39.598568 -43.446034 
L 40.173813 -44.828063 
L 40.749057 -46.141502 
L 41.324302 -47.402211 
L 41.899546 -48.598495 
L 42.474791 -49.708902 
L 43.050035 -50.805325 
L 43.62528 -51.838188 
L 44.200524 -52.887226 
L 44.775769 -53.847076 
L 45.351013 -54.786944 
L 45.926258 -55.690461 
L 46.501502 -56.539443 
L 47.076747 -57.305987 
L 47.651991 -58.039773 
L 48.227236 -58.793271 
L 48.80248 -59.495488 
L 49.377725 -60.177798 
L 49.952969 -60.824921 
L 50.528214 -61.484631 
L 51.103458 -62.077582 
L 51.678703 -62.656962 
L 52.253947 -63.242874 
L 52.829192 -63.768742 
L 53.404436 -64.272706 
L 53.979681 -64.765395 
L 54.554926 -65.246247 
L 55.13017 -65.686031 
L 55.705415 -66.154642 
L 56.280659 -66.601744 
L 56.855904 -67.038625 
L 57.431148 -67.477399 
L 58.006393 -67.895583 
L 58.581637 -68.286918 
L 59.156882 -68.663968 
L 59.732126 -69.047211 
L 60.307371 -69.425629 
L 60.882615 -69.785786 
L 61.45786 -70.131949 
L 62.033104 -70.491006 
L 62.608349 -70.812707 
L 63.183593 -71.13417 
L 63.758838 -71.444598 
L 64.334082 -71.756845 
L 64.909327 -72.053503 
L 65.484571 -72.347979 
L 66.059816 -72.640505 
L 66.63506 -72.904314 
L 67.210305 -73.168404 
L 67.785549 -73.447423 
L 68.360794 -73.704762 
L 68.936038 -73.962146 
L 69.511283 -74.220188 
L 70.086527 -74.459026 
L 70.661772 -74.699096 
L 71.237016 -74.954725 
L 71.812261 -75.206011 
L 72.387506 -75.441423 
L 72.96275 -75.652809 
L 73.537995 -75.876691 
L 74.113239 -76.082423 
L 74.688484 -76.286606 
L 75.263728 -76.497668 
L 75.838973 -76.71153 
L 76.414217 -76.907554 
L 76.989462 -77.110013 
L 77.564706 -77.313223 
L 78.139951 -77.509594 
L 78.715195 -77.688731 
L 79.29044 -77.866979 
L 79.865684 -78.051334 
L 80.440929 -78.270214 
L 81.016173 -78.439073 
L 81.591418 -78.60622 
L 82.166662 -78.780411 
L 82.741907 -78.930142 
L 83.317151 -79.125412 
L 83.892396 -79.289297 
L 84.46764 -79.451274 
L 85.042885 -79.622328 
L 85.618129 -79.801279 
L 86.193374 -79.959888 
L 86.768618 -80.128399 
L 87.343863 -80.296576 
L 87.919107 -80.465404 
L 88.494352 -80.63786 
L 89.069597 -80.779855 
L 89.644841 -80.929864 
L 90.220086 -81.083815 
L 90.79533 -81.223843 
L 91.370575 -81.383482 
L 91.945819 -81.528571 
L 92.521064 -81.672802 
L 93.096308 -81.805738 
L 93.671553 -81.958931 
L 94.246797 -82.096134 
L 94.246797 -96.935206 
L 94.246797 -96.935206 
L 93.671553 -96.696114 
L 93.096308 -96.462378 
L 92.521064 -96.221613 
L 91.945819 -95.978513 
L 91.370575 -95.74236 
L 90.79533 -95.498219 
L 90.220086 -95.245715 
L 89.644841 -95.00728 
L 89.069597 -94.755951 
L 88.494352 -94.516836 
L 87.919107 -94.271676 
L 87.343863 -94.027147 
L 86.768618 -93.775077 
L 86.193374 -93.526219 
L 85.618129 -93.25945 
L 85.042885 -92.985594 
L 84.46764 -92.734221 
L 83.892396 -92.477506 
L 83.317151 -92.194269 
L 82.741907 -91.927505 
L 82.166662 -91.669921 
L 81.591418 -91.397957 
L 81.016173 -91.126202 
L 80.440929 -90.859311 
L 79.865684 -90.586638 
L 79.29044 -90.294399 
L 78.715195 -89.989175 
L 78.139951 -89.698055 
L 77.564706 -89.403129 
L 76.989462 -89.097101 
L 76.414217 -88.794874 
L 75.838973 -88.497114 
L 75.263728 -88.197033 
L 74.688484 -87.904618 
L 74.113239 -87.600764 
L 73.537995 -87.289855 
L 72.96275 -86.969091 
L 72.387506 -86.628406 
L 71.812261 -86.298824 
L 71.237016 -85.945329 
L 70.661772 -85.619445 
L 70.086527 -85.299738 
L 69.511283 -84.949065 
L 68.936038 -84.615189 
L 68.360794 -84.279358 
L 67.785549 -83.945887 
L 67.210305 -83.607291 
L 66.63506 -83.260748 
L 66.059816 -82.918409 
L 65.484571 -82.5509 
L 64.909327 -82.191478 
L 64.334082 -81.838234 
L 63.758838 -81.456252 
L 63.183593 -81.092937 
L 62.608349 -80.688436 
L 62.033104 -80.296434 
L 61.45786 -79.910193 
L 60.882615 -79.518851 
L 60.307371 -79.106121 
L 59.732126 -78.714867 
L 59.156882 -78.289263 
L 58.581637 -77.915476 
L 58.006393 -77.499775 
L 57.431148 -77.094465 
L 56.855904 -76.701667 
L 56.280659 -76.268868 
L 55.705415 -75.843593 
L 55.13017 -75.413772 
L 54.554926 -74.943724 
L 53.979681 -74.516321 
L 53.404436 -74.090501 
L 52.829192 -73.632772 
L 52.253947 -73.185999 
L 51.678703 -72.717051 
L 51.103458 -72.233457 
L 50.528214 -71.753436 
L 49.952969 -71.23906 
L 49.377725 -70.760775 
L 48.80248 -70.249785 
L 48.227236 -69.754465 
L 47.651991 -69.220227 
L 47.076747 -68.698078 
L 46.501502 -68.139949 
L 45.926258 -67.559762 
L 45.351013 -66.959589 
L 44.775769 -66.371225 
L 44.200524 -65.770343 
L 43.62528 -65.148271 
L 43.050035 -64.504578 
L 42.474791 -63.848098 
L 41.899546 -63.146347 
L 41.324302 -62.444362 
L 40.749057 -61.686591 
L 40.173813 -60.881339 
L 39.598568 -60.080527 
L 39.023324 -59.216996 
L 38.448079 -58.332207 
L 37.872835 -57.302497 
L 37.29759 -56.281043 
z
" id="m75bf1168a7" style="stroke:#ffffff;stroke-opacity:0.15;stroke-width:0.8;"/>
    </defs>
    <g clip-path="url(#pecfff13546)">
     <use style="fill:#68548e;fill-opacity:0.15;stroke:#ffffff;stroke-opacity:0.15;stroke-width:0.8;" x="0" xlink:href="#m75bf1168a7" y="201.6"/>
    </g>
   </g>
   <g id="line2d_22">
    <path clip-path="url(#pecfff13546)" d="M 37.29759 154.653864 
L 37.872835 153.25757 
L 38.448079 151.950599 
L 39.023324 150.722208 
L 39.598568 149.56348 
L 40.173813 148.466937 
L 40.749057 147.426243 
L 41.324302 146.435983 
L 41.899546 145.491495 
L 42.474791 144.588733 
L 43.050035 143.724166 
L 43.62528 142.894692 
L 44.200524 142.097574 
L 44.775769 141.330382 
L 45.351013 140.59095 
L 45.926258 139.877339 
L 46.501502 139.187806 
L 47.076747 138.520779 
L 47.651991 137.874836 
L 48.227236 137.248684 
L 48.80248 136.641146 
L 49.377725 136.051148 
L 49.952969 135.477706 
L 50.528214 134.919915 
L 51.103458 134.376943 
L 51.678703 133.848025 
L 52.253947 133.332449 
L 52.829192 132.829561 
L 53.404436 132.33875 
L 53.979681 131.85945 
L 54.554926 131.391133 
L 55.13017 130.933307 
L 55.705415 130.485513 
L 56.280659 130.04732 
L 56.855904 129.618325 
L 57.431148 129.19815 
L 58.006393 128.78644 
L 58.581637 128.38286 
L 59.156882 127.987095 
L 59.732126 127.598848 
L 60.307371 127.21784 
L 60.882615 126.843805 
L 61.45786 126.476492 
L 62.033104 126.115664 
L 62.608349 125.761096 
L 63.183593 125.412575 
L 63.758838 125.069897 
L 64.334082 124.73287 
L 64.909327 124.401312 
L 65.484571 124.075046 
L 66.059816 123.753907 
L 66.63506 123.437736 
L 67.210305 123.126381 
L 67.785549 122.819699 
L 68.360794 122.517551 
L 68.936038 122.219805 
L 69.511283 121.926334 
L 70.086527 121.637018 
L 70.661772 121.35174 
L 71.237016 121.070389 
L 71.812261 120.792859 
L 72.387506 120.519047 
L 72.96275 120.248855 
L 73.537995 119.982189 
L 74.113239 119.718957 
L 74.688484 119.459073 
L 75.263728 119.202451 
L 75.838973 118.949012 
L 76.414217 118.698677 
L 76.989462 118.451372 
L 77.564706 118.207023 
L 78.139951 117.965561 
L 78.715195 117.726918 
L 79.29044 117.49103 
L 79.865684 117.257834 
L 80.440929 117.027268 
L 81.016173 116.799274 
L 81.591418 116.573796 
L 82.166662 116.350778 
L 82.741907 116.130168 
L 83.317151 115.911913 
L 83.892396 115.695965 
L 84.46764 115.482274 
L 85.042885 115.270795 
L 85.618129 115.061481 
L 86.193374 114.85429 
L 86.768618 114.649178 
L 87.343863 114.446103 
L 87.919107 114.245027 
L 88.494352 114.04591 
L 89.069597 113.848714 
L 89.644841 113.653403 
L 90.220086 113.45994 
L 90.79533 113.268292 
L 91.370575 113.078424 
L 91.945819 112.890303 
L 92.521064 112.703899 
L 93.096308 112.519179 
L 93.671553 112.336114 
L 94.246797 112.154674 
" style="fill:none;stroke:#68548e;stroke-linecap:round;stroke-width:1.5;"/>
   </g>
   <g id="patch_6">
    <path d="M 37.29759 164.189051 
L 37.29759 91.708068 
" style="fill:none;stroke:#262626;stroke-linecap:square;stroke-linejoin:miter;"/>
   </g>
   <g id="patch_7">
    <path d="M 45.433191 167.75841 
L 94.246797 167.75841 
" style="fill:none;stroke:#262626;stroke-linecap:square;stroke-linejoin:miter;"/>
   </g>
   <g id="PathCollection_1">
    <defs>
     <path d="M 0 1.414214 
C 0.375054 1.414214 0.734797 1.265203 1 1 
C 1.265203 0.734797 1.414214 0.375054 1.414214 0 
C 1.414214 -0.375054 1.265203 -0.734797 1 -1 
C 0.734797 -1.265203 0.375054 -1.414214 0 -1.414214 
C -0.375054 -1.414214 -0.734797 -1.265203 -1 -1 
C -1.265203 -0.734797 -1.414214 -0.375054 -1.414214 0 
C -1.414214 0.375054 -1.265203 0.734797 -1 1 
C -0.734797 1.265203 -0.375054 1.414214 0 1.414214 
z
" id="mea848f8738" style="stroke:#333333;stroke-width:0.8;"/>
    </defs>
    <g clip-path="url(#pecfff13546)">
     <use style="fill:#333333;stroke:#333333;stroke-width:0.8;" x="47.284188" xlink:href="#mea848f8738" y="141.881654"/>
     <use style="fill:#333333;stroke:#333333;stroke-width:0.8;" x="52.267757" xlink:href="#mea848f8738" y="132.218104"/>
     <use style="fill:#333333;stroke:#333333;stroke-width:0.8;" x="57.966252" xlink:href="#mea848f8738" y="127.643741"/>
     <use style="fill:#333333;stroke:#333333;stroke-width:0.8;" x="63.307033" xlink:href="#mea848f8738" y="123.603574"/>
     <use style="fill:#333333;stroke:#333333;stroke-width:0.8;" x="68.748481" xlink:href="#mea848f8738" y="121.968775"/>
     <use style="fill:#333333;stroke:#333333;stroke-width:0.8;" x="77.454517" xlink:href="#mea848f8738" y="117.952779"/>
    </g>
   </g>
   <g id="line2d_23">
    <path clip-path="url(#pecfff13546)" d="M 47.284188 148.197577 
L 47.284188 135.812842 
" style="fill:none;stroke:#333333;stroke-linecap:round;stroke-width:1.2;"/>
   </g>
   <g id="line2d_24">
    <path clip-path="url(#pecfff13546)" d="M 52.267757 139.99881 
L 52.267757 124.124552 
" style="fill:none;stroke:#333333;stroke-linecap:round;stroke-width:1.2;"/>
   </g>
   <g id="line2d_25">
    <path clip-path="url(#pecfff13546)" d="M 57.966252 133.55519 
L 57.966252 121.858861 
" style="fill:none;stroke:#333333;stroke-linecap:round;stroke-width:1.2;"/>
   </g>
   <g id="line2d_26">
    <path clip-path="url(#pecfff13546)" d="M 63.307033 131.247759 
L 63.307033 116.143506 
" style="fill:none;stroke:#333333;stroke-linecap:round;stroke-width:1.2;"/>
   </g>
   <g id="line2d_27">
    <path clip-path="url(#pecfff13546)" d="M 68.748481 130.661457 
L 68.748481 113.321933 
" style="fill:none;stroke:#333333;stroke-linecap:round;stroke-width:1.2;"/>
   </g>
   <g id="line2d_28">
    <path clip-path="url(#pecfff13546)" d="M 77.454517 124.390634 
L 77.454517 111.323802 
" style="fill:none;stroke:#333333;stroke-linecap:round;stroke-width:1.2;"/>
   </g>
  </g>
  <g id="axes_3">
   <g id="patch_8">
    <path d="M 130.825347 167.75841 
L 206.757623 167.75841 
L 206.757623 91.708068 
L 130.825347 91.708068 
z
" style="fill:#ffffff;"/>
   </g>
   <g id="matplotlib.axis_5">
    <g id="xtick_9">
     <g id="line2d_29">
      <g>
       <use style="fill:#262626;stroke:#262626;" x="138.337364" xlink:href="#me62819cded" y="167.75841"/>
      </g>
     </g>
     <g id="text_22">
      <!-- 0 -->
      <g style="fill:#262626;" transform="translate(136.184169 181.60142)scale(0.07744 -0.07744)">
       <use xlink:href="#ArialMT-48"/>
      </g>
     </g>
    </g>
    <g id="xtick_10">
     <g id="line2d_30">
      <g>
       <use style="fill:#262626;stroke:#262626;" x="170.82176" xlink:href="#me62819cded" y="167.75841"/>
      </g>
     </g>
     <g id="text_23">
      <!-- 8 -->
      <g style="fill:#262626;" transform="translate(168.668565 181.60142)scale(0.07744 -0.07744)">
       <use xlink:href="#ArialMT-56"/>
      </g>
     </g>
    </g>
    <g id="xtick_11">
     <g id="line2d_31">
      <g>
       <use style="fill:#262626;stroke:#262626;" x="203.306156" xlink:href="#me62819cded" y="167.75841"/>
      </g>
     </g>
     <g id="text_24">
      <!-- 16 -->
      <g style="fill:#262626;" transform="translate(198.999766 181.60142)scale(0.07744 -0.07744)">
       <use xlink:href="#ArialMT-49"/>
       <use x="55.615234" xlink:href="#ArialMT-54"/>
      </g>
     </g>
    </g>
    <g id="text_25">
     <!--   Peristimulus time (s) -->
     <g style="fill:#262626;" transform="translate(128.190925 193.29042)scale(0.08448 -0.08448)">
      <use xlink:href="#ArialMT-32"/>
      <use x="27.783203" xlink:href="#ArialMT-32"/>
      <use x="55.566406" xlink:href="#ArialMT-80"/>
      <use x="122.265625" xlink:href="#ArialMT-101"/>
      <use x="177.880859" xlink:href="#ArialMT-114"/>
      <use x="211.181641" xlink:href="#ArialMT-105"/>
      <use x="233.398438" xlink:href="#ArialMT-115"/>
      <use x="283.398438" xlink:href="#ArialMT-116"/>
      <use x="311.181641" xlink:href="#ArialMT-105"/>
      <use x="333.398438" xlink:href="#ArialMT-109"/>
      <use x="416.699219" xlink:href="#ArialMT-117"/>
      <use x="472.314453" xlink:href="#ArialMT-108"/>
      <use x="494.53125" xlink:href="#ArialMT-117"/>
      <use x="550.146484" xlink:href="#ArialMT-115"/>
      <use x="600.146484" xlink:href="#ArialMT-32"/>
      <use x="627.929688" xlink:href="#ArialMT-116"/>
      <use x="655.712891" xlink:href="#ArialMT-105"/>
      <use x="677.929688" xlink:href="#ArialMT-109"/>
      <use x="761.230469" xlink:href="#ArialMT-101"/>
      <use x="816.845703" xlink:href="#ArialMT-32"/>
      <use x="844.628906" xlink:href="#ArialMT-40"/>
      <use x="877.929688" xlink:href="#ArialMT-115"/>
      <use x="927.929688" xlink:href="#ArialMT-41"/>
     </g>
    </g>
   </g>
   <g id="matplotlib.axis_6">
    <g id="ytick_8">
     <g id="line2d_32">
      <g>
       <use style="fill:#262626;stroke:#262626;" x="130.825347" xlink:href="#m12233108f8" y="153.133344"/>
      </g>
     </g>
     <g id="text_26">
      <!-- 0.0 -->
      <g style="fill:#262626;" transform="translate(111.761187 155.904849)scale(0.07744 -0.07744)">
       <use xlink:href="#ArialMT-48"/>
       <use x="55.615234" xlink:href="#ArialMT-46"/>
       <use x="83.398438" xlink:href="#ArialMT-48"/>
      </g>
     </g>
    </g>
    <g id="ytick_9">
     <g id="line2d_33">
      <g>
       <use style="fill:#262626;stroke:#262626;" x="130.825347" xlink:href="#m12233108f8" y="123.883213"/>
      </g>
     </g>
     <g id="text_27">
      <!-- 0.1 -->
      <g style="fill:#262626;" transform="translate(111.761187 126.654718)scale(0.07744 -0.07744)">
       <use xlink:href="#ArialMT-48"/>
       <use x="55.615234" xlink:href="#ArialMT-46"/>
       <use x="83.398438" xlink:href="#ArialMT-49"/>
      </g>
     </g>
    </g>
    <g id="ytick_10">
     <g id="line2d_34">
      <g>
       <use style="fill:#262626;stroke:#262626;" x="130.825347" xlink:href="#m12233108f8" y="94.633081"/>
      </g>
     </g>
     <g id="text_28">
      <!-- 0.2 -->
      <g style="fill:#262626;" transform="translate(111.761187 97.404586)scale(0.07744 -0.07744)">
       <use xlink:href="#ArialMT-48"/>
       <use x="55.615234" xlink:href="#ArialMT-46"/>
       <use x="83.398438" xlink:href="#ArialMT-50"/>
      </g>
     </g>
    </g>
    <g id="text_29">
     <!--     Percent change -->
     <defs>
      <path d="M 6.59375 0 
L 6.59375 71.578125 
L 15.375 71.578125 
L 15.375 45.90625 
Q 21.53125 53.03125 30.90625 53.03125 
Q 36.671875 53.03125 40.921875 50.75 
Q 45.171875 48.484375 47 44.484375 
Q 48.828125 40.484375 48.828125 32.859375 
L 48.828125 0 
L 40.046875 0 
L 40.046875 32.859375 
Q 40.046875 39.453125 37.1875 42.453125 
Q 34.328125 45.453125 29.109375 45.453125 
Q 25.203125 45.453125 21.75 43.421875 
Q 18.3125 41.40625 16.84375 37.9375 
Q 15.375 34.46875 15.375 28.375 
L 15.375 0 
z
" id="ArialMT-104"/>
      <path d="M 4.984375 -4.296875 
L 13.53125 -5.5625 
Q 14.0625 -9.515625 16.5 -11.328125 
Q 19.78125 -13.765625 25.4375 -13.765625 
Q 31.546875 -13.765625 34.859375 -11.328125 
Q 38.1875 -8.890625 39.359375 -4.5 
Q 40.046875 -1.8125 39.984375 6.78125 
Q 34.234375 0 25.640625 0 
Q 14.9375 0 9.078125 7.71875 
Q 3.21875 15.4375 3.21875 26.21875 
Q 3.21875 33.640625 5.90625 39.90625 
Q 8.59375 46.1875 13.6875 49.609375 
Q 18.796875 53.03125 25.6875 53.03125 
Q 34.859375 53.03125 40.828125 45.609375 
L 40.828125 51.859375 
L 48.921875 51.859375 
L 48.921875 7.03125 
Q 48.921875 -5.078125 46.453125 -10.125 
Q 44 -15.1875 38.640625 -18.109375 
Q 33.296875 -21.046875 25.484375 -21.046875 
Q 16.21875 -21.046875 10.5 -16.875 
Q 4.78125 -12.703125 4.984375 -4.296875 
z
M 12.25 26.859375 
Q 12.25 16.65625 16.296875 11.96875 
Q 20.359375 7.28125 26.46875 7.28125 
Q 32.515625 7.28125 36.609375 11.9375 
Q 40.71875 16.609375 40.71875 26.5625 
Q 40.71875 36.078125 36.5 40.90625 
Q 32.28125 45.75 26.3125 45.75 
Q 20.453125 45.75 16.34375 40.984375 
Q 12.25 36.234375 12.25 26.859375 
z
" id="ArialMT-103"/>
     </defs>
     <g style="fill:#262626;" transform="translate(105.983147 164.013639)rotate(-90)scale(0.08448 -0.08448)">
      <use xlink:href="#ArialMT-32"/>
      <use x="27.783203" xlink:href="#ArialMT-32"/>
      <use x="55.566406" xlink:href="#ArialMT-32"/>
      <use x="83.349609" xlink:href="#ArialMT-32"/>
      <use x="111.132812" xlink:href="#ArialMT-80"/>
      <use x="177.832031" xlink:href="#ArialMT-101"/>
      <use x="233.447266" xlink:href="#ArialMT-114"/>
      <use x="266.748047" xlink:href="#ArialMT-99"/>
      <use x="316.748047" xlink:href="#ArialMT-101"/>
      <use x="372.363281" xlink:href="#ArialMT-110"/>
      <use x="427.978516" xlink:href="#ArialMT-116"/>
      <use x="455.761719" xlink:href="#ArialMT-32"/>
      <use x="483.544922" xlink:href="#ArialMT-99"/>
      <use x="533.544922" xlink:href="#ArialMT-104"/>
      <use x="589.160156" xlink:href="#ArialMT-97"/>
      <use x="644.775391" xlink:href="#ArialMT-110"/>
      <use x="700.390625" xlink:href="#ArialMT-103"/>
      <use x="756.005859" xlink:href="#ArialMT-101"/>
     </g>
    </g>
   </g>
   <g id="line2d_35">
    <path clip-path="url(#p123c99dd11)" d="M 134.276814 151.668609 
L 138.337364 152.249191 
L 142.397913 149.748753 
L 146.458463 140.031157 
L 150.519012 123.654905 
L 154.579562 109.039246 
L 158.640111 106.135069 
L 162.700661 116.758441 
L 166.761211 134.209798 
L 170.82176 150.44987 
L 174.88231 160.570249 
L 178.942859 164.523191 
L 183.003409 164.992911 
L 187.063958 164.304605 
L 191.124508 161.97115 
L 195.185057 158.232922 
L 199.245607 154.787583 
L 203.306156 153.26843 
" style="fill:none;stroke:#d5b0dc;stroke-linecap:round;stroke-width:0.8;"/>
   </g>
   <g id="line2d_36">
    <path clip-path="url(#p123c99dd11)" d="M 134.276814 153.549628 
L 138.337364 154.330863 
L 142.397913 154.759007 
L 146.458463 152.106763 
L 150.519012 146.812882 
L 154.579562 143.446099 
L 158.640111 145.166974 
L 162.700661 150.168494 
L 166.761211 154.638888 
L 170.82176 155.991356 
L 174.88231 154.688968 
L 178.942859 153.388417 
L 183.003409 153.279789 
L 187.063958 153.889174 
L 191.124508 153.634542 
L 195.185057 153.073674 
L 199.245607 153.38478 
L 203.306156 153.954972 
" style="fill:none;stroke:#d5b0dc;stroke-dasharray:2.4,0.8;stroke-dashoffset:0;stroke-width:0.8;"/>
   </g>
   <g id="line2d_37">
    <path clip-path="url(#p123c99dd11)" d="M 178.942859 104.870627 
L 178.942859 101.945614 
" style="fill:none;stroke:#d5b0dc;stroke-linecap:round;stroke-width:0.75;"/>
   </g>
   <g id="line2d_38">
    <path clip-path="url(#p123c99dd11)" d="M 134.276814 151.860251 
L 138.337364 152.722899 
L 142.397913 150.234056 
L 146.458463 140.01904 
L 150.519012 123.062064 
L 154.579562 108.143651 
L 158.640111 105.188619 
L 162.700661 115.790815 
L 166.761211 133.191103 
L 170.82176 149.40917 
L 174.88231 159.735198 
L 178.942859 164.179969 
L 183.003409 165.00857 
L 187.063958 164.239705 
L 191.124508 161.85596 
L 195.185057 158.353607 
L 199.245607 155.172235 
L 203.306156 153.626436 
" style="fill:none;stroke:#c59fd2;stroke-linecap:round;stroke-width:0.8;"/>
   </g>
   <g id="line2d_39">
    <path clip-path="url(#p123c99dd11)" d="M 134.276814 153.237006 
L 138.337364 154.040696 
L 142.397913 154.052255 
L 146.458463 150.642391 
L 150.519012 144.840859 
L 154.579562 141.426534 
L 158.640111 143.436304 
L 162.700661 148.890217 
L 166.761211 153.791634 
L 170.82176 155.505787 
L 174.88231 154.540232 
L 178.942859 153.277485 
L 183.003409 152.904213 
L 187.063958 153.151688 
L 191.124508 152.8335 
L 195.185057 152.35692 
L 199.245607 152.647014 
L 203.306156 153.259813 
" style="fill:none;stroke:#c59fd2;stroke-dasharray:2.4,0.8;stroke-dashoffset:0;stroke-width:0.8;"/>
   </g>
   <g id="line2d_40">
    <path clip-path="url(#p123c99dd11)" d="M 180.973134 104.870627 
L 180.973134 101.945614 
" style="fill:none;stroke:#c59fd2;stroke-linecap:round;stroke-width:0.75;"/>
   </g>
   <g id="line2d_41">
    <path clip-path="url(#p123c99dd11)" d="M 134.276814 152.037421 
L 138.337364 153.160836 
L 142.397913 150.682711 
L 146.458463 140.007839 
L 150.519012 122.513991 
L 154.579562 107.315687 
L 158.640111 104.313639 
L 162.700661 114.89626 
L 166.761211 132.249333 
L 170.82176 148.447058 
L 174.88231 158.963205 
L 178.942859 163.862665 
L 183.003409 165.023046 
L 187.063958 164.179706 
L 191.124508 161.74947 
L 195.185057 158.465178 
L 199.245607 155.52784 
L 203.306156 153.957408 
" style="fill:none;stroke:#b48ec7;stroke-linecap:round;stroke-width:0.8;"/>
   </g>
   <g id="line2d_42">
    <path clip-path="url(#p123c99dd11)" d="M 134.276814 152.947991 
L 138.337364 153.772441 
L 142.397913 153.398873 
L 146.458463 149.2886 
L 150.519012 143.017752 
L 154.579562 139.559474 
L 158.640111 141.836324 
L 162.700661 147.708468 
L 166.761211 153.008359 
L 170.82176 155.056885 
L 174.88231 154.402728 
L 178.942859 153.174931 
L 183.003409 152.556998 
L 187.063958 152.469891 
L 191.124508 152.092947 
L 195.185057 151.694291 
L 199.245607 151.96496 
L 203.306156 152.617147 
" style="fill:none;stroke:#b48ec7;stroke-dasharray:2.4,0.8;stroke-dashoffset:0;stroke-width:0.8;"/>
   </g>
   <g id="line2d_43">
    <path clip-path="url(#p123c99dd11)" d="M 183.003409 104.870627 
L 183.003409 101.945614 
" style="fill:none;stroke:#b48ec7;stroke-linecap:round;stroke-width:0.75;"/>
   </g>
   <g id="line2d_44">
    <path clip-path="url(#p123c99dd11)" d="M 134.276814 152.212853 
L 138.337364 153.594475 
L 142.397913 151.126964 
L 146.458463 139.996747 
L 150.519012 121.971296 
L 154.579562 106.495846 
L 158.640111 103.447245 
L 162.700661 114.010481 
L 166.761211 131.316804 
L 170.82176 147.494386 
L 174.88231 158.198787 
L 178.942859 163.548474 
L 183.003409 165.037381 
L 187.063958 164.120296 
L 191.124508 161.644024 
L 195.185057 158.575654 
L 199.245607 155.879957 
L 203.306156 154.285132 
" style="fill:none;stroke:#a27fbb;stroke-linecap:round;stroke-width:0.8;"/>
   </g>
   <g id="line2d_45">
    <path clip-path="url(#p123c99dd11)" d="M 134.276814 152.661812 
L 138.337364 153.506818 
L 142.397913 152.751901 
L 146.458463 147.948092 
L 150.519012 141.212532 
L 154.579562 137.710734 
L 158.640111 140.252043 
L 162.700661 146.538314 
L 166.761211 152.232769 
L 170.82176 154.612387 
L 174.88231 154.266573 
L 178.942859 153.073383 
L 183.003409 152.21319 
L 187.063958 151.794785 
L 191.124508 151.359661 
L 195.185057 151.038164 
L 199.245607 151.289598 
L 203.306156 151.980788 
" style="fill:none;stroke:#a27fbb;stroke-dasharray:2.4,0.8;stroke-dashoffset:0;stroke-width:0.8;"/>
   </g>
   <g id="line2d_46">
    <path clip-path="url(#p123c99dd11)" d="M 185.033683 104.870627 
L 185.033683 101.945614 
" style="fill:none;stroke:#a27fbb;stroke-linecap:round;stroke-width:0.75;"/>
   </g>
   <g id="line2d_47">
    <path clip-path="url(#p123c99dd11)" d="M 134.276814 152.403119 
L 138.337364 154.064782 
L 142.397913 151.608782 
L 146.458463 139.984718 
L 150.519012 121.382712 
L 154.579562 105.606682 
L 158.640111 102.50759 
L 162.700661 113.049804 
L 166.761211 130.305423 
L 170.82176 146.461158 
L 174.88231 157.369732 
L 178.942859 163.207716 
L 183.003409 165.052927 
L 187.063958 164.055862 
L 191.124508 161.529661 
L 195.185057 158.695472 
L 199.245607 156.261847 
L 203.306156 154.640567 
" style="fill:none;stroke:#8f70ae;stroke-linecap:round;stroke-width:0.8;"/>
   </g>
   <g id="line2d_48">
    <path clip-path="url(#p123c99dd11)" d="M 134.276814 152.351434 
L 138.337364 153.218734 
L 142.397913 152.050224 
L 146.458463 146.494235 
L 150.519012 139.254669 
L 154.579562 135.70567 
L 158.640111 138.533799 
L 162.700661 145.269215 
L 166.761211 151.391598 
L 170.82176 154.130304 
L 174.88231 154.118905 
L 178.942859 152.963248 
L 183.003409 151.840311 
L 187.063958 151.062594 
L 191.124508 150.564371 
L 195.185057 150.326556 
L 199.245607 150.55713 
L 203.306156 151.290619 
" style="fill:none;stroke:#8f70ae;stroke-dasharray:2.4,0.8;stroke-dashoffset:0;stroke-width:0.8;"/>
   </g>
   <g id="line2d_49">
    <path clip-path="url(#p123c99dd11)" d="M 187.063958 104.870627 
L 187.063958 101.945614 
" style="fill:none;stroke:#8f70ae;stroke-linecap:round;stroke-width:0.75;"/>
   </g>
   <g id="line2d_50">
    <path clip-path="url(#p123c99dd11)" d="M 134.276814 152.593434 
L 138.337364 154.535211 
L 142.397913 152.090724 
L 146.458463 139.972685 
L 150.519012 120.793976 
L 154.579562 104.717288 
L 158.640111 101.567693 
L 162.700661 112.088878 
L 166.761211 129.29378 
L 170.82176 145.427664 
L 174.88231 156.540463 
L 178.942859 162.86687 
L 183.003409 165.068477 
L 187.063958 163.991411 
L 191.124508 161.41527 
L 195.185057 158.815321 
L 199.245607 156.643835 
L 203.306156 154.996094 
" style="fill:none;stroke:#7c619f;stroke-linecap:round;stroke-width:0.8;"/>
   </g>
   <g id="line2d_51">
    <path clip-path="url(#p123c99dd11)" d="M 134.276814 152.040976 
L 138.337364 152.930576 
L 142.397913 151.348366 
L 146.458463 145.040003 
L 150.519012 137.2963 
L 154.579562 133.700088 
L 158.640111 136.815112 
L 162.700661 143.999789 
L 166.761211 150.55021 
L 170.82176 153.648097 
L 174.88231 153.971199 
L 178.942859 152.853085 
L 183.003409 151.467336 
L 187.063958 150.330213 
L 191.124508 149.768875 
L 195.185057 149.614764 
L 199.245607 149.824472 
L 203.306156 150.600273 
" style="fill:none;stroke:#7c619f;stroke-dasharray:2.4,0.8;stroke-dashoffset:0;stroke-width:0.8;"/>
   </g>
   <g id="line2d_52">
    <path clip-path="url(#p123c99dd11)" d="M 189.094233 104.870627 
L 189.094233 101.945614 
" style="fill:none;stroke:#7c619f;stroke-linecap:round;stroke-width:0.75;"/>
   </g>
   <g id="line2d_53">
    <path clip-path="url(#p123c99dd11)" d="M 134.276814 152.776694 
L 138.337364 154.988199 
L 142.397913 152.5548 
L 146.458463 139.961098 
L 150.519012 120.227065 
L 154.579562 103.860866 
L 158.640111 100.66264 
L 162.700661 111.163576 
L 166.761211 128.319641 
L 170.82176 144.432483 
L 174.88231 155.741936 
L 178.942859 162.538659 
L 183.003409 165.083451 
L 187.063958 163.92935 
L 191.124508 161.305119 
L 195.185057 158.930727 
L 199.245607 157.011663 
L 203.306156 155.338441 
" style="fill:none;stroke:#68548e;stroke-linecap:round;stroke-width:0.8;"/>
   </g>
   <g id="line2d_54">
    <path clip-path="url(#p123c99dd11)" d="M 134.276814 151.742027 
L 138.337364 152.653101 
L 142.397913 150.672527 
L 146.458463 143.639681 
L 150.519012 135.410531 
L 154.579562 131.768856 
L 158.640111 135.16014 
L 162.700661 142.777423 
L 166.761211 149.740013 
L 170.82176 153.183766 
L 174.88231 153.828969 
L 178.942859 152.747006 
L 183.003409 151.108187 
L 187.063958 149.624983 
L 191.124508 149.002869 
L 195.185057 148.92936 
L 199.245607 149.118975 
L 203.306156 149.935518 
" style="fill:none;stroke:#68548e;stroke-dasharray:2.4,0.8;stroke-dashoffset:0;stroke-width:0.8;"/>
   </g>
   <g id="line2d_55">
    <path clip-path="url(#p123c99dd11)" d="M 191.124508 104.870627 
L 191.124508 101.945614 
" style="fill:none;stroke:#68548e;stroke-linecap:round;stroke-width:0.75;"/>
   </g>
   <g id="line2d_56">
    <path clip-path="url(#p123c99dd11)" d="M 134.276814 153.065367 
L 138.337364 155.701754 
L 142.397913 153.285818 
L 146.458463 139.942847 
L 150.519012 119.334059 
L 154.579562 102.511817 
L 158.640111 99.236987 
L 162.700661 109.706027 
L 166.761211 126.785164 
L 170.82176 142.864861 
L 174.88231 154.484085 
L 178.942859 162.021658 
L 183.003409 165.107038 
L 187.063958 163.83159 
L 191.124508 161.131607 
L 195.185057 159.112516 
L 199.245607 157.59107 
L 203.306156 155.877711 
" style="fill:none;stroke:#54467b;stroke-linecap:round;stroke-width:0.8;"/>
   </g>
   <g id="line2d_57">
    <path clip-path="url(#p123c99dd11)" d="M 134.276814 151.271119 
L 138.337364 152.216018 
L 142.397913 149.607935 
L 146.458463 141.433875 
L 150.519012 132.440042 
L 154.579562 128.726753 
L 158.640111 132.553204 
L 162.700661 140.851934 
L 166.761211 148.46378 
L 170.82176 152.452345 
L 174.88231 153.604926 
L 178.942859 152.579909 
L 183.003409 150.542451 
L 187.063958 148.514095 
L 191.124508 147.796247 
L 195.185057 147.849702 
L 199.245607 148.007667 
L 203.306156 148.888388 
" style="fill:none;stroke:#54467b;stroke-dasharray:2.4,0.8;stroke-dashoffset:0;stroke-width:0.8;"/>
   </g>
   <g id="line2d_58">
    <path clip-path="url(#p123c99dd11)" d="M 193.154782 104.870627 
L 193.154782 101.945614 
" style="fill:none;stroke:#54467b;stroke-linecap:round;stroke-width:0.75;"/>
   </g>
   <g id="line2d_59">
    <path clip-path="url(#p123c99dd11)" d="M 134.276814 153.479951 
L 138.337364 156.72654 
L 142.397913 154.335686 
L 146.458463 139.916635 
L 150.519012 118.05155 
L 154.579562 100.574353 
L 158.640111 97.189505 
L 162.700661 107.612737 
L 166.761211 124.581392 
L 170.82176 140.613486 
L 174.88231 152.677597 
L 178.942859 161.279156 
L 183.003409 165.140913 
L 187.063958 163.691191 
L 191.124508 160.882415 
L 195.185057 159.373596 
L 199.245607 158.423198 
L 203.306156 156.652195 
" style="fill:none;stroke:#413966;stroke-linecap:round;stroke-width:0.8;"/>
   </g>
   <g id="line2d_60">
    <path clip-path="url(#p123c99dd11)" d="M 134.276814 150.594815 
L 138.337364 151.588292 
L 142.397913 148.079 
L 146.458463 138.26596 
L 150.519012 128.173911 
L 154.579562 124.357773 
L 158.640111 128.809198 
L 162.700661 138.086603 
L 166.761211 146.630891 
L 170.82176 151.401899 
L 174.88231 153.283161 
L 178.942859 152.339928 
L 183.003409 149.729957 
L 187.063958 146.91867 
L 191.124508 146.06333 
L 195.185057 146.299128 
L 199.245607 146.411638 
L 203.306156 147.38453 
" style="fill:none;stroke:#413966;stroke-dasharray:2.4,0.8;stroke-dashoffset:0;stroke-width:0.8;"/>
   </g>
   <g id="line2d_61">
    <path clip-path="url(#p123c99dd11)" d="M 195.185057 104.870627 
L 195.185057 101.945614 
" style="fill:none;stroke:#413966;stroke-linecap:round;stroke-width:0.75;"/>
   </g>
   <g id="patch_9">
    <path d="M 130.825347 153.133344 
L 130.825347 94.633081 
" style="fill:none;stroke:#262626;stroke-linecap:square;stroke-linejoin:miter;"/>
   </g>
   <g id="patch_10">
    <path d="M 138.337364 167.75841 
L 203.306156 167.75841 
" style="fill:none;stroke:#262626;stroke-linecap:square;stroke-linejoin:miter;"/>
   </g>
   <g id="text_30">
    <!-- Low -->
    <defs>
     <path d="M 7.328125 0 
L 7.328125 71.578125 
L 16.796875 71.578125 
L 16.796875 8.453125 
L 52.046875 8.453125 
L 52.046875 0 
z
" id="ArialMT-76"/>
     <path d="M 16.15625 0 
L 0.296875 51.859375 
L 9.375 51.859375 
L 17.625 21.921875 
L 20.703125 10.796875 
Q 20.90625 11.625 23.390625 21.484375 
L 31.640625 51.859375 
L 40.671875 51.859375 
L 48.4375 21.78125 
L 51.03125 11.859375 
L 54 21.875 
L 62.890625 51.859375 
L 71.4375 51.859375 
L 55.21875 0 
L 46.09375 0 
L 37.84375 31.0625 
L 35.84375 39.890625 
L 25.34375 0 
z
" id="ArialMT-119"/>
    </defs>
    <g style="fill:#262626;" transform="translate(165.906334 104.959214)scale(0.06 -0.06)">
     <use xlink:href="#ArialMT-76"/>
     <use x="55.615234" xlink:href="#ArialMT-111"/>
     <use x="111.230469" xlink:href="#ArialMT-119"/>
    </g>
   </g>
   <g id="text_31">
    <!-- High -->
    <defs>
     <path d="M 8.015625 0 
L 8.015625 71.578125 
L 17.484375 71.578125 
L 17.484375 42.1875 
L 54.6875 42.1875 
L 54.6875 71.578125 
L 64.15625 71.578125 
L 64.15625 0 
L 54.6875 0 
L 54.6875 33.734375 
L 17.484375 33.734375 
L 17.484375 0 
z
" id="ArialMT-72"/>
    </defs>
    <g style="fill:#262626;" transform="translate(197.215332 104.924058)scale(0.06 -0.06)">
     <use xlink:href="#ArialMT-72"/>
     <use x="72.216797" xlink:href="#ArialMT-105"/>
     <use x="94.433594" xlink:href="#ArialMT-103"/>
     <use x="150.048828" xlink:href="#ArialMT-104"/>
    </g>
   </g>
   <g id="text_32">
    <!-- Prediction error -->
    <g style="fill:#262626;" transform="translate(163.139818 97.629351)scale(0.07 -0.07)">
     <use xlink:href="#ArialMT-80"/>
     <use x="66.699219" xlink:href="#ArialMT-114"/>
     <use x="100" xlink:href="#ArialMT-101"/>
     <use x="155.615234" xlink:href="#ArialMT-100"/>
     <use x="211.230469" xlink:href="#ArialMT-105"/>
     <use x="233.447266" xlink:href="#ArialMT-99"/>
     <use x="283.447266" xlink:href="#ArialMT-116"/>
     <use x="311.230469" xlink:href="#ArialMT-105"/>
     <use x="333.447266" xlink:href="#ArialMT-111"/>
     <use x="389.0625" xlink:href="#ArialMT-110"/>
     <use x="444.677734" xlink:href="#ArialMT-32"/>
     <use x="472.460938" xlink:href="#ArialMT-101"/>
     <use x="528.076172" xlink:href="#ArialMT-114"/>
     <use x="561.376953" xlink:href="#ArialMT-114"/>
     <use x="594.677734" xlink:href="#ArialMT-111"/>
     <use x="650.292969" xlink:href="#ArialMT-114"/>
    </g>
   </g>
  </g>
 </g>
 <defs>
  <clipPath id="p3a650c973c">
   <rect height="50.700228" width="169.460033" x="37.29759" y="5.09184"/>
  </clipPath>
  <clipPath id="pecfff13546">
   <rect height="76.050342" width="56.949207" x="37.29759" y="91.708068"/>
  </clipPath>
  <clipPath id="p123c99dd11">
   <rect height="76.050342" width="75.932276" x="130.825347" y="91.708068"/>
  </clipPath>
 </defs>
</svg>
